<svg width="20" height="20" viewBox="0 0 20 20" fill="none" xmlns="http://www.w3.org/2000/svg">
<path d="M10.0002 1.11111C7.64274 1.11111 5.38181 2.04762 3.71482 3.71461C2.04783 5.3816 1.11133 7.64252 1.11133 10C1.11133 12.3575 2.04783 14.6184 3.71482 16.2854C5.38181 17.9524 7.64274 18.8889 10.0002 18.8889C12.3577 18.8889 14.6186 17.9524 16.2856 16.2854C17.9526 14.6184 18.8891 12.3575 18.8891 10C18.8891 7.64252 17.9526 5.3816 16.2856 3.71461C14.6186 2.04762 12.3577 1.11111 10.0002 1.11111ZM10.0002 17.9011C8.95482 17.9135 7.91735 17.7183 6.94794 17.3268C5.97853 16.9354 5.09645 16.3554 4.35282 15.6205C3.60919 14.8857 3.01879 14.0105 2.61584 13.0458C2.2129 12.0811 2.00541 11.046 2.00541 10.0006C2.00541 8.95509 2.2129 7.92001 2.61584 6.95531C3.01879 5.99061 3.60919 5.11547 4.35282 4.3806C5.09645 3.64574 5.97853 3.06576 6.94794 2.67428C7.91735 2.2828 8.95482 2.08761 10.0002 2.1C12.0725 2.13476 14.0481 2.98236 15.5013 4.46012C16.9545 5.93787 17.7688 7.92745 17.7688 10C17.7688 12.0726 16.9545 14.0621 15.5013 15.5399C14.0481 17.0176 12.0725 17.8664 10.0002 17.9011ZM10.6124 9.38778H14.4447V10.6111H10.6124V14.4444H9.3891V10.6122H5.55577V9.38889H9.38799V5.55556H10.6113L10.6124 9.38778Z" fill="black"/>
</svg>
