<svg width="20" height="20" viewBox="0 0 20 20" fill="none" xmlns="http://www.w3.org/2000/svg">
<path d="M10.0002 1.11111C7.64274 1.11111 5.38181 2.04762 3.71482 3.71461C2.04783 5.3816 1.11133 7.64252 1.11133 10C1.11133 12.3575 2.04783 14.6184 3.71482 16.2854C5.38181 17.9524 7.64274 18.8889 10.0002 18.8889C12.3577 18.8889 14.6186 17.9524 16.2856 16.2854C17.9526 14.6184 18.8891 12.3575 18.8891 10C18.8891 7.64252 17.9526 5.3816 16.2856 3.71461C14.6186 2.04762 12.3577 1.11111 10.0002 1.11111ZM10.6124 9.38778H14.4447V10.6111H10.6124V14.4444H9.3891V10.6122H5.55577V9.38889H9.38799V5.55556H10.6113V9.38778H10.6124Z" fill="black"/>
</svg>
