<svg width="18" height="18" viewBox="0 0 18 18" fill="none" xmlns="http://www.w3.org/2000/svg">
<g clip-path="url(#clip0_6762_1150)">
<path d="M9.00022 0.111084C6.64274 0.111084 4.38181 1.04759 2.71482 2.71458C1.04783 4.38157 0.111328 6.64249 0.111328 8.99997C0.111328 11.3575 1.04783 13.6184 2.71482 15.2854C4.38181 16.9524 6.64274 17.8889 9.00022 17.8889C11.3577 17.8889 13.6186 16.9524 15.2856 15.2854C16.9526 13.6184 17.8891 11.3575 17.8891 8.99997C17.8891 6.64249 16.9526 4.38157 15.2856 2.71458C13.6186 1.04759 11.3577 0.111084 9.00022 0.111084ZM9.61244 8.38775H13.4447V9.61108H9.61244V13.4444H8.3891V9.61219H4.55577V8.38886H8.38799V4.55553H9.61133V8.38775H9.61244Z" fill="black"/>
</g>
<defs>
<clipPath id="clip0_6762_1150">
<rect width="18" height="18" fill="white"/>
</clipPath>
</defs>
</svg>
