<svg width="18" height="18" viewBox="0 0 18 18" fill="none" xmlns="http://www.w3.org/2000/svg">
<g clip-path="url(#clip0_6762_1148)">
<path d="M9.00022 0.111084C6.64274 0.111084 4.38181 1.04759 2.71482 2.71458C1.04783 4.38157 0.111328 6.64249 0.111328 8.99997C0.111328 11.3575 1.04783 13.6184 2.71482 15.2854C4.38181 16.9524 6.64274 17.8889 9.00022 17.8889C11.3577 17.8889 13.6186 16.9524 15.2856 15.2854C16.9526 13.6184 17.8891 11.3575 17.8891 8.99997C17.8891 6.64249 16.9526 4.38157 15.2856 2.71458C13.6186 1.04759 11.3577 0.111084 9.00022 0.111084ZM9.00022 16.9011C7.95482 16.9135 6.91735 16.7183 5.94794 16.3268C4.97853 15.9353 4.09645 15.3554 3.35282 14.6205C2.60919 13.8856 2.01879 13.0105 1.61584 12.0458C1.2129 11.0811 1.00541 10.046 1.00541 9.00053C1.00541 7.95505 1.2129 6.91998 1.61584 5.95528C2.01879 4.99058 2.60919 4.11544 3.35282 3.38057C4.09645 2.64571 4.97853 2.06573 5.94794 1.67425C6.91735 1.28277 7.95482 1.08758 9.00022 1.09997C11.0725 1.13473 13.0481 1.98233 14.5013 3.46009C15.9545 4.93784 16.7688 6.92742 16.7688 8.99997C16.7688 11.0725 15.9545 13.0621 14.5013 14.5399C13.0481 16.0176 11.0725 16.8663 9.00022 16.9011ZM9.61244 8.38775H13.4447V9.61108H9.61244V13.4444H8.3891V9.61219H4.55577V8.38886H8.38799V4.55553H9.61133L9.61244 8.38775Z" fill="black"/>
</g>
<defs>
<clipPath id="clip0_6762_1148">
<rect width="18" height="18" fill="white"/>
</clipPath>
</defs>
</svg>
