<svg width="18" height="18" viewBox="21 12 12 26" fill="none" xmlns="http://www.w3.org/2000/svg">
<rect width="56" height="53" fill="none"/>
<path d="M35.25 13C35.4489 13 35.6396 13.0791 35.7803 13.2197C35.9209 13.3604 36 13.5511 36 13.75V36.25C36 36.4489 35.9209 36.6396 35.7803 36.7803C35.6396 36.9209 35.4489 37 35.25 37H18.75C18.5511 37 18.3604 36.9209 18.2197 36.7803C18.0791 36.6396 18 36.4489 18 36.25V13.75C18 13.5511 18.0791 13.3604 18.2197 13.2197C18.3604 13.0791 18.5511 13 18.75 13H35.25ZM19.5 35.5H34.5V14.5H19.5V35.5ZM32.6699 30.96H30.2871L29.2148 27.9199H25.4697L24.3818 30.96H22L26.1426 20H28.5264L32.6699 30.96ZM27.3955 22.9229C27.3833 22.8531 27.2866 22.8531 27.2744 22.9229C27.2731 22.9306 27.2719 22.9386 27.2705 22.9463C27.2363 23.1326 27.1763 23.3091 27.0947 23.4717C27.0586 23.5438 27.018 23.6134 26.9736 23.6797C26.8494 23.8649 26.6938 24.0271 26.5156 24.1562C26.4518 24.2025 26.3849 24.2445 26.3154 24.2822C26.1592 24.367 25.9896 24.4292 25.8105 24.4648C25.8033 24.4663 25.7954 24.4674 25.7881 24.4688C25.7208 24.4812 25.7208 24.5822 25.7881 24.5947C25.7954 24.5961 25.8032 24.5972 25.8105 24.5986C25.9896 24.6342 26.1591 24.6974 26.3154 24.7822C26.3849 24.8199 26.4518 24.8619 26.5156 24.9082C26.6937 25.0373 26.8494 25.1986 26.9736 25.3838C27.018 25.45 27.0585 25.5197 27.0947 25.5918C27.1763 25.7544 27.2363 25.9319 27.2705 26.1182C27.2719 26.1256 27.2731 26.1331 27.2744 26.1406C27.2865 26.2105 27.3834 26.2105 27.3955 26.1406C27.3968 26.1332 27.3981 26.1256 27.3994 26.1182C27.4337 25.9318 27.4936 25.7544 27.5752 25.5918C27.6114 25.5197 27.6519 25.45 27.6963 25.3838C27.8204 25.1987 27.9754 25.0373 28.1533 24.9082C28.2172 24.8619 28.2849 24.82 28.3545 24.7822C28.5108 24.6974 28.6803 24.6342 28.8594 24.5986C28.8667 24.5972 28.8745 24.5961 28.8818 24.5947C28.949 24.5821 28.949 24.4814 28.8818 24.4688C28.8745 24.4674 28.8667 24.4663 28.8594 24.4648C28.6804 24.4293 28.5107 24.367 28.3545 24.2822C28.2849 24.2445 28.2172 24.2026 28.1533 24.1562C27.9752 24.0271 27.8205 23.8649 27.6963 23.6797C27.6519 23.6134 27.6114 23.5438 27.5752 23.4717C27.4936 23.3091 27.4337 23.1326 27.3994 22.9463C27.398 22.9386 27.3968 22.9306 27.3955 22.9229ZM24.1865 20.0361C24.1947 19.9884 24.2613 19.9884 24.2695 20.0361C24.2704 20.0413 24.2705 20.0466 24.2715 20.0518C24.2948 20.1788 24.336 20.2993 24.3916 20.4102C24.4164 20.4595 24.4442 20.5074 24.4746 20.5527C24.5593 20.679 24.6648 20.7889 24.7861 20.877C24.8297 20.9085 24.8755 20.9372 24.9229 20.9629C25.0295 21.0208 25.1454 21.0636 25.2676 21.0879C25.2726 21.0889 25.2781 21.0899 25.2832 21.0908C25.3287 21.0996 25.3287 21.1671 25.2832 21.1758C25.2781 21.1767 25.2726 21.1777 25.2676 21.1787C25.1454 21.203 25.0295 21.2458 24.9229 21.3037C24.8755 21.3294 24.8296 21.3581 24.7861 21.3896C24.6647 21.4777 24.5592 21.5876 24.4746 21.7139C24.4442 21.7592 24.4164 21.8071 24.3916 21.8564C24.336 21.9673 24.2948 22.0879 24.2715 22.2148C24.2705 22.22 24.2704 22.2253 24.2695 22.2305C24.2613 22.2782 24.1948 22.2782 24.1865 22.2305C24.1856 22.2253 24.1855 22.22 24.1846 22.2148C24.1613 22.0879 24.12 21.9673 24.0645 21.8564C24.0397 21.8071 24.0118 21.7592 23.9814 21.7139C23.8968 21.5876 23.7913 21.4777 23.6699 21.3896C23.6264 21.3581 23.5806 21.3294 23.5332 21.3037C23.4266 21.2458 23.3106 21.203 23.1885 21.1787C23.1834 21.1777 23.1779 21.1767 23.1729 21.1758C23.1273 21.1671 23.1273 21.0996 23.1729 21.0908C23.1779 21.0899 23.1834 21.0889 23.1885 21.0879C23.3107 21.0636 23.4266 21.0208 23.5332 20.9629C23.5806 20.9372 23.6264 20.9085 23.6699 20.877C23.7913 20.7889 23.8968 20.679 23.9814 20.5527C24.0118 20.5074 24.0397 20.4595 24.0645 20.4102C24.1201 20.2993 24.1612 20.1788 24.1846 20.0518C24.1855 20.0466 24.1856 20.0413 24.1865 20.0361Z" fill="black"/>
</svg>
