<svg width="18" height="18" viewBox="0 0 18 18" fill="none" xmlns="http://www.w3.org/2000/svg">
<path fill-rule="evenodd" clip-rule="evenodd" d="M1 9C1 4.58172 4.58172 1 9 1C11.1217 1 13.1566 1.84285 14.6569 3.34315C16.1571 4.84344 17 6.87827 17 9C17 13.4183 13.4183 17 9 17C4.58172 17 1 13.4183 1 9ZM16.1111 9C16.1111 5.07264 12.9274 1.88889 9 1.88889C5.07264 1.88889 1.88889 5.07264 1.88889 9C1.88889 12.9274 5.07264 16.1111 9 16.1111C12.9274 16.1111 16.1111 12.9274 16.1111 9ZM9.57778 5.13333L9.39111 10.7778H8.60889L8.42222 5.13333H9.57778ZM9.56889 11.6578H8.42222L8.44 12.8667H9.56889V11.6578Z" fill="black"/>
</svg>
