<?xml version="1.0" encoding="utf-8"?>
<!-- Generator: Adobe Illustrator 27.5.0, SVG Export Plug-In . SVG Version: 6.00 Build 0)  -->
<svg version="1.1" id="Layer_1" xmlns="http://www.w3.org/2000/svg" xmlns:xlink="http://www.w3.org/1999/xlink" x="0px" y="0px"
	 viewBox="0 0 18 18" style="enable-background:new 0 0 18 18;" xml:space="preserve">
<style type="text/css">
	.st0{fill:#C2C2C2;}
	.st1{fill:#1023D7;}
</style>
<g>
	<path class="st0" d="M17,15H1c-0.6,0-1-0.4-1-1V4c0-0.6,0.4-1,1-1h16c0.6,0,1,0.4,1,1v10C18,14.6,17.6,15,17,15z"/>
	<g>
		<path class="st1" d="M11.5,8.5H1v-2h10.5C11.8,6.5,12,6.7,12,7v1C12,8.3,11.8,8.5,11.5,8.5z"/>
		<path class="st1" d="M6.5,9.5H17v2H6.5C6.2,11.5,6,11.3,6,11v-1C6,9.7,6.2,9.5,6.5,9.5z"/>
	</g>
</g>
</svg>
