<svg width="18" height="18" viewBox="0 0 18 18" fill="none" xmlns="http://www.w3.org/2000/svg">
<g clip-path="url(#clip0_6762_1247)">
<path d="M16.4998 3.29996H1.4998C0.837063 3.29996 0.299805 3.83722 0.299805 4.49996V13.5C0.299805 14.1627 0.837063 14.7 1.4998 14.7H16.4998C17.1625 14.7 17.6998 14.1627 17.6998 13.5V4.49996C17.6998 3.83722 17.1625 3.29996 16.4998 3.29996Z" fill="#EFEFEF" stroke="#E7E7E7" stroke-width="0.666667"/>
<path fill-rule="evenodd" clip-rule="evenodd" d="M5.9994 9.59998C5.92013 9.59997 5.84164 9.61569 5.76849 9.64622C5.69533 9.67676 5.62896 9.7215 5.57321 9.77786C5.51746 9.83422 5.47345 9.90108 5.44372 9.97457C5.41399 10.0481 5.39913 10.1267 5.4 10.206V11.394C5.4 11.7288 5.6634 12 5.9994 12H18V9.59998H5.9994ZM0 6.59998V8.99998H12.0006C12.0799 8.99998 12.1584 8.98426 12.2315 8.95373C12.3047 8.92319 12.371 8.87845 12.4268 8.82209C12.4825 8.76573 12.5266 8.69887 12.5563 8.62538C12.586 8.5519 12.6009 8.47324 12.6 8.39398V7.20598C12.6009 7.12671 12.586 7.04805 12.5563 6.97457C12.5266 6.90108 12.4825 6.83422 12.4268 6.77786C12.371 6.7215 12.3047 6.67676 12.2315 6.64623C12.1584 6.61569 12.0799 6.59997 12.0006 6.59998H0Z" fill="#4DB3FF"/>
<path d="M16.4998 3.29996H1.4998C0.837063 3.29996 0.299805 3.83722 0.299805 4.49996V13.5C0.299805 14.1627 0.837063 14.7 1.4998 14.7H16.4998C17.1625 14.7 17.6998 14.1627 17.6998 13.5V4.49996C17.6998 3.83722 17.1625 3.29996 16.4998 3.29996Z" stroke="#E7E7E7" stroke-width="0.666667"/>
</g>
<defs>
<clipPath id="clip0_6762_1247">
<rect width="18" height="18" fill="white"/>
</clipPath>
</defs>
</svg>
