<svg width="18" height="18" viewBox="0 0 18 18" fill="none" xmlns="http://www.w3.org/2000/svg">
<rect x="1" y="3" width="16" height="12" rx="1" fill="white"/>
<path d="M15.5 13L15 12.3L14.5 13H13H9.65529L9.65529 9.25H8.20819L10 5H11.9L12.44 6.5L12.3857 5H14.6L15 6.2L15.4 5H17V3.8C17 3.352 16.6997 3 16.3174 3H1.68259C1.30034 3 1 3.352 1 3.8V14.2C1 14.648 1.30034 15 1.68259 15H16.3174C16.6997 15 17 14.648 17 14.2V13H15.5Z" fill="#0071CE"/>
<path d="M16.2002 10.904L17.0002 11.79V9.95L16.2002 10.904Z" fill="#0071CE"/>
<path d="M15.875 12.568H17.0218L15.52 10.8898L17.0218 9.23999H15.9023L14.9467 10.3209L14.0183 9.23999H12.8716L14.4006 10.9182L12.8716 12.568H13.991L14.9467 11.4871L15.875 12.568Z" fill="#0071CE"/>
<path d="M11.0422 11.8V11.288H12.8442V10.52H11.0422V10.008H12.8715V9.23999H10.1685V12.568H12.8715V11.8H11.0422Z" fill="#0071CE"/>
<path d="M16.1753 8.75644H16.9944V5.42844L15.6839 5.42844L14.974 7.50488L14.2368 5.42844H12.8716V8.75644H13.7453V6.42399L14.5644 8.75644H15.3289L16.1753 6.42399V8.75644Z" fill="#0071CE"/>
<path d="M11.4792 5.42844H10.3597L8.93994 8.75644H9.89557L10.1686 8.10221H11.643L11.916 8.75644H12.899L11.4792 5.42844ZM10.469 7.33421L10.9058 6.25333L11.3427 7.33421H10.469Z" fill="#0071CE"/>
</svg>
