<svg xmlns="http://www.w3.org/2000/svg" width="70" height="45"
	viewBox="0 0 70 45" fill="#000000">
  <path d="M63.547 0H5.535c-.203.004-.402.004-.601.012a9 9 0 0
		0-1.317.113c-.437.082-.847.21-1.246.414-.39.203-.75.465-1.062.777a4.4 4.4 0 0
		0-.774 1.07 4.5 4.5 0 0 0-.41 1.259 9 9 0 0 0-.113 1.32C.004 5.168.004 5.37
		0 5.57v33.844c.004.203.004.402.012.606.011.44.035.886.113 1.32.078.445.207.855.41
		1.258.203.394.461.757.774 1.07.312.312.671.574 1.062.777.399.203.809.332
		1.246.414.434.078.875.106 1.317.118l.601.007h58.727c.203-.004.402-.004.605-.007.438-.012.88-.04
		1.313-.118.437-.082.847-.21 1.246-.414.394-.203.75-.465
		1.062-.777.313-.313.575-.676.774-1.07a4.4 4.4 0 0 0 .41-1.258 9 9 0 0 0
		.113-1.32c.008-.204.012-.403.012-.606V5.57q0-.3-.012-.605a9 9 0 0 0-.113-1.32
		4.25 4.25 0 0 0-1.184-2.328 4.3 4.3 0 0 0-1.062-.778A4.5 4.5 0 0 0 66.18.125a9
		9 0 0 0-1.313-.113c-.203-.008-.402-.008-.605-.012zm0 0"/>
  <path d="M63.547 1.5h.707c.187.004.379.004.57.008a8 8 0 0 1
		1.09.094c.316.058.582.144.836.277q.382.195.684.5.305.305.5.691c.129.254.214.52.273.84.063.363.082.758.09
		1.098.008.187.008.379.012.574v33.824c-.004.192-.004.383-.012.574-.008.336-.027.73-.09
		1.098a3 3 0 0 1-.273.84 2.7 2.7 0 0 1-1.184 1.191c-.254.13-.52.215-.832.274a7.5
		7.5 0 0 1-1.086.094q-.285.006-.582.007H5.543q-.294-.001-.57-.007a7.4 7.4 0 0
		1-1.09-.094 2.9 2.9 0 0 1-.836-.278 2.7 2.7 0 0 1-1.184-1.187 3 3 0 0
		1-.273-.844 8 8 0 0 1-.09-1.094c-.008-.19-.008-.382-.008-.574l-.004-.566V6.145l.004-.563c0-.191
		0-.383.008-.578.008-.332.027-.727.094-1.098.054-.316.14-.582.27-.84q.193-.381.5-.687.3-.305.683-.5c.254-.133.52-.219.836-.277a8
		8 0 0 1 1.09-.094c.191-.004.382-.004.57-.008z" fill="#ffffff"/>
  <path d="M19.055 15.129c.597-.75 1.004-1.762.894-2.793-.875.043-1.941.578-2.558
		1.332-.555.645-1.047 1.7-.918 2.687.98.086 1.96-.492 2.582-1.226m.886
		1.421c-1.43-.085-2.64.813-3.32.813-.683 0-1.726-.77-2.855-.75-1.465.024-2.828.856-3.575
		2.188-1.53 2.656-.402 6.601 1.086 8.77.723 1.07 1.598 2.25 2.746 2.206
		1.086-.043 1.512-.707 2.832-.707 1.317 0 1.7.707 2.852.688 1.191-.024 1.934-1.074
		2.66-2.145.828-1.222 1.168-2.402 1.192-2.468-.024-.02-2.301-.899-2.32-3.536-.024-2.207
		1.788-3.257 1.87-3.324-1.02-1.52-2.617-1.691-3.168-1.734m12.419-2.988c3.097
		0 5.257 2.148 5.257 5.28 0 3.145-2.203 5.305-5.336 5.305h-3.433v5.497h-2.48V13.563Zm-3.512
		8.492h2.843c2.16 0 3.391-1.172 3.391-3.2 0-2.027-1.23-3.187-3.379-3.187h-2.855Zm9.418
		4.258c0-2.051 1.558-3.313 4.328-3.47l3.187-.187v-.902c0-1.305-.875-2.086-2.336-2.086-1.383
		0-2.246.668-2.457 1.719H38.73c.133-2.121 1.926-3.68 4.805-3.68 2.82 0 4.625 1.504
		4.625 3.855v8.083h-2.289v-1.93h-.059c-.671 1.305-2.144 2.129-3.671 2.129-2.282
		0-3.875-1.426-3.875-3.532m7.515-1.06v-.925l-2.867.18c-1.43.097-2.238.734-2.238
		1.738 0 1.024.844 1.692 2.129 1.692 1.668 0 2.976-1.157 2.976-2.684m4.543
		8.704v-1.95c.176.044.574.044.774.044 1.109 0 1.707-.469 2.07-1.672
		0-.02.21-.711.21-.723l-4.206-11.738h2.59l2.945 9.543h.047l2.945-9.543h2.524l-4.364
		12.34c-.996 2.84-2.148 3.754-4.558 3.754-.203 0-.801-.02-.977-.055m0 0"/>
</svg>
