<svg width="26" height="26" viewBox="0 0 26 26" xmlns="http://www.w3.org/2000/svg">
<path d="M22.8507 5.5H3.14931C3.06726 5.5 2.98506 5.5 2.90315 5.50047C2.83391 5.50095 2.76484 5.5017 2.69576 5.50354C2.54511 5.50752 2.39317 5.51619 2.2444 5.5423C2.09326 5.56885 1.95261 5.61217 1.8154 5.68037C1.68051 5.74734 1.55702 5.83494 1.45 5.93946C1.34293 6.04399 1.2532 6.16435 1.18462 6.29618C1.11475 6.43014 1.07035 6.56749 1.04334 6.71516C1.01646 6.86044 1.00751 7.00875 1.00345 7.15567C1.00159 7.2231 1.0008 7.29054 1.00034 7.35797C0.999866 7.4381 1.00003 7.51818 1.00003 7.59845V18.4017C1.00003 18.482 0.999866 18.5619 1.00034 18.6422C1.0008 18.7096 1.00159 18.7771 1.00345 18.8445C1.00751 18.9913 1.01646 19.1396 1.04334 19.2848C1.07035 19.4326 1.11475 19.5699 1.18462 19.7038C1.2532 19.8357 1.34293 19.9562 1.45 20.0606C1.55702 20.1652 1.68051 20.2528 1.8154 20.3196C1.95261 20.388 2.09326 20.4313 2.2444 20.4579C2.39317 20.4838 2.54511 20.4927 2.69576 20.4966C2.76484 20.4982 2.83391 20.4991 2.90315 20.4994C2.98506 20.5 3.06726 20.5 3.14931 20.5H22.8507C22.9326 20.5 23.0148 20.5 23.0967 20.4994C23.1658 20.4991 23.2349 20.4982 23.3043 20.4966C23.4546 20.4927 23.6065 20.4838 23.7556 20.4579C23.9066 20.4313 24.0473 20.388 24.1845 20.3196C24.3195 20.2528 24.4426 20.1652 24.5499 20.0606C24.6568 19.9562 24.7465 19.8357 24.8153 19.7038C24.8853 19.5699 24.9296 19.4326 24.9565 19.2848C24.9834 19.1396 24.9922 18.9913 24.9962 18.8445C24.9981 18.7771 24.999 18.7096 24.9994 18.6422C25 18.5619 25 18.482 25 18.4017V7.59845C25 7.51818 25 7.4381 24.9994 7.35797C24.999 7.29054 24.9981 7.2231 24.9962 7.15567C24.9922 7.00875 24.9834 6.86044 24.9565 6.71516C24.9296 6.56749 24.8853 6.43014 24.8153 6.29618C24.7465 6.16435 24.6568 6.04399 24.5499 5.93946C24.4426 5.83494 24.3195 5.74734 24.1845 5.68037C24.0473 5.61217 23.9066 5.56885 23.7556 5.5423C23.6065 5.51619 23.4546 5.50752 23.3043 5.50354C23.2349 5.5017 23.1658 5.50095 23.0967 5.50047C23.0148 5.5 22.9326 5.5 22.8507 5.5Z" fill="#000000"/>
<path d="M22.8464 6.00195L23.0887 6.00241C23.1544 6.00286 23.2201 6.00355 23.2861 6.00531C23.4009 6.00834 23.5353 6.01441 23.6605 6.03632C23.7693 6.05546 23.8606 6.08457 23.9482 6.12811C24.0347 6.17101 24.114 6.22724 24.1831 6.29469C24.2526 6.3626 24.3103 6.44008 24.3548 6.52546C24.3991 6.61032 24.4288 6.69902 24.4483 6.80606C24.4706 6.92698 24.4768 7.05848 24.48 7.17129C24.4817 7.23496 24.4826 7.29863 24.4829 7.36382C24.4836 7.44265 24.4835 7.52144 24.4835 7.60043V18.4037C24.4835 18.4827 24.4836 18.5613 24.4829 18.6418C24.4826 18.7055 24.4817 18.7692 24.48 18.8329C24.4768 18.9456 24.4706 19.077 24.448 19.1994C24.4288 19.3049 24.3992 19.3937 24.3546 19.4789C24.3102 19.5641 24.2526 19.6415 24.1834 19.709C24.1138 19.7769 24.0349 19.833 23.9473 19.8763C23.8604 19.9196 23.7693 19.9487 23.6615 19.9676C23.5337 19.9899 23.3938 19.996 23.2884 19.9988C23.222 20.0002 23.156 20.0011 23.0884 20.0014C23.0078 20.002 22.927 20.002 22.8464 20.002H3.14498C3.14391 20.002 3.14287 20.002 3.14178 20.002C3.06212 20.002 2.9823 20.002 2.90119 20.0014C2.83505 20.0011 2.76907 20.0002 2.70527 19.9988C2.59745 19.996 2.4574 19.9899 2.33068 19.9678C2.22198 19.9487 2.13085 19.9196 2.04275 19.8757C1.95606 19.8328 1.87713 19.7768 1.80752 19.7087C1.73844 19.6414 1.68104 19.5642 1.63666 19.479C1.59223 19.3937 1.56251 19.3048 1.54296 19.1979C1.52037 19.0758 1.51416 18.9449 1.51106 18.833C1.50929 18.769 1.50855 18.705 1.50813 18.6413L1.50781 18.4533L1.50783 18.4037V7.60043L1.50781 7.5508L1.50812 7.36323C1.50855 7.29917 1.50929 7.23513 1.51106 7.17114C1.51416 7.05915 1.52037 6.92818 1.54315 6.80506C1.56252 6.69919 1.59223 6.61021 1.63689 6.52458C1.68092 6.43994 1.73843 6.36268 1.80787 6.2949C1.87703 6.22735 1.95621 6.1712 2.04346 6.12788C2.13062 6.08455 2.22192 6.05546 2.33063 6.03637C2.45587 6.0144 2.5903 6.00834 2.70543 6.00529C2.77105 6.00355 2.83668 6.00286 2.90181 6.00242L3.14498 6.00195H22.8464Z" fill="#ffffff"/>
<path d="M7.54736 10.5435C7.75285 10.2926 7.8923 9.95563 7.85552 9.61133C7.5547 9.62593 7.18762 9.80508 6.97509 10.0562C6.78426 10.2713 6.61537 10.6223 6.6594 10.9522C6.99708 10.9808 7.33445 10.7874 7.54736 10.5435Z" fill="#000000"/>
<path d="M7.85311 11.0175C7.36272 10.989 6.94576 11.2893 6.71158 11.2893C6.47726 11.2893 6.11864 11.0319 5.73076 11.0388C5.22592 11.0461 4.75748 11.3248 4.50129 11.768C3.97436 12.6546 4.36224 13.9698 4.87465 14.692C5.12349 15.0492 5.42339 15.4426 5.81854 15.4285C6.1919 15.4142 6.33824 15.1924 6.79208 15.1924C7.24557 15.1924 7.3774 15.4285 7.77262 15.4213C8.18247 15.4142 8.4387 15.0639 8.68754 14.7063C8.97301 14.299 9.08987 13.9058 9.09722 13.8842C9.08987 13.877 8.3069 13.5838 8.29964 12.7045C8.29225 11.9683 8.91436 11.6181 8.94364 11.5964C8.59233 11.0891 8.04341 11.0319 7.85311 11.0175Z" fill="#000000"/>
<path d="M12.1181 10.0254C13.1839 10.0254 13.9261 10.7427 13.9261 11.787C13.9261 12.835 13.1687 13.556 12.0913 13.556H10.9112V15.3882H10.0586V10.0254L12.1181 10.0254ZM10.9112 12.8573H11.8896C12.6319 12.8573 13.0544 12.4671 13.0544 11.7907C13.0544 11.1144 12.6319 10.7278 11.8934 10.7278H10.9112V12.8573Z" fill="#000000"/>
<path d="M14.1484 14.2754C14.1484 13.5915 14.6852 13.1716 15.6369 13.1195L16.7332 13.0564V12.7554C16.7332 12.3205 16.4325 12.0604 15.9301 12.0604C15.4541 12.0604 15.1572 12.2833 15.0849 12.6327H14.3084C14.354 11.9265 14.9707 11.4062 15.9605 11.4062C16.9312 11.4062 17.5516 11.908 17.5516 12.6921V15.3865H16.7636V14.7436H16.7447C16.5125 15.1784 16.0061 15.4534 15.4808 15.4534C14.6966 15.4534 14.1484 14.9777 14.1484 14.2754ZM16.7332 13.9223V13.6138L15.7472 13.6733C15.2562 13.7068 14.9783 13.9186 14.9783 14.2531C14.9783 14.5949 15.2676 14.8179 15.7092 14.8179C16.284 14.8179 16.7332 14.4314 16.7332 13.9223Z" fill="#000000"/>
<path d="M18.2944 16.8245V16.1741C18.3552 16.189 18.4922 16.189 18.5607 16.189C18.9414 16.189 19.147 16.0329 19.2725 15.6315C19.2725 15.6241 19.3449 15.3937 19.3449 15.39L17.8984 11.4766H18.7891L19.8018 14.6579H19.8169L20.8296 11.4766H21.6975L20.1976 15.5906C19.8551 16.5384 19.4592 16.8431 18.6293 16.8431C18.5608 16.8431 18.3552 16.8356 18.2944 16.8245Z" fill="#000000"/>
</svg>
