<svg width="18" height="18" viewBox="0 0 18 18" fill="none" xmlns="http://www.w3.org/2000/svg">
<path d="M15 7H3V16H15V7ZM16 6.55556V16.4444C16 16.5918 15.9385 16.7331 15.8291 16.8373C15.7197 16.9415 15.5714 17 15.4167 17H2.58333C2.42862 17 2.28025 16.9415 2.17085 16.8373C2.06146 16.7331 2 16.5918 2 16.4444V6.55556C2 6.40821 2.06146 6.2669 2.17085 6.16272C2.28025 6.05853 2.42862 6 2.58333 6H15.4167C15.5714 6 15.7197 6.05853 15.8291 6.16272C15.9385 6.2669 16 6.40821 16 6.55556Z" fill="black"/>
<path d="M16 2H2V6H16V2ZM17 1.7V6.3C17 6.48565 16.9298 6.6637 16.8047 6.79498C16.6797 6.92625 16.5101 7 16.3333 7H1.66667C1.48986 7 1.32029 6.92625 1.19526 6.79498C1.07024 6.6637 1 6.48565 1 6.3V1.7C1 1.51435 1.07024 1.3363 1.19526 1.20502C1.32029 1.07375 1.48986 1 1.66667 1H16.3333C16.5101 1 16.6797 1.07375 16.8047 1.20502C16.9298 1.3363 17 1.51435 17 1.7Z" fill="black"/>
<path d="M12 9H6V10H9H12V9Z" fill="black"/>
</svg>
