<?xml version="1.0" encoding="UTF-8"?>
<svg version="1.1" xmlns="http://www.w3.org/2000/svg" width="4126" height="583">
<path d="M0 0 C586.74 0 1173.48 0 1778 0 C1778 192.39 1778 384.78 1778 583 C1191.26 583 604.52 583 0 583 C0 390.61 0 198.22 0 0 Z M43 40 C43 205.99 43 371.98 43 543 C351.55 543 660.1 543 978 543 C978 515.61 978 488.22 978 460 C991.53 460 1005.06 460 1019 460 C1019 487.39 1019 514.78 1019 543 C1255.28 543 1491.56 543 1735 543 C1735 377.01 1735 211.02 1735 40 C1176.64 40 618.28 40 43 40 Z " fill="#000000" transform="translate(0,0)"/>
<path d="M0 0 C32.29795856 29.70267208 46.49839397 71.67199616 53.24609375 114.02734375 C53.37741699 114.80932129 53.50874023 115.59129883 53.64404297 116.39697266 C56.55479831 134.37180545 55.24609375 153.03637474 55.24609375 171.02734375 C-37.15390625 171.02734375 -129.55390625 171.02734375 -224.75390625 171.02734375 C-221.84334856 207.40931485 -217.71635327 244.57182992 -188.58203125 269.86328125 C-171.81807572 282.69094888 -150.77690017 289.39112157 -129.75390625 290.02734375 C-129.09519531 290.04780762 -128.43648437 290.06827148 -127.7578125 290.08935547 C-98.14413089 290.87653813 -65.62090157 287.00086695 -43.07788086 265.81787109 C-37.27701724 260.14027695 -32.60706473 254.21039228 -28.75390625 247.02734375 C-28.15964844 245.92003906 -27.56539062 244.81273437 -26.953125 243.671875 C-21.21883368 232.44317612 -18.08532463 220.37890068 -15.75390625 208.02734375 C-2.10074898 208.50209382 11.50426614 209.45324984 25.12109375 210.52734375 C25.9628717 210.59305573 26.80464966 210.6587677 27.67193604 210.72647095 C30.11095395 210.9176693 32.54965925 211.11241599 34.98828125 211.30859375 C35.71682312 211.36589157 36.44536499 211.42318939 37.19598389 211.48222351 C41.58021094 211.84139685 45.90021713 212.36454601 50.24609375 213.02734375 C43.04076387 253.27174722 24.85616332 291.21075086 -9.19140625 315.40234375 C-50.68219298 343.87250486 -106.64879939 351.00234188 -155.75390625 343.02734375 C-156.5217041 342.90907227 -157.28950195 342.79080078 -158.08056641 342.66894531 C-184.34384815 338.48936656 -211.04297754 329.12553903 -231.75390625 312.02734375 C-232.29031738 311.59341309 -232.82672852 311.15948242 -233.37939453 310.71240234 C-272.33755702 279.08805157 -291.69556843 233.44713497 -297.17260742 184.26367188 C-302.90926521 127.81655829 -295.23398537 67.09375542 -259.75390625 21.02734375 C-259.0475 20.09664063 -258.34109375 19.1659375 -257.61328125 18.20703125 C-230.96684915 -15.64380656 -192.25326587 -36.18819247 -149.87890625 -42.22265625 C-95.85614521 -48.46057855 -41.25953364 -36.91704929 0 0 Z M-190.75390625 33.02734375 C-191.46933594 33.58035156 -192.18476563 34.13335937 -192.921875 34.703125 C-211.19573179 49.51307857 -219.31040226 75.2394939 -223.30859375 97.57421875 C-223.92082346 103.69651587 -223.75390625 109.87451129 -223.75390625 116.02734375 C-154.45390625 116.02734375 -85.15390625 116.02734375 -13.75390625 116.02734375 C-15.13994503 101.87276546 -15.13994503 101.87276546 -17.87890625 88.08984375 C-18.08918457 87.27265869 -18.29946289 86.45547363 -18.51611328 85.61352539 C-23.48017923 67.31313668 -31.62178701 51.75533577 -44.75390625 38.02734375 C-45.37910156 37.32738281 -46.00429687 36.62742187 -46.6484375 35.90625 C-62.67842993 18.59385817 -88.03566835 12.30069534 -110.83984375 11.1171875 C-111.80148438 11.08753906 -112.763125 11.05789062 -113.75390625 11.02734375 C-114.67429687 10.98738281 -115.5946875 10.94742188 -116.54296875 10.90625 C-142.60809818 10.2959095 -170.27796678 16.23774363 -190.75390625 33.02734375 Z " fill="#000000" transform="translate(3868.75390625,187.97265625)"/>
<path d="M0 0 C21.29826392 20.75769884 30.72298179 50.64407273 31.16114807 79.84216309 C31.19189084 83.42689521 31.1860142 87.01088596 31.17651367 90.59570312 C31.18227365 92.59048876 31.18936348 94.58527092 31.19766235 96.58004761 C31.21263464 100.833178 31.21856206 105.08618402 31.21713448 109.33934021 C31.21508117 116.07334214 31.23479507 122.80717942 31.25730896 129.5411377 C31.29806773 142.61044654 31.31684526 155.67974175 31.33348083 168.74909973 C31.35591933 185.41335339 31.38947961 202.0775683 31.44067997 218.74175882 C31.46052268 225.42820623 31.47017616 232.11456591 31.47163212 238.8010416 C31.4743918 242.96212191 31.48524114 247.123154 31.49814224 251.28421402 C31.50240295 253.20499853 31.50329482 255.12579411 31.5004673 257.04658127 C30.88470187 273.06115181 30.88470187 273.06115181 35.58837891 287.94921875 C40.65858623 292.43997381 45.95905075 292.20369654 52.40087891 292.13671875 C53.28936523 292.13285156 54.17785156 292.12898438 55.09326172 292.125 C61.49624961 292.04084244 67.54155705 291.38521788 73.77587891 289.88671875 C74.6270062 296.62607191 74.97669973 303.25791157 75.09228516 310.046875 C75.1234568 311.59259438 75.1234568 311.59259438 75.15525818 313.16954041 C75.22012591 316.42937185 75.27934382 319.689277 75.33837891 322.94921875 C75.38162397 325.17253336 75.42524007 327.39584079 75.46923828 329.61914062 C75.57574199 335.04159099 75.67761947 340.46411306 75.77587891 345.88671875 C63.19621073 348.51798499 50.86006599 349.12391957 38.02587891 349.13671875 C37.32066101 349.13772583 36.61544312 349.13873291 35.88885498 349.13977051 C16.13317129 349.12070727 -1.62446917 346.63146699 -16.64208984 332.6328125 C-25.7557845 323.12220651 -29.66682557 312.65571662 -32.46240234 300.0625 C-32.89421106 297.04240177 -32.89421106 297.04240177 -34.22412109 295.88671875 C-35.00722656 297.19382812 -35.00722656 297.19382812 -35.80615234 298.52734375 C-41.13602964 307.22772925 -47.01939776 314.67144677 -54.22412109 321.88671875 C-54.92923828 322.6034375 -55.63435547 323.32015625 -56.36083984 324.05859375 C-84.38053914 350.74402165 -126.15308383 355.82547305 -163.05224609 355.17578125 C-193.9439933 354.20171715 -226.07187776 345.12668239 -249.22412109 323.88671875 C-249.71364258 323.44489258 -250.20316406 323.00306641 -250.70751953 322.54785156 C-268.43236369 306.39655096 -280.23871328 283.69375394 -281.38525391 259.484375 C-281.42305278 256.30223733 -281.45524348 253.1203519 -281.46435547 249.93798828 C-281.47396664 247.91916154 -281.50501125 245.90139724 -281.53662109 243.8828125 C-281.6285988 220.35951512 -274.17592069 197.46023549 -258.22412109 179.88671875 C-257.47517578 179.0565625 -256.72623047 178.22640625 -255.95458984 177.37109375 C-240.82154536 161.43127953 -220.45655977 151.64693457 -199.91162109 144.63671875 C-198.83146729 144.2610376 -197.75131348 143.88535645 -196.63842773 143.49829102 C-165.92894934 133.50846069 -132.95394917 129.03904737 -101.32373047 122.95922852 C-95.37378486 121.81555122 -89.42487079 120.66666025 -83.47650838 119.51478058 C-77.68710767 118.39384297 -71.89690624 117.27708742 -66.10634613 116.16215324 C-63.66444858 115.691556 -61.2227602 115.219872 -58.78128815 114.74707222 C-55.39995887 114.09282904 -52.01774975 113.4433469 -48.63525391 112.79516602 C-47.63392426 112.60044708 -46.6325946 112.40572815 -45.60092163 112.20510864 C-44.68245453 112.03011337 -43.76398743 111.8551181 -42.81768799 111.67481995 C-42.02226215 111.52167611 -41.22683632 111.36853228 -40.40730667 111.21074772 C-38.22412109 110.88671875 -38.22412109 110.88671875 -34.22412109 110.88671875 C-34.29426832 75.49615981 -34.29426832 75.49615981 -47.98974609 43.69140625 C-49.22412109 41.88671875 -49.22412109 41.88671875 -50.22412109 38.88671875 C-52.07067344 37.82244577 -52.07067344 37.82244577 -54.22412109 36.88671875 C-55.56725484 35.9633143 -56.89999584 35.02467987 -58.22412109 34.07421875 C-82.53663618 17.85271924 -117.73650714 17.90994845 -145.41552734 22.84765625 C-157.74482076 25.35996518 -169.10141971 29.23767576 -179.22412109 36.88671875 C-179.87509766 37.345625 -180.52607422 37.80453125 -181.19677734 38.27734375 C-193.240584 47.4888706 -198.89437698 64.47142707 -201.22412109 78.88671875 C-202.06612825 85.86966079 -202.67028415 92.87575954 -203.22412109 99.88671875 C-218.1832065 98.16947135 -233.11404049 96.26856424 -248.03662109 94.26171875 C-248.86020111 94.15171539 -249.68378113 94.04171204 -250.53231812 93.92837524 C-252.89477815 93.61232639 -255.25677687 93.29304109 -257.61865234 92.97265625 C-258.3280899 92.87795547 -259.03752747 92.7832547 -259.76846313 92.6856842 C-262.97357136 92.24687828 -266.10851133 91.76976587 -269.22412109 90.88671875 C-268.38462202 56.50923181 -258.8492141 25.0929739 -233.51708984 0.80859375 C-228.27660113 -3.99218838 -222.39924185 -7.6411028 -216.22412109 -11.11328125 C-215.61616699 -11.45842773 -215.00821289 -11.80357422 -214.38183594 -12.15917969 C-155.93010777 -44.75990789 -50.99934288 -47.59738848 0 0 Z M-43.81541443 162.75747681 C-44.70763702 162.95074554 -45.59985962 163.14401428 -46.51911926 163.34313965 C-47.96915596 163.66562683 -47.96915596 163.66562683 -49.44848633 163.99462891 C-50.47701721 164.21907684 -51.5055481 164.44352478 -52.56524658 164.67477417 C-55.97225595 165.41980931 -59.37751044 166.17254278 -62.78271484 166.92578125 C-65.16660604 167.44979246 -67.55056403 167.97349984 -69.93458557 168.49691772 C-74.94470297 169.5981891 -79.95395694 170.70328848 -84.96264648 171.81103516 C-91.32042313 173.21682029 -97.68024789 174.61306487 -104.04078579 176.00629616 C-108.97597927 177.08850355 -113.90998491 178.17605126 -118.84367561 179.26508713 C-121.18359666 179.78092382 -123.52387146 180.29515897 -125.86453056 180.80763626 C-137.39854716 183.33584321 -148.88893575 185.96039824 -160.29077148 189.03662109 C-161.16754012 189.27146524 -162.04430876 189.50630939 -162.94764614 189.74827003 C-175.04123444 193.08950193 -186.44630775 197.87181971 -196.22412109 205.88671875 C-196.85576172 206.38300781 -197.48740234 206.87929688 -198.13818359 207.390625 C-206.30212954 214.56554666 -211.51245924 226.68379518 -212.44116211 237.38842773 C-213.16601056 253.66700579 -211.50972972 266.6681841 -201.22412109 279.88671875 C-191.23415385 290.78314805 -176.67793374 297.4303463 -162.22412109 299.88671875 C-161.57572266 299.99886719 -160.92732422 300.11101562 -160.25927734 300.2265625 C-129.64037789 304.51673459 -93.51827328 297.85974736 -68.22412109 279.88671875 C-64.68517776 277.0708401 -61.42620662 274.07809496 -58.22412109 270.88671875 C-57.45326172 270.1390625 -56.68240234 269.39140625 -55.88818359 268.62109375 C-39.35515955 251.58022938 -33.82384683 227.55693602 -34.02880859 204.46484375 C-34.03163849 203.2388446 -34.03446838 202.01284546 -34.03738403 200.74969482 C-34.04847503 196.87859857 -34.07355863 193.0077437 -34.09912109 189.13671875 C-34.10916522 186.49349295 -34.11828855 183.85026349 -34.12646484 181.20703125 C-34.14837795 174.76684634 -34.18174329 168.3267998 -34.22412109 161.88671875 C-37.57034885 161.80442953 -40.54865016 162.04025189 -43.81541443 162.75747681 Z " fill="#000000" transform="translate(2629.22412109375,178.11328125)"/>
<path d="M0 0 C24.10876449 22.83281317 31.6749171 57.26787635 32.9921875 89.34375 C33.17440954 97.60601583 33.11879057 105.87227933 33.10571289 114.13598633 C33.10543048 116.64033507 33.10558981 119.1446839 33.1061554 121.64903259 C33.10638221 127.01869646 33.10356849 132.38834522 33.09791756 137.75800514 C33.08975286 145.52140668 33.08718227 153.28480236 33.08592957 161.04820772 C33.08374682 173.64713207 33.07710789 186.24604989 33.06762695 198.8449707 C33.05843267 211.07576465 33.05136172 223.30655681 33.04711914 235.53735352 C33.04672506 236.67027572 33.04672506 236.67027572 33.04632301 237.82608525 C33.04501787 241.61552109 33.04375419 245.40495694 33.04251111 249.1943928 C33.03216271 280.57751764 33.01373751 311.96063035 32.9921875 343.34375 C9.8921875 343.34375 -13.2078125 343.34375 -37.0078125 343.34375 C-37.02968628 332.03440186 -37.02968628 332.03440186 -37.05200195 320.49658203 C-37.10085953 296.31534627 -37.16429612 272.13416956 -37.23679878 247.95299382 C-37.24806564 244.19083084 -37.2592043 240.4286675 -37.27026367 236.66650391 C-37.2735692 235.5431339 -37.2735692 235.5431339 -37.2769415 234.39706956 C-37.31222072 222.30390294 -37.3371376 210.21073637 -37.35815952 198.11753751 C-37.37999657 185.68953334 -37.41312121 173.26159538 -37.45651406 160.83364761 C-37.48289537 153.17781711 -37.50068998 145.52206895 -37.50715854 137.86619531 C-37.51308421 131.97502112 -37.53478785 126.08396785 -37.56208801 120.19285202 C-37.57081823 117.79126534 -37.57460134 115.38965426 -37.57282066 112.98805237 C-37.55975091 87.20694433 -39.57425246 62.22062418 -58.0078125 42.34375 C-80.87186424 22.21110846 -106.73047139 20.2418707 -136.0078125 21.34375 C-157.21582027 22.93262355 -177.6455445 33.08193686 -192.1328125 48.53125 C-218.02279119 79.0574623 -219.09769022 119.50284129 -219.21313477 157.50268555 C-219.22274346 159.54487289 -219.23275513 161.58705837 -219.24313354 163.62924194 C-219.26986528 169.10933489 -219.29104393 174.58943618 -219.31113553 180.06955695 C-219.33319393 185.82037813 -219.36048429 191.57117458 -219.38719177 197.32197571 C-219.43685302 208.18340651 -219.48188896 219.04485123 -219.52521414 229.90630895 C-219.57481547 242.28379769 -219.62964774 254.66126158 -219.68489373 267.03872621 C-219.79830524 292.47371198 -219.90454091 317.9087209 -220.0078125 343.34375 C-242.1178125 343.34375 -264.2278125 343.34375 -287.0078125 343.34375 C-287.0078125 220.91375 -287.0078125 98.48375 -287.0078125 -27.65625 C-264.8978125 -27.65625 -242.7878125 -27.65625 -220.0078125 -27.65625 C-219.6778125 -10.49625 -219.3478125 6.66375 -219.0078125 24.34375 C-216.3678125 19.72375 -213.7278125 15.10375 -211.0078125 10.34375 C-208.0816793 6.4846468 -205.23651622 2.91481219 -202.0078125 -0.65625 C-200.77611328 -2.02910156 -200.77611328 -2.02910156 -199.51953125 -3.4296875 C-150.07060287 -55.73566508 -50.05027376 -44.76958794 0 0 Z " fill="#000000" transform="translate(3503.0078125,180.65625)"/>
<path d="M0 0 C22.11 0 44.22 0 67 0 C67 33.99 67 67.98 67 103 C92.08 103 117.16 103 143 103 C143 121.81 143 140.62 143 160 C117.92 160 92.84 160 67 160 C67.06142867 189.76745258 67.13350811 219.53482033 67.22898628 249.30218022 C67.24025397 252.81929167 67.2513925 256.33640351 67.26245117 259.85351562 C67.26465486 260.55368699 67.26685854 261.25385836 67.269129 261.97524704 C67.30446755 273.30106748 67.32935109 284.62688785 67.35034702 295.95274292 C67.37213655 307.58066377 67.40543805 319.2085097 67.44870156 330.83637059 C67.47262881 337.36481158 67.49136094 343.89317373 67.49761391 350.42165756 C67.50366688 356.56939183 67.52367495 362.7169244 67.55427551 368.86458397 C67.56305223 371.11794954 67.56677908 373.37134147 67.56500816 375.62472343 C67.56335008 378.70869597 67.5801008 381.79205753 67.60127258 384.87594604 C67.59642501 385.76119048 67.59157743 386.64643492 67.58658296 387.55850494 C67.67153505 395.09117968 69.10718278 401.90266272 73.0625 408.375 C83.81535523 417.98393446 100.48082218 416.69770844 114 416 C122.69390945 415.24997567 131.35117919 414.15099928 140 413 C140.61908149 433.33748562 141.18115105 453.65069887 141 474 C108.69288704 482.80766654 66.36735286 481.0462676 36 466 C32.1313048 463.55611693 28.5444189 460.88934478 25 458 C24.16597656 457.3709375 23.33195312 456.741875 22.47265625 456.09375 C7.76105593 443.63653393 2.09152863 423.19551617 0.45948792 404.65730286 C-0.29203355 394.37559132 -0.13102596 384.07144853 -0.11352539 373.76831055 C-0.11324293 371.43144736 -0.1134024 369.09458408 -0.1139679 366.75772095 C-0.11425358 360.44670072 -0.10839383 354.13569969 -0.10139394 347.8246839 C-0.0957587 341.88748866 -0.09476896 335.95029411 -0.09374207 330.01309655 C-0.09155995 318.26271507 -0.08492276 306.51234058 -0.07543945 294.76196289 C-0.06624352 283.35571324 -0.05917338 271.9494655 -0.05493164 260.54321289 C-0.05466892 259.83871034 -0.05440619 259.1342078 -0.05413551 258.40835669 C-0.05283036 254.87365006 -0.05156668 251.33894342 -0.05032361 247.80423677 C-0.03997719 218.53615259 -0.02155307 189.2680784 0 160 C-17.49 160 -34.98 160 -53 160 C-53 141.19 -53 122.38 -53 103 C-35.51 103 -18.02 103 0 103 C0 69.01 0 35.02 0 0 Z " fill="#000000" transform="translate(3983,50)"/>
<path d="M0 0 C22.11 0 44.22 0 67 0 C67 33.99 67 67.98 67 103 C91.75 103 116.5 103 142 103 C142 121.81 142 140.62 142 160 C117.25 160 92.5 160 67 160 C67.06142823 189.89484642 67.13350722 219.78960837 67.22898628 249.68436249 C67.24025398 253.21649522 67.2513925 256.74862834 67.26245117 260.28076172 C67.26465486 260.9839237 67.26685854 261.68708568 67.269129 262.4115556 C67.30446791 273.78587504 67.32935125 285.16019441 67.35034702 296.53454833 C67.37213625 308.21218953 67.40543749 319.88975613 67.44870156 331.56733763 C67.47262921 338.12372425 67.49136108 344.68003236 67.49761391 351.23646164 C67.5036667 357.41046035 67.52367412 363.5842582 67.55427551 369.75818253 C67.56305252 372.0212235 67.56677902 374.28429072 67.56500816 376.54734802 C67.56335019 379.64445679 67.58009992 382.74095708 67.60127258 385.83798218 C67.59642501 386.72711756 67.59157743 387.61625294 67.58658296 388.53233182 C67.66894531 395.86571426 68.68590543 403.06047447 73.3125 408.9375 C90.17476573 421.87830859 117.57755911 415.803937 136.93066406 413.27539062 C137.95498535 413.13907227 137.95498535 413.13907227 139 413 C140.29370334 416.88111003 140.23467031 420.61450108 140.31640625 424.6640625 C140.33718735 425.52953705 140.35796844 426.3950116 140.37937927 427.28671265 C140.42266366 429.12761518 140.46370309 430.96857165 140.50268555 432.80957031 C140.56124431 435.56589559 140.6266386 438.32198658 140.69335938 441.078125 C140.94910071 452.05384519 141.0569068 463.02150428 141 474 C107.84198923 481.98575023 63.45020756 482.18667131 33.125 464.3046875 C30.65870101 462.62790496 28.32262769 460.86963293 26 459 C25.29359375 458.45601563 24.5871875 457.91203125 23.859375 457.3515625 C8.45256285 444.82617705 2.52216735 424.82639734 0.39679337 405.77662659 C-0.50128357 396.2398684 -0.25916428 386.62856241 -0.22705078 377.06054688 C-0.22648558 374.68383285 -0.22680534 372.30711848 -0.22793579 369.93040466 C-0.22850606 363.52450051 -0.21680477 357.11867233 -0.20278788 350.71278572 C-0.19150134 344.68247827 -0.18953649 338.65217337 -0.18748413 332.62185758 C-0.18312388 320.69011093 -0.16986049 308.75839186 -0.15087891 296.82666016 C-0.13247661 285.24690894 -0.11834149 273.66716526 -0.10986328 262.08740234 C-0.10907511 261.01390881 -0.10907511 261.01390881 -0.10827102 259.91872853 C-0.10566065 256.32789756 -0.1031333 252.73706653 -0.10064721 249.14623547 C-0.0799668 219.43080158 -0.04312543 189.71541193 0 160 C-17.49 160 -34.98 160 -53 160 C-53 141.19 -53 122.38 -53 103 C-35.51 103 -18.02 103 0 103 C0 69.01 0 35.02 0 0 Z " fill="#000000" transform="translate(3032,50)"/>
<path d="M0 0 C0.20108049 43.06525355 0.20108049 43.06525355 -1 64 C-2.66047363 64.02187378 -2.66047363 64.02187378 -4.35449219 64.04418945 C-32.87439133 63.98807775 -32.87439133 63.98807775 -61 68 C-61.7307373 68.17015625 -62.46147461 68.3403125 -63.21435547 68.515625 C-86.38293466 74.14565509 -106.14762228 86.62502939 -118.75 107.25 C-125.16305151 118.2651636 -129.0848213 129.50009934 -132.1875 141.8125 C-132.42557373 142.72821777 -132.66364746 143.64393555 -132.90893555 144.58740234 C-139.08423109 170.58295069 -138.47539814 197.29318442 -138.50611091 223.82013178 C-138.51561421 229.32803646 -138.5418252 234.83586375 -138.56611633 240.34371948 C-138.60946099 250.73034113 -138.63820322 261.11694748 -138.66143972 271.50363147 C-138.68866514 283.34685983 -138.73256448 295.19000907 -138.77772844 307.03318048 C-138.87011487 331.3554219 -138.93980441 355.67765614 -139 380 C-161.44 380 -183.88 380 -207 380 C-207 257.57 -207 135.14 -207 9 C-184.56 9 -162.12 9 -139 9 C-138.67 28.14 -138.34 47.28 -138 67 C-135.69 62.71 -133.38 58.42 -131 54 C-108.2176358 22.86410226 -74.03468051 7.54158101 -36.6875 1.75 C-24.45725063 0.2157912 -12.31151392 -0.05835865 0 0 Z " fill="#000000" transform="translate(2943,144)"/>
<path d="M0 0 C25.4615625 -0.061875 25.4615625 -0.061875 51.4375 -0.125 C56.76447021 -0.14320801 62.09144043 -0.16141602 67.57983398 -0.18017578 C74.16809082 -0.18920898 74.16809082 -0.18920898 77.26844788 -0.19088745 C79.39854268 -0.19392543 81.52863441 -0.20088915 83.65870667 -0.21115112 C109.58465202 -0.32962968 133.98427782 0.54090642 154.16015625 19.06640625 C165.91273342 31.41784086 171.54394144 47.64487003 171.42163086 64.49926758 C170.8432532 81.60817518 163.8236672 96.90618316 151.48535156 108.65869141 C141.92335543 117.29340652 130.5714149 121.73380566 118 124 C120.99975277 128.95611327 124.67057707 133.03177366 128.578125 137.296875 C130.95362985 139.94824493 133.20426373 142.66575286 135.4375 145.4375 C138.51336588 149.24087503 141.68753166 152.90082652 145 156.5 C149.11378909 160.9698512 152.97087297 165.59044893 156.78515625 170.31640625 C158.95632827 172.94708557 161.20241357 175.47942424 163.5 178 C177 192.83333333 177 192.83333333 177 195 C169.47510416 195.25451777 161.95132524 195.42906483 154.4230957 195.54931641 C151.86505664 195.59946452 149.30730222 195.66760358 146.75024414 195.75439453 C143.06325019 195.87636164 139.38005616 195.93254987 135.69140625 195.9765625 C134.55667374 196.02817535 133.42194122 196.07978821 132.25282288 196.13296509 C127.30298529 196.1364254 124.22744104 195.99478841 120.2979126 192.81007385 C118.02162291 190.29943173 115.98401467 187.74480006 114 185 C113.18789063 184.03449219 112.37578125 183.06898438 111.5390625 182.07421875 C110.90742187 181.28660156 110.27578125 180.49898437 109.625 179.6875 C106.29982081 175.58026647 102.92342443 171.52511721 99.5 167.5 C96.14539595 163.55361117 92.82777828 159.58357507 89.5625 155.5625 C86.10725849 151.31607618 82.57302166 147.14703706 79 143 C74.68190352 137.98818987 70.45093474 132.91781816 66.28125 127.78125 C62.86653574 123.61810522 59.36857283 119.52729453 55.87109375 115.43359375 C52.17594936 111.0145027 48.59850689 106.49813361 45 102 C44.67 132.69 44.34 163.38 44 195 C29.48 195 14.96 195 0 195 C0 130.65 0 66.3 0 0 Z M44 38 C44 55.16 44 72.32 44 90 C51.425 90.04125 58.85 90.0825 66.5 90.125 C68.80806641 90.14320801 71.11613281 90.16141602 73.49414062 90.18017578 C99.83080247 90.84265165 99.83080247 90.84265165 122.3359375 78.90625 C126.94960851 73.62110575 127.55456049 67.58157694 127.35546875 60.74609375 C126.54555838 54.48931366 123.58130264 48.34018145 119 44 C112.0068123 39.82070956 106.0869944 37.86929054 97.92456055 37.88647461 C96.12325935 37.88658791 96.12325935 37.88658791 94.28556824 37.88670349 C92.99894791 37.89186478 91.71232758 37.89702606 90.38671875 37.90234375 C89.04865064 37.90421044 87.71058185 37.90563316 86.37251282 37.90663147 C82.8626413 37.91043686 79.35281161 37.92025012 75.84295654 37.93133545 C72.25663835 37.94159223 68.67031314 37.94619312 65.08398438 37.95117188 C58.05595272 37.96134269 51.02803572 37.98091936 44 38 Z " fill="#000000" transform="translate(515,187)"/>
<path d="M0 0 C11.38601292 9.0046246 18.51942784 20.41517058 20.75 34.8125 C20.75 38.1125 20.75 41.4125 20.75 44.8125 C7.22 44.8125 -6.31 44.8125 -20.25 44.8125 C-22.23 40.8525 -24.21 36.8925 -26.25 32.8125 C-34.54684836 24.79690074 -44.153689 23.34423964 -55.3984375 23.45874023 C-65.20896949 23.7881809 -74.38648484 26.64501514 -81.25 33.9375 C-82.88524581 38.63883171 -83.17082011 42.91291242 -82.25 47.8125 C-78.76388665 54.84401434 -72.35516493 57.6118382 -65.29162598 60.14709473 C-56.57533737 62.98790126 -47.51162454 64.83202095 -38.59667969 66.93481445 C-16.80458584 72.10260118 6.44228027 77.71511425 20.0625 97.1875 C29.00590024 111.75536158 32.02044041 126.58307204 28.625 143.5 C24.48730616 159.28453575 13.56790872 171.46434824 -0.33203125 179.62109375 C-26.27152655 193.40608268 -57.25901876 195.34309593 -85.4609375 187.74609375 C-103.03568227 182.2562508 -119.24516458 172.41359324 -128.25 155.8125 C-132.41096018 146.77581347 -132.56703366 139.05699506 -133.25 128.8125 C-119.06 128.8125 -104.87 128.8125 -90.25 128.8125 C-88.93 132.4425 -87.61 136.0725 -86.25 139.8125 C-81.05599833 147.30152567 -74.48175354 151.33053295 -65.59228516 153.41772461 C-51.11757628 155.85733314 -33.03396836 155.51096905 -20.625 146.9375 C-16.19799336 143.19302972 -12.63775944 138.72737897 -12.046875 132.76171875 C-11.92131412 126.70340618 -12.65747316 122.78393461 -16.7734375 118.06640625 C-25.6365681 109.37156294 -38.39919611 107.06268223 -50.13562012 104.41696167 C-103.48715532 92.31884422 -103.48715532 92.31884422 -116.41601562 73.07714844 C-121.88479804 63.84420409 -124.6434306 54.74649542 -124.5625 44.0625 C-124.55686035 43.27609131 -124.5512207 42.48968262 -124.54541016 41.67944336 C-124.24046478 26.9228047 -119.21291623 14.88669952 -108.54516602 4.59667969 C-101.53043226 -1.85973136 -94.29918631 -5.37663701 -85.375 -8.4375 C-84.65626709 -8.68411377 -83.93753418 -8.93072754 -83.19702148 -9.18481445 C-57.1684251 -17.57654771 -22.79608953 -16.10470007 0 0 Z " fill="#000000" transform="translate(1242.25,195.1875)"/>
<path d="M0 0 C0.83272934 0.00222061 1.66545868 0.00444122 2.52342224 0.00672913 C3.46432205 0.00680466 4.40522186 0.00688019 5.37463379 0.00695801 C6.39754013 0.01211929 7.42044647 0.01728058 8.47434998 0.02259827 C9.51614914 0.02401321 10.5579483 0.02542816 11.63131714 0.02688599 C14.97355467 0.03250372 18.31572629 0.04505922 21.65794373 0.05775452 C23.91770839 0.06276723 26.17747409 0.06733053 28.4372406 0.07142639 C33.98999763 0.08247891 39.54271597 0.09923428 45.09544373 0.12025452 C45.5161615 1.16213928 45.93687927 2.20402405 46.37034607 3.27748108 C56.78994185 29.07515357 67.28101701 54.84274166 77.82933044 80.58802795 C80.0877475 86.10066123 82.34390646 91.61421657 84.59934998 97.12806702 C84.97080643 98.03616119 85.34226288 98.94425537 85.72497559 99.87986755 C87.22007728 103.53506526 88.71508747 107.19030039 90.21009827 110.84553528 C94.04674489 120.22578128 97.88410436 129.60573143 101.72612 138.98377991 C103.33759656 142.91744873 104.94847396 146.8513628 106.55931091 150.78529358 C107.31585024 152.6324203 108.07267211 154.47943133 108.82981873 156.3263092 C112.78948091 165.98515908 116.72784877 175.65227483 120.61888123 185.33900452 C120.96818695 186.2055365 121.31749268 187.07206848 121.67738342 187.96485901 C121.99500641 188.757995 122.31262939 189.55113098 122.63987732 190.36830139 C123.06265457 191.42156616 123.06265457 191.42156616 123.49397278 192.49610901 C124.09544373 194.12025452 124.09544373 194.12025452 124.09544373 195.12025452 C108.58544373 195.12025452 93.07544373 195.12025452 77.09544373 195.12025452 C67.10400537 170.14165863 67.10400537 170.14165863 63.36497498 160.53163147 C62.83976351 159.18444407 62.31232178 157.83812456 61.78294373 156.49256897 C60.99684519 154.49401736 60.21728146 152.49302996 59.43919373 150.49134827 C58.98737732 149.33562317 58.53556091 148.17989807 58.0700531 146.989151 C57.09544373 144.12025452 57.09544373 144.12025452 57.09544373 141.12025452 C33.66544373 141.12025452 10.23544373 141.12025452 -13.90455627 141.12025452 C-14.89455627 144.09025452 -15.88455627 147.06025452 -16.90455627 150.12025452 C-17.48472649 151.73461299 -18.07464662 153.34556961 -18.68214417 154.94984436 C-18.99579422 155.78035309 -19.30944427 156.61086182 -19.63259888 157.46653748 C-19.96082138 158.32937347 -20.28904388 159.19220947 -20.62721252 160.08119202 C-21.14643532 161.44976852 -21.14643532 161.44976852 -21.67614746 162.84599304 C-22.40210376 164.75728379 -23.12905025 166.66819872 -23.85694885 168.57875061 C-24.97130482 171.50641641 -26.0796355 174.43631886 -27.1877594 177.36634827 C-27.89637775 179.22976875 -28.60534955 181.09305487 -29.31471252 182.95619202 C-29.64495926 183.8311734 -29.97520599 184.70615479 -30.31546021 185.60765076 C-30.6259581 186.41924652 -30.93645599 187.23084229 -31.25636292 188.06703186 C-31.52711136 188.77934967 -31.7978598 189.49166748 -32.07681274 190.22557068 C-32.90455627 192.12025452 -32.90455627 192.12025452 -34.90455627 195.12025452 C-36.8914032 195.48101807 -36.8914032 195.48101807 -39.35426331 195.46083069 C-40.27506683 195.4606041 -41.19587036 195.4603775 -42.14457703 195.46014404 C-43.1404483 195.44466019 -44.13631958 195.42917633 -45.16236877 195.41322327 C-46.18055695 195.40897842 -47.19874512 195.40473358 -48.24778748 195.40036011 C-51.508643 195.38353031 -54.76888668 195.34586997 -58.02955627 195.30775452 C-60.23657862 195.29271325 -62.44361062 195.27902388 -64.65065002 195.26673889 C-70.06882851 195.23361282 -75.48664869 195.18337105 -80.90455627 195.12025452 C-80.22549893 190.85961148 -78.79580266 187.05115094 -77.15846252 183.08509827 C-76.87628876 182.39154236 -76.59411499 181.69798645 -76.3033905 180.9834137 C-75.36217949 178.67310783 -74.41463082 176.36545688 -73.46705627 174.05775452 C-72.79325545 172.40760022 -72.11984298 170.75728731 -71.4467926 169.10682678 C-69.64129229 164.68256409 -67.83032018 160.26056071 -66.01820374 155.83900452 C-64.18823227 151.37149115 -62.36306314 146.90201703 -60.53736877 142.43275452 C-57.1474671 134.13672146 -53.75286509 125.84262029 -50.35629272 117.54931641 C-47.70041655 111.06441652 -45.04600904 104.57891767 -42.39283752 98.09291077 C-42.02187454 97.18605026 -41.65091156 96.27918976 -41.26870728 95.34484863 C-39.77588924 91.69537508 -38.28314308 88.04587214 -36.79045105 84.39634705 C-32.95362184 75.01564306 -29.11608255 65.63523382 -25.27388 56.25672913 C-23.66240344 52.3230603 -22.05152604 48.38914623 -20.44068909 44.45521545 C-19.68414976 42.60808873 -18.92732789 40.7610777 -18.17018127 38.91419983 C-17.10953085 36.32694296 -16.04973471 33.73933874 -14.99049377 31.15150452 C-14.65418945 30.33021057 -14.31788513 29.50891663 -13.97138977 28.66273499 C-12.17316981 24.26094733 -10.39525717 19.85182627 -8.63990784 15.43275452 C-8.27176971 14.50652283 -7.90363159 13.58029114 -7.52433777 12.62599182 C-6.81728372 10.84351202 -6.11257753 9.06009866 -5.4105072 7.27565002 C-4.93890671 6.08594604 -4.93890671 6.08594604 -4.45777893 4.87220764 C-4.18116425 4.17003113 -3.90454956 3.46785461 -3.61955261 2.74440002 C-2.64227746 0.52447671 -2.46968703 0.15593712 0 0 Z M21.09544373 47.12025452 C16.62622446 57.55075255 12.54479431 68.13103007 8.45506287 78.7144928 C7.2717028 81.77432032 6.08306062 84.83206393 4.89427185 87.88978577 C4.1419969 89.83367167 3.39003217 91.77767766 2.63841248 93.72181702 C2.2822435 94.63629608 1.92607452 95.55077515 1.55911255 96.4929657 C1.23489822 97.33499542 0.9106839 98.17702515 0.5766449 99.04457092 C0.28972275 99.78559052 0.0028006 100.52661011 -0.29281616 101.29008484 C-1.01022723 103.11477805 -1.01022723 103.11477805 -0.90455627 105.12025452 C13.61544373 105.12025452 28.13544373 105.12025452 43.09544373 105.12025452 C42.39185046 101.60228819 41.71562558 98.82550337 40.46897888 95.54872131 C40.1383847 94.67398666 39.80779053 93.79925201 39.46717834 92.89801025 C39.10989655 91.96459305 38.75261475 91.03117584 38.38450623 90.06947327 C38.01570343 89.09669937 37.64690063 88.12392548 37.266922 87.12167358 C36.08841668 84.01563141 34.90453795 80.91166981 33.72044373 77.80775452 C32.93102013 75.73041774 32.14195375 73.65294519 31.35325623 71.57533264 C29.89797104 67.74269042 28.44038954 63.91093715 26.98069763 60.07997131 C25.33800453 55.7653409 23.71238101 51.44459967 22.09544373 47.12025452 C21.76544373 47.12025452 21.43544373 47.12025452 21.09544373 47.12025452 Z " fill="#000000" transform="translate(316.90455627441406,186.87974548339844)"/>
<path d="M0 0 C12.90939893 -1.03755147 25.82499698 -1.65444458 38.77734375 -1.359375 C39.86097198 -1.36713959 40.94460022 -1.37490417 42.06106567 -1.38290405 C48.31729391 -1.14713108 51.66672696 -0.03562027 56.20239258 4.39160156 C59.22158135 7.89009636 61.3975512 10.97419617 62.671875 15.46875 C65.07531921 22.66609104 68.82929175 28.53540811 72.9375 34.875 C74.28320197 37.05498834 75.62305108 39.23860045 76.95703125 41.42578125 C80.98682902 47.98775741 85.0476414 54.52998506 89.125 61.0625 C89.72820068 62.03106934 90.33140137 62.99963867 90.95288086 63.99755859 C94.53776398 69.73276883 98.21250154 75.39647116 102 81 C102.4218457 80.31188232 102.84369141 79.62376465 103.27832031 78.91479492 C110.61612674 66.95154269 117.96002316 54.99437245 125.47827148 43.14331055 C130.2436617 35.62974164 134.95538795 28.08299325 139.66235352 20.53271484 C142.72289635 15.6273529 145.79407298 10.72894841 148.88671875 5.84375 C149.45994873 4.93818359 150.03317871 4.03261719 150.6237793 3.09960938 C152 1 152 1 153 0 C154.59610982 -0.09333705 156.19633428 -0.11745372 157.79516602 -0.11352539 C158.81614883 -0.11344986 159.83713165 -0.11337433 160.88905334 -0.11329651 C161.9994548 -0.10813522 163.10985626 -0.10297394 164.25390625 -0.09765625 C165.94978127 -0.09553383 165.94978127 -0.09553383 167.67991638 -0.09336853 C171.30747065 -0.08775019 174.93496424 -0.07519458 178.5625 -0.0625 C181.01497307 -0.05748736 183.4674471 -0.05292405 185.91992188 -0.04882812 C191.94663545 -0.0377748 197.97331339 -0.02101884 204 0 C202.37885121 4.25422197 200.25720906 7.82474137 197.6875 11.5625 C196.77752435 12.90679362 195.86872969 14.2518872 194.9609375 15.59765625 C194.47850586 16.31195801 193.99607422 17.02625977 193.49902344 17.76220703 C190.89594369 21.64817267 188.35559807 25.57462322 185.8125 29.5 C184.70449948 31.20838029 183.59642482 32.9167125 182.48828125 34.625 C181.92061035 35.50027344 181.35293945 36.37554687 180.76806641 37.27734375 C177.68620744 42.02311717 174.59264464 46.76125111 171.5 51.5 C166.29783679 59.47288778 161.10421342 67.45124724 155.91845703 75.43481445 C151.16875467 82.74511866 146.40616394 90.04698917 141.63867188 97.34570312 C140.4374963 99.18588792 139.25917195 101.04112112 138.09985352 102.90795898 C136.51188158 105.24625273 135.01597148 107.1264193 133.13256836 109.18774414 C121.43201484 122.93804778 123.5210751 140.5310727 123.78112793 157.54376221 C123.84313931 162.52240731 123.8220138 167.50135736 123.81536102 172.48029327 C123.8143683 179.98894687 123.91674572 187.48968993 124 195 C109.48 195 94.96 195 80 195 C80.13664062 190.11574219 80.27328125 185.23148438 80.4140625 180.19921875 C80.46062431 177.04044433 80.50161746 173.88341905 80.5234375 170.72460938 C80.55832856 165.74648374 80.60995556 160.7740088 80.78515625 155.79858398 C81.5926268 131.99106982 78.38519046 117.14321733 63.06512451 98.56985474 C60.37632549 95.22389527 58.15761598 91.70122723 56 88 C51.53367714 80.70033873 46.76462177 73.60645649 42 66.5 C36.84885269 58.81703878 31.74974236 51.12133815 26.91723633 43.23242188 C21.94003889 35.17742972 16.60786217 27.34805845 11.33007812 19.48828125 C0 2.60778212 0 2.60778212 0 0 Z " fill="#000000" transform="translate(1333,187)"/>
<path d="M0 0 C61.71 0 123.42 0 187 0 C187 13.2 187 26.4 187 40 C163.24 40 139.48 40 115 40 C115 91.15 115 142.3 115 195 C100.48 195 85.96 195 71 195 C71 143.85 71 92.7 71 40 C47.57 40 24.14 40 0 40 C0 26.8 0 13.6 0 0 Z " fill="#000000" transform="translate(756,187)"/>
</svg>
