<svg width="118" height="40" viewBox="0 0 118 40" fill="none" xmlns="http://www.w3.org/2000/svg">
<path fill-rule="evenodd" clip-rule="evenodd" d="M114.586 2.71324H2.74705V37.2868H64.597V31.5898H67.2501V37.2868H114.586V2.71324ZM117.333 40H0.00125208L0 39.9975V0H117.333V40ZM20.7902 12.8851H23.7977H23.7989L29.0288 26.1859H26.0213L24.6679 22.4973H19.9413L18.5678 26.1859H15.5615L20.7902 12.8851ZM22.2927 15.8926L20.7489 20.062H23.8202L22.2927 15.8926ZM49.9109 15.527V12.8851H62.18V15.527H57.4522V26.1859H54.62V15.527H49.9109ZM94.7013 18.557L98.1057 12.8851H101.399L96.1275 21.3028V26.1859H93.2965V21.3028L88.0253 12.8851H91.3182L94.7013 18.557ZM79.2584 18.0033C80.3155 18.2598 81.5131 18.5503 82.3885 19.1818H82.3872C83.33 19.8605 83.916 21.0487 83.916 22.2807C83.916 25.1818 81.1489 26.5015 78.5771 26.5015C77.4603 26.5015 75.3969 26.2773 74.0947 24.7773C73.4086 23.9798 73.2796 23.3375 73.2583 22.282L73.2571 22.2306H75.9666L75.9741 22.2707C76.2333 23.5027 77.0797 24.0774 78.6385 24.0774C79.0842 24.0774 81.3004 23.9935 81.3004 22.3208C81.3004 21.5445 80.6919 20.9923 79.4899 20.6831C79.3447 20.6463 79.197 20.6108 79.0473 20.5748C78.9828 20.5593 78.9179 20.5437 78.8526 20.5278C76.4949 19.9669 73.823 19.3308 73.823 16.3634C73.823 13.5112 76.3835 12.4995 78.5771 12.4995C81.522 12.4995 83.2649 13.9081 83.3551 16.3622V16.4147H80.6881L80.6794 16.3734C80.4164 15.1589 79.3372 14.906 78.4782 14.906C77.7207 14.906 76.4373 15.1952 76.4373 16.2833C76.4373 17.3025 77.6181 17.5967 78.4807 17.8096L78.6122 17.8434C78.7794 17.8867 78.9507 17.9284 79.126 17.971C79.1686 17.9814 79.2114 17.9918 79.2545 18.0024L79.2584 18.0033ZM45.2457 17.1034C45.2457 18.4757 44.6059 19.7878 43.5792 20.5291C42.9043 21.0161 42.3046 21.1826 41.5834 21.3053L45.6113 26.1847H42.1581L36.8681 19.6113V26.1859H34.0158V12.8851H40.0834C41.1138 12.8851 42.1794 12.8851 43.2311 13.5137C44.4732 14.2449 45.2457 15.6209 45.2457 17.1034ZM36.8681 15.3905V19.009H39.838C41.5458 19.009 42.4122 18.4005 42.4122 17.201C42.4122 16.5988 42.1568 16.0529 41.7261 15.7424C41.2729 15.4181 40.7069 15.3905 40.0709 15.3905H36.8681Z" fill="black"/>
</svg>
