<svg width="18" height="18" viewBox="0 0 18 18" fill="none" xmlns="http://www.w3.org/2000/svg">
<path fill-rule="evenodd" clip-rule="evenodd" d="M11.0001 5V6C11.0001 6.27614 11.2239 6.5 11.5001 6.5C11.7762 6.5 12.0001 6.27614 12.0001 6V5H14.9479L15.9002 15L2.09976 15L3.05214 5H6.00006V6C6.00006 6.27614 6.22392 6.5 6.50006 6.5C6.7762 6.5 7.00006 6.27614 7.00006 6V5H11.0001ZM12.0001 4H15.8571L16.8957 14.9052C16.9516 15.4923 16.49 16 15.9002 16H2.09976C1.51002 16 1.04835 15.4923 1.10426 14.9052L2.14285 4L6.00006 4C6.00006 2.34315 7.34321 1 9.00006 1C10.6569 1 12.0001 2.34315 12.0001 4ZM7.00006 4C7.00006 2.89543 7.89549 2 9.00006 2C10.1046 2 11.0001 2.89543 11.0001 4L7.00006 4Z" fill="black"/>
</svg>
