<svg width="18" height="18" viewBox="0 0 18 18" fill="none" xmlns="http://www.w3.org/2000/svg">
<path d="M14.5909 12.229C13.5477 10.7754 12.9712 9.03891 12.9379 7.25V5.938C12.9379 4.89357 12.523 3.89193 11.7845 3.15341C11.046 2.41489 10.0444 1.99999 8.99993 1.99999C7.95551 1.99999 6.95387 2.41489 6.21535 3.15341C5.47683 3.89193 5.06193 4.89357 5.06193 5.938V7.25C5.02871 9.03891 4.4522 10.7754 3.40893 12.229C3.35808 12.2939 3.3262 12.3716 3.31685 12.4535C3.30749 12.5354 3.32102 12.6183 3.35593 12.693C3.42993 12.843 3.58293 12.938 3.74993 12.938H6.69893C6.63286 13.1505 6.5975 13.3714 6.59393 13.594C6.59393 14.2321 6.84742 14.8441 7.29863 15.2953C7.74985 15.7465 8.36182 16 8.99993 16C9.63804 16 10.25 15.7465 10.7012 15.2953C11.1524 14.8441 11.4059 14.2321 11.4059 13.594C11.4024 13.3714 11.367 13.1505 11.3009 12.938H14.2499C14.4169 12.938 14.5699 12.843 14.6439 12.693C14.6788 12.6183 14.6924 12.5354 14.683 12.4535C14.6737 12.3716 14.6418 12.2939 14.5909 12.229ZM10.5309 13.594C10.5309 14 10.3696 14.3895 10.0825 14.6766C9.7954 14.9637 9.40598 15.125 8.99993 15.125C8.59389 15.125 8.20447 14.9637 7.91735 14.6766C7.63023 14.3895 7.46893 14 7.46893 13.594C7.47093 13.366 7.52493 13.142 7.62593 12.938H10.3739C10.4749 13.142 10.5289 13.366 10.5309 13.594Z" fill="black"/>
</svg>
