<svg width="18" height="18" viewBox="0 0 18 18" fill="none" xmlns="http://www.w3.org/2000/svg">
<path d="M9 16C10.8565 16 12.637 15.2625 13.9497 13.9497C15.2625 12.637 16 10.8565 16 9C16 7.14348 15.2625 5.36301 13.9497 4.05025C12.637 2.7375 10.8565 2 9 2C7.14348 2 5.36301 2.7375 4.05025 4.05025C2.7375 5.36301 2 7.14348 2 9C2 10.8565 2.7375 12.637 4.05025 13.9497C5.36301 15.2625 7.14348 16 9 16ZM9 17C6.87827 17 4.84344 16.1571 3.34315 14.6569C1.84285 13.1566 1 11.1217 1 9C1 6.87827 1.84285 4.84344 3.34315 3.34315C4.84344 1.84285 6.87827 1 9 1C11.1217 1 13.1566 1.84285 14.6569 3.34315C16.1571 4.84344 17 6.87827 17 9C17 11.1217 16.1571 13.1566 14.6569 14.6569C13.1566 16.1571 11.1217 17 9 17ZM6.879 8.842L9 10.964L11.121 8.842L9 6.721L6.879 8.842ZM9 5.307L12.536 8.842L9 12.378L5.464 8.842L9 5.307Z" fill="black"/>
</svg>
