<svg width="18" height="18" viewBox="0 0 18 18" fill="none" xmlns="http://www.w3.org/2000/svg">
<path d="M14.6553 3C15.3971 3 16 3.64483 16 4.44069V13.5582C16 14.3552 15.3971 15 14.6543 15L12.8617 14.9989V14.0381H14.6543C14.9022 14.0381 15.1032 13.8239 15.1032 13.5582V4.44069C15.1032 4.17611 14.9022 3.96081 14.6543 3.96081H3.34471C3.09776 3.96081 2.89681 4.17504 2.89681 4.44069V13.5582C2.89681 13.8239 3.09676 14.0392 3.34471 14.0392L5.13633 14.0381V14.9989H3.34471C2.98825 14.9989 2.64636 14.8473 2.39421 14.5773C2.14206 14.3074 2.00027 13.9412 2 13.5593V4.44069C2 3.64483 2.60187 3 3.34471 3H14.6553Z" fill="black"/>
<path d="M8.65546 5.23347C8.79045 4.92218 9.22067 4.92218 9.35566 5.23347L10.1984 7.17878C10.2577 7.30828 10.3672 7.39497 10.5021 7.41218L12.6682 7.70515C12.9883 7.74858 13.1144 8.14673 12.8781 8.37995L11.2853 9.96198L11.2258 10.0352C11.1759 10.1167 11.1569 10.2192 11.176 10.3165L11.5969 12.5294C11.664 12.8664 11.3099 13.1162 11.0236 12.9434L9.19453 11.8116C9.07669 11.7341 8.9168 11.734 8.79902 11.8116L6.96992 12.9434C6.68328 13.1162 6.3296 12.8661 6.39667 12.5294L6.81855 10.3165C6.8439 10.1868 6.80104 10.0572 6.7082 9.96198L5.11542 8.37995C4.88815 8.14663 5.01488 7.74835 5.33515 7.70515L7.50117 7.41999C7.6023 7.40707 7.69422 7.35099 7.75507 7.27253L7.80488 7.18659L8.65546 5.23347ZM8.63007 7.54694L8.6291 7.54597C8.45823 7.94244 8.08089 8.25404 7.61542 8.31354L7.61445 8.31257L6.47578 8.46198L7.34296 9.32331L7.35273 9.33308C7.63744 9.62504 7.78485 10.0473 7.70136 10.4835L7.70234 10.4844L7.49726 11.5577L8.32539 11.046C8.73374 10.7886 9.25975 10.7897 9.66816 11.0469L9.66914 11.046L10.4953 11.5577L10.2912 10.4844C10.2141 10.0807 10.3331 9.63379 10.6516 9.32331L11.5217 8.45808L10.3811 8.30378C9.90823 8.2409 9.55363 7.9323 9.38007 7.5528L9.37617 7.54499L9.37226 7.5362L9.0041 6.68659L8.63007 7.54694Z" fill="black"/>
</svg>
