<svg width="18" height="18" viewBox="0 0 18 18" fill="none" xmlns="http://www.w3.org/2000/svg">
<path fill-rule="evenodd" clip-rule="evenodd" d="M7.15034 4.97361C7.11469 5.04491 7.08356 5.11663 7.05639 5.1875H10.9436C10.9164 5.11663 10.8853 5.04491 10.8497 4.97361C10.7153 4.7048 10.5215 4.4512 10.2402 4.26368C9.96209 4.07825 9.56876 3.9375 9 3.9375C8.43124 3.9375 8.03792 4.07825 7.75977 4.26368C7.4785 4.4512 7.28474 4.7048 7.15034 4.97361ZM11.7441 4.52639C11.8587 4.75552 11.9383 4.9825 11.9938 5.1875H15.125C15.6083 5.1875 16 5.57925 16 6.0625V14.375C16 14.8582 15.6083 15.25 15.125 15.25H2.875C2.39175 15.25 2 14.8582 2 14.375V6.0625C2 5.57925 2.39175 5.1875 2.875 5.1875H6.0062C6.06171 4.9825 6.14135 4.75552 6.25591 4.52639C6.44963 4.13895 6.74806 3.7363 7.20507 3.43163C7.66521 3.12487 8.25626 2.9375 9 2.9375C9.74374 2.9375 10.3348 3.12487 10.7949 3.43163C11.2519 3.7363 11.5504 4.13895 11.7441 4.52639ZM3 14.25V10.5H8.5V11H9.5V10.5H15V14.25H3ZM9.5 9.49998H15V6.1875H3V9.49998H8.5V9H9.5V9.49998Z" fill="black"/>
</svg>
