<svg width="20" height="20" viewBox="0 0 20 20" fill="none" xmlns="http://www.w3.org/2000/svg">
<path fill-rule="evenodd" clip-rule="evenodd" d="M7.94477 5.52623C7.90515 5.60545 7.87057 5.68514 7.84038 5.76389H12.1595C12.1293 5.68514 12.0947 5.60545 12.0551 5.52623C11.9058 5.22755 11.6905 4.94577 11.378 4.73742C11.0689 4.53139 10.6319 4.375 9.99995 4.375C9.36799 4.375 8.93096 4.53139 8.62191 4.73742C8.30939 4.94577 8.09411 5.22755 7.94477 5.52623ZM13.0489 5.02932C13.1762 5.28391 13.2647 5.53611 13.3264 5.76389H16.8055C17.3424 5.76389 17.7777 6.19916 17.7777 6.73611V15.9722C17.7777 16.5092 17.3424 16.9444 16.8055 16.9444H3.19439C2.65745 16.9444 2.22217 16.5092 2.22217 15.9722V6.73611C2.22217 6.19916 2.65745 5.76389 3.19439 5.76389H6.6735C6.73518 5.53611 6.82367 5.28391 6.95096 5.02932C7.1662 4.59883 7.49779 4.15144 8.00558 3.81292C8.51685 3.47208 9.17357 3.26389 9.99995 3.26389C10.8263 3.26389 11.483 3.47208 11.9943 3.81292C12.5021 4.15144 12.8337 4.59883 13.0489 5.02932ZM3.33328 15.8333V11.6666H9.44439V12.2222H10.5555V11.6666H16.6666V15.8333H3.33328ZM10.5555 10.5555H16.6666V6.875H3.33328V10.5555H9.44439V10H10.5555V10.5555Z" fill="black"/>
</svg>
