<svg width="18" height="18" viewBox="0 0 18 18" fill="none" xmlns="http://www.w3.org/2000/svg">
<g clip-path="url(#clip0_6762_1229)">
<path d="M16.2 3H1.2C0.537258 3 0 3.53726 0 4.2V13.2C0 13.8627 0.537258 14.4 1.2 14.4H16.2C16.8627 14.4 17.4 13.8627 17.4 13.2V4.2C17.4 3.53726 16.8627 3 16.2 3Z" fill="#EFEFEF" stroke="#E7E7E7" stroke-width="0.666667"/>
<path d="M13.8002 5.69995H3.6002C3.10314 5.69995 2.7002 6.10289 2.7002 6.59995C2.7002 7.09701 3.10314 7.49995 3.6002 7.49995H13.8002C14.2973 7.49995 14.7002 7.09701 14.7002 6.59995C14.7002 6.10289 14.2973 5.69995 13.8002 5.69995Z" fill="#D4D4D4"/>
<path d="M6.0002 8.69992H3.6002C3.10314 8.69992 2.7002 9.10286 2.7002 9.59992C2.7002 10.097 3.10314 10.4999 3.6002 10.4999H6.0002C6.49725 10.4999 6.9002 10.097 6.9002 9.59992C6.9002 9.10286 6.49725 8.69992 6.0002 8.69992Z" fill="#D4D4D4"/>
</g>
<defs>
<clipPath id="clip0_6762_1229">
<rect width="18" height="18" fill="white"/>
</clipPath>
</defs>
</svg>
