<svg width="18" height="18" viewBox="0 0 18 18" fill="none" xmlns="http://www.w3.org/2000/svg">
<rect width="16" height="12" rx="1" transform="matrix(1 0 0 -1 1 15)" fill="url(#paint0_linear_59_247)"/>
<path d="M6.89035 11.9385L7.19855 11.8693C7.4322 11.8057 7.66063 11.7148 7.88386 11.5965L8.20495 11.3889C8.34062 11.2864 8.46514 11.1719 8.57846 11.0454C8.76376 10.8345 8.91347 10.6014 9.0276 10.346C9.15561 10.0467 9.23667 9.73426 9.27082 9.40851L9.28165 9.29888C9.28172 9.29824 9.28174 9.29763 9.28174 9.29699C9.28174 9.28654 9.27318 9.27792 9.26274 9.27788L9.09533 9.27702L8.6687 9.27737H6.96805L6.11119 9.27702C6.10705 9.27702 6.10363 9.2736 6.10363 9.26945L6.10328 8.73093C6.10328 8.72424 6.1088 8.71871 6.11549 8.71871L6.67154 8.71923L7.45329 8.7206L8.536 8.72009L8.88889 8.72043L9.26532 8.72215C9.26539 8.72215 9.26546 8.72215 9.26553 8.72215C9.27402 8.72215 9.281 8.71517 9.281 8.70666C9.281 8.70632 9.28098 8.70597 9.28096 8.70563C9.26297 8.44713 9.21616 8.19585 9.14053 7.9518C8.98228 7.44065 8.69959 7.01572 8.29244 6.67701C8.17848 6.59319 8.06314 6.50473 7.94471 6.43761C7.83311 6.3745 7.71748 6.31719 7.59784 6.26568C7.42343 6.19752 7.24312 6.1409 7.05691 6.09581C6.8699 6.05772 6.68151 6.02994 6.49175 6.01251C6.26314 5.99598 6.03757 5.99581 5.81503 6.01199C5.60417 6.02817 5.40117 6.05765 5.20603 6.10045L4.80313 6.22024L4.53636 6.33349C4.38051 6.40921 4.23744 6.4947 4.10715 6.58992C4.05696 6.62676 3.99589 6.67507 3.92392 6.73484C3.78791 6.85829 3.66363 6.99162 3.5511 7.13481C3.28204 7.50954 3.11187 7.92697 3.04059 8.38706C3.02696 8.4754 3.0152 8.55963 3.00536 8.63971C3.00111 8.71911 2.99757 8.79404 2.9947 8.86448C2.95173 9.93809 3.35412 10.9638 4.30259 11.5387C4.50966 11.6631 4.72961 11.761 4.96247 11.8326C5.29168 11.9335 5.62934 11.9884 5.9754 11.9973C6.03573 11.997 6.09847 12.0039 6.15485 12.0025C6.42609 11.9951 6.63184 11.9827 6.89035 11.9385Z" fill="white"/>
<path d="M10.0491 11.8352L10.4101 11.8337L11.2826 11.834L11.4777 11.8352L12.0173 11.8345L12.6563 11.8349L13.0015 11.834L13.4687 11.8339C13.6801 11.8373 13.8593 11.8254 14.0063 11.7982C14.0321 11.7935 14.0853 11.7809 14.1658 11.7604C14.3146 11.7108 14.4477 11.6344 14.5653 11.5311C14.8209 11.3041 14.9639 11.0175 14.9945 10.6716C14.9997 10.6139 14.9995 10.5297 14.994 10.419C14.9884 10.3832 14.9821 10.347 14.9753 10.3104C14.9065 9.9439 14.7183 9.66233 14.4106 9.46566C14.3054 9.39832 14.1849 9.3507 14.0491 9.32282C13.8746 9.29299 13.7243 9.27802 13.5981 9.2779C13.2526 9.27743 12.9072 9.27726 12.562 9.27738L11.7113 9.27703H11.2082L10.1985 9.27617L9.8018 9.27772C9.79354 9.27772 9.78942 9.28185 9.78942 9.29012L9.7889 11.2776L9.79011 11.7672L9.7889 11.8252C9.7889 11.8253 9.7889 11.8254 9.7889 11.8254C9.78882 11.8309 9.79332 11.8355 9.79889 11.8356C9.79894 11.8356 9.79899 11.8356 9.79904 11.8356L10.0491 11.8352Z" fill="white"/>
<path d="M10.0575 8.72199L11.0247 8.71976L11.5273 8.71872L12.5111 8.71958C12.922 8.71867 13.333 8.71781 13.7442 8.717C13.7874 8.717 13.8558 8.70983 13.9494 8.69549C14.3661 8.64523 14.7083 8.37675 14.8824 7.99846C14.9775 7.78389 15.0149 7.56342 14.9947 7.33705C14.9541 6.88154 14.7351 6.54008 14.3375 6.31267C14.0758 6.18755 13.8018 6.17103 13.5125 6.17086C13.3546 6.17074 13.1966 6.17081 13.0386 6.17103L12.411 6.17086L11.9356 6.17069L10.896 6.16879L10.7674 6.17051L9.98535 6.17069L9.80864 6.16862C9.7973 6.16965 9.79163 6.17332 9.79163 6.17964C9.79175 6.72888 9.7914 7.27859 9.7906 7.82876L9.79025 8.6991C9.79025 8.71459 9.79794 8.72229 9.81329 8.72217L10.0575 8.72199Z" fill="white"/>
<defs>
<linearGradient id="paint0_linear_59_247" x1="0.258596" y1="0.683577" x2="16.0774" y2="9.51759" gradientUnits="userSpaceOnUse">
<stop stop-color="#061C65"/>
<stop offset="0.11" stop-color="#061C65"/>
<stop offset="0.22" stop-color="#071F69"/>
<stop offset="0.33" stop-color="#255CA6"/>
<stop offset="0.46" stop-color="#BCB4BF"/>
<stop offset="0.485577" stop-color="#BCB4BF"/>
<stop offset="0.55" stop-color="#B999A2"/>
<stop offset="0.66" stop-color="#B56066"/>
<stop offset="0.77" stop-color="#B0191B"/>
<stop offset="0.885" stop-color="#AF0707"/>
<stop offset="1" stop-color="#AF0707"/>
</linearGradient>
</defs>
</svg>
