<svg width="18" height="18" viewBox="0 0 18 18" fill="none" xmlns="http://www.w3.org/2000/svg">
<path d="M9.001 4.45002C9.70182 4.4501 10.3884 4.64762 10.9822 5.01995C11.5759 5.39227 12.0527 5.92433 12.358 6.55516C12.6633 7.18598 12.7847 7.89006 12.7083 8.5867C12.6319 9.28334 12.3608 9.94436 11.926 10.494V15.841L9 14.281L6.076 15.841V10.494C5.64118 9.94429 5.37004 9.28318 5.29367 8.58645C5.21729 7.88972 5.33878 7.18557 5.64419 6.55471C5.9496 5.92384 6.42658 5.39179 7.02046 5.01955C7.61435 4.6473 8.3001 4.44991 9.001 4.45002ZM11.028 14.346V11.31C10.4247 11.7019 9.72044 11.91 9.001 11.909C8.254 11.909 7.557 11.689 6.974 11.31V14.346L9.001 13.263L11.028 14.346ZM14.658 2.00002C15.4 2.00002 16.003 2.60202 16.003 3.34502V11.857C16.003 12.601 15.4 13.203 14.657 13.203L12.864 13.202V12.305H14.657C14.905 12.305 15.106 12.105 15.106 11.857V3.34502C15.106 3.09802 14.905 2.89702 14.657 2.89702H3.345C3.098 2.89702 2.897 3.09702 2.897 3.34502V11.857C2.897 12.105 3.097 12.306 3.345 12.306L5.137 12.305V13.202H3.345C2.98846 13.202 2.6465 13.0604 2.39429 12.8084C2.14209 12.5564 2.00027 12.2146 2 11.858V3.34502C2 2.60202 2.602 2.00002 3.345 2.00002H14.657H14.658ZM9 5.34702C8.62355 5.33994 8.24947 5.40798 7.89962 5.54715C7.54977 5.68632 7.23117 5.89383 6.96245 6.15755C6.69372 6.42128 6.48026 6.73592 6.33455 7.08309C6.18883 7.43026 6.11378 7.803 6.11378 8.17952C6.11378 8.55603 6.18883 8.92877 6.33455 9.27594C6.48026 9.62311 6.69372 9.93776 6.96245 10.2015C7.23117 10.4652 7.54977 10.6727 7.89962 10.8119C8.24947 10.9511 8.62355 11.0191 9 11.012C9.74201 10.9981 10.4489 10.6935 10.9687 10.1638C11.4886 9.63416 11.7798 8.92166 11.7798 8.17952C11.7798 7.43738 11.4886 6.72487 10.9687 6.19519C10.4489 5.66551 9.74201 5.36096 9 5.34702Z" fill="black"/>
</svg>
