<svg width="18" height="18" viewBox="0 0 18 18" fill="none" xmlns="http://www.w3.org/2000/svg">
<path d="M9.001 4.45C9.70182 4.45009 10.3884 4.64761 10.9822 5.01993C11.5759 5.39225 12.0527 5.92431 12.358 6.55514C12.6633 7.18597 12.7847 7.89004 12.7083 8.58668C12.6319 9.28332 12.3608 9.94435 11.926 10.494V15.841L9 14.281L6.076 15.841V10.494C5.64118 9.94428 5.37004 9.28316 5.29367 8.58644C5.21729 7.88971 5.33878 7.18555 5.64419 6.55469C5.9496 5.92383 6.42658 5.39178 7.02046 5.01953C7.61435 4.64728 8.3001 4.4499 9.001 4.45ZM11.028 14.346V11.31C10.4247 11.7019 9.72044 11.91 9.001 11.909C8.254 11.909 7.557 11.689 6.974 11.31V14.346L9.001 13.263L11.028 14.346ZM14.658 2C15.4 2 16.003 2.602 16.003 3.345V11.857C16.003 12.601 15.4 13.203 14.657 13.203L12.864 13.202V12.305H14.657C14.905 12.305 15.106 12.105 15.106 11.857V3.345C15.106 3.098 14.905 2.897 14.657 2.897H3.345C3.098 2.897 2.897 3.097 2.897 3.345V11.857C2.897 12.105 3.097 12.306 3.345 12.306L5.137 12.305V13.202H3.345C2.98846 13.202 2.6465 13.0604 2.39429 12.8084C2.14209 12.5564 2.00027 12.2145 2 11.858V3.345C2 2.602 2.602 2 3.345 2H14.657H14.658ZM9 5.347C8.62355 5.33993 8.24947 5.40796 7.89962 5.54713C7.54977 5.6863 7.23117 5.89381 6.96245 6.15754C6.69372 6.42126 6.48026 6.7359 6.33455 7.08308C6.18883 7.43025 6.11378 7.80299 6.11378 8.1795C6.11378 8.55601 6.18883 8.92875 6.33455 9.27592C6.48026 9.6231 6.69372 9.93774 6.96245 10.2015C7.23117 10.4652 7.54977 10.6727 7.89962 10.8119C8.24947 10.951 8.62355 11.0191 9 11.012C9.74201 10.9981 10.4489 10.6935 10.9687 10.1638C11.4886 9.63415 11.7798 8.92164 11.7798 8.1795C11.7798 7.43736 11.4886 6.72485 10.9687 6.19517C10.4489 5.66549 9.74201 5.36094 9 5.347Z" fill="black"/>
</svg>
