<svg width="18" height="18" viewBox="0 0 18 18" fill="none" xmlns="http://www.w3.org/2000/svg">
<path fill-rule="evenodd" clip-rule="evenodd" d="M7.08398 12.6367C7.31359 12.6371 7.49965 12.8174 7.5 13.04V16.5967C7.4996 16.8193 7.31356 16.9997 7.08398 17H3.41602C3.18644 16.9997 3.0004 16.8193 3 16.5967V13.04C3.00035 12.8174 3.18641 12.6371 3.41602 12.6367H7.08398ZM3.83398 16.1914H6.66699V13.4443H3.83398V16.1914Z" fill="black"/>
<path d="M15 15.5H9V14.5H15V15.5Z" fill="black"/>
<path fill-rule="evenodd" clip-rule="evenodd" d="M7.08398 6.81836C7.31359 6.8187 7.49965 6.99903 7.5 7.22168V10.7783C7.49965 11.001 7.31359 11.1813 7.08398 11.1816H3.41602C3.18641 11.1813 3.00035 11.001 3 10.7783V7.22168C3.00035 6.99903 3.18641 6.8187 3.41602 6.81836H7.08398ZM3.83398 10.374H6.66699V7.62598H3.83398V10.374Z" fill="black"/>
<path d="M15 9.5H9V8.5H15V9.5Z" fill="black"/>
<path fill-rule="evenodd" clip-rule="evenodd" d="M7.08398 1C7.31356 1.00034 7.4996 1.18072 7.5 1.40332V4.95996C7.49965 5.18261 7.31359 5.36294 7.08398 5.36328H3.41602C3.18641 5.36294 3.00035 5.18261 3 4.95996V1.40332C3.0004 1.18072 3.18644 1.00034 3.41602 1H7.08398ZM3.83398 4.55566H6.66699V1.80859H3.83398V4.55566Z" fill="black"/>
<path d="M15 3.5H9V2.5H15V3.5Z" fill="black"/>
</svg>
