<svg width="18" height="18" viewBox="0 0 18 18" fill="none" xmlns="http://www.w3.org/2000/svg">
<path fill-rule="evenodd" clip-rule="evenodd" d="M9 1C4.58172 1 1 4.58172 1 9C1 13.4183 4.58172 17 9 17C13.4183 17 17 13.4183 17 9C17 6.87827 16.1571 4.84344 14.6569 3.34315C13.1566 1.84285 11.1217 1 9 1ZM9 1.88889C12.9274 1.88889 16.1111 5.07264 16.1111 9C16.1111 12.9274 12.9274 16.1111 9 16.1111C5.07264 16.1111 1.88889 12.9274 1.88889 9C1.88889 5.07264 5.07264 1.88889 9 1.88889ZM12.5556 6.83111L13.3022 7.62222L9 12.1022L4.69778 7.65778L5.48889 6.87556L9 10.4311L12.5556 6.83111Z" fill="black"/>
</svg>
