<svg width="18" height="18" viewBox="0 0 18 18" fill="none" xmlns="http://www.w3.org/2000/svg">
<path fill-rule="evenodd" clip-rule="evenodd" d="M9 1C4.58172 1 1 4.58172 1 9C1 13.4183 4.58172 17 9 17C13.4183 17 17 13.4183 17 9C17 6.87827 16.1571 4.84344 14.6569 3.34315C13.1566 1.84285 11.1217 1 9 1ZM9 16.1111C5.07264 16.1111 1.88889 12.9274 1.88889 9C1.88889 5.07264 5.07264 1.88889 9 1.88889C12.9274 1.88889 16.1111 5.07264 16.1111 9C16.1111 10.886 15.3619 12.6947 14.0283 14.0283C12.6947 15.3619 10.886 16.1111 9 16.1111ZM9.78222 9L12.5022 6.28L11.72 5.49778L9 8.21778L6.28 5.49778L5.49778 6.28L8.21778 9L5.49778 11.72L6.28 12.5022L9 9.78222L11.72 12.5022L12.5022 11.72L9.78222 9Z" fill="black"/>
</svg>
