<svg width="18" height="18" viewBox="0 0 18 18" fill="black" xmlns="http://www.w3.org/2000/svg">
  <g fill="black">
    <path d="M5 2H15V16H5V14H4V16.5C4 16.6326 4.05268 16.7598 4.14644 16.8536C4.24021 16.9473 4.36739 17 4.5 17H15.5C15.6326 17 15.7598 16.9473 15.8536 16.8536C15.9473 16.7598 16 16.6326 16 16.5V1.5C16 1.36739 15.9473 1.24021 15.8536 1.14644C15.7598 1.05268 15.6326 1 15.5 1H4.5C4.36739 1 4.24021 1.05268 4.14644 1.14644C4.05268 1.24021 4 1.36739 4 1.5V8H5V2Z"/>
    <path fill-rule="evenodd" clip-rule="evenodd" d="M2.35714 8C2.1599 8 2 8.14927 2 8.33335V13.6667C2 13.8509 2.1599 14.0001 2.35714 14.0001H11.6429C11.8401 14.0001 12 13.8509 12 13.6667V8.33335C12 8.14927 11.8401 8 11.6429 8H2.35714ZM5.52379 11.5087H4.99613C4.94456 11.9107 4.70652 12.1705 4.32566 12.1705C3.85353 12.1705 3.54408 11.724 3.54408 11.05C3.54408 10.3802 3.8575 9.92128 4.32962 9.92128C4.69461 9.92128 4.94853 10.173 4.9882 10.5628H5.50396C5.46032 9.92946 4.99613 9.51129 4.33358 9.51129C3.55598 9.51129 3.02832 10.173 3.02832 11.0703C3.02832 12.0285 3.54408 12.5806 4.32566 12.5806C5.03184 12.5806 5.44841 12.1178 5.52379 11.5087ZM5.99805 11.5331H6.51777C6.51777 11.935 6.74788 12.1705 7.13668 12.1705C7.47787 12.1705 7.69211 12.0041 7.69211 11.7483C7.69211 11.4438 7.38266 11.3423 7.03353 11.2367L7.00392 11.2278C6.55477 11.0922 6.04962 10.9397 6.04962 10.3557C6.04962 9.85227 6.47016 9.51129 7.10891 9.51129C7.74765 9.51129 8.14041 9.87664 8.15236 10.4734H7.64054C7.64054 10.1283 7.39456 9.91727 7.0851 9.91727C6.81532 9.91727 6.57728 10.0634 6.57728 10.311C6.57728 10.5912 6.83913 10.7009 7.33505 10.8429C7.79526 10.9769 8.22373 11.1636 8.22373 11.6833C8.22373 12.2233 7.78733 12.5806 7.13668 12.5806C6.43446 12.5806 5.99805 12.1909 5.99805 11.5331ZM8.52148 9.57378L9.47367 12.5213H10.0807L11.0328 9.57378H10.4972L10.0172 11.2303L10.0144 11.24C9.91322 11.5984 9.86991 11.752 9.81481 11.9813H9.78706C9.76914 11.9155 9.75248 11.854 9.73652 11.7945C9.68535 11.6046 9.64023 11.4374 9.5768 11.2303L9.07689 9.57378H8.52148Z"/>
  </g>
</svg>
