<svg width="18" height="18" viewBox="0 0 18 18" fill="none" xmlns="http://www.w3.org/2000/svg">
<rect width="18" height="18" fill="white"/>
<path d="M5 2H15V16H5V14H4V16.5C4 16.6326 4.05268 16.7598 4.14645 16.8536C4.24021 16.9473 4.36739 17 4.5 17H15.5C15.6326 17 15.7598 16.9473 15.8536 16.8536C15.9473 16.7598 16 16.6326 16 16.5V1.5C16 1.36739 15.9473 1.24021 15.8536 1.14645C15.7598 1.05268 15.6326 1 15.5 1H4.5C4.36739 1 4.24021 1.05268 4.14645 1.14645C4.05268 1.24021 4 1.36739 4 1.5V8H5V2Z" fill="black"/>
<path fill-rule="evenodd" clip-rule="evenodd" d="M2.35714 8C2.1599 8 2 8.14924 2 8.33333V13.6667C2 13.8508 2.1599 14 2.35714 14H11.6429C11.8401 14 12 13.8508 12 13.6667V8.33333C12 8.14924 11.8401 8 11.6429 8H2.35714ZM5.52379 11.5087H4.99613C4.94456 11.9107 4.70652 12.1705 4.32565 12.1705C3.85353 12.1705 3.54408 11.7239 3.54408 11.05C3.54408 10.3801 3.8575 9.92129 4.32962 9.92129C4.69461 9.92129 4.94853 10.173 4.9882 10.5628H5.50396C5.46032 9.92941 4.99613 9.51123 4.33358 9.51123C3.55598 9.51123 3.02832 10.173 3.02832 11.0703C3.02832 12.0284 3.54408 12.5806 4.32565 12.5806C5.03184 12.5806 5.44841 12.1177 5.52379 11.5087ZM5.99805 11.5331H6.51777C6.51777 11.935 6.74788 12.1705 7.13668 12.1705C7.47787 12.1705 7.69211 12.0041 7.69211 11.7483C7.69211 11.4438 7.38266 11.3423 7.03353 11.2367L7.00392 11.2278C6.55477 11.0922 6.04962 10.9397 6.04962 10.3557C6.04962 9.85227 6.47016 9.51123 7.10891 9.51123C7.74765 9.51123 8.14042 9.87663 8.15233 10.4734H7.64054C7.64054 10.1283 7.39456 9.91723 7.0851 9.91723C6.81532 9.91723 6.57728 10.0634 6.57728 10.311C6.57728 10.5912 6.83913 10.7008 7.33505 10.8429C7.79526 10.9769 8.22374 11.1636 8.22374 11.6833C8.22374 12.2233 7.78733 12.5806 7.13668 12.5806C6.43446 12.5806 5.99805 12.1908 5.99805 11.5331ZM8.52148 9.57373L9.47365 12.5213H10.0807L11.0328 9.57373H10.4972L10.0172 11.2302L10.0144 11.24C9.91324 11.5984 9.86989 11.752 9.81484 11.9813H9.78707C9.76911 11.9155 9.7525 11.8539 9.73649 11.7945C9.68531 11.6045 9.64026 11.4374 9.5768 11.2302L9.07692 9.57373H8.52148Z" fill="black"/>
</svg>
