<svg width="24" height="29" viewBox="0 0 24 29" fill="none" xmlns="http://www.w3.org/2000/svg">
<path d="M21.9238 2.25H4.42383V26.75H21.9238V2.25ZM23.6738 1.375V27.625C23.6738 27.8571 23.5816 28.0796 23.4176 28.2437C23.2535 28.4078 23.0309 28.5 22.7988 28.5H3.54883C3.31676 28.5 3.0942 28.4078 2.93011 28.2437C2.76602 28.0796 2.67383 27.8571 2.67383 27.625V1.375C2.67383 1.14294 2.76602 0.920376 2.93011 0.756282C3.0942 0.592187 3.31676 0.5 3.54883 0.5H22.7988C23.0309 0.5 23.2535 0.592187 23.4176 0.756282C23.5816 0.920376 23.6738 1.14294 23.6738 1.375Z" fill="black"/>
<path d="M0 11.9234C0 11.528 0.320523 11.2075 0.715909 11.2075H19.3295C19.7249 11.2075 20.0455 11.528 20.0455 11.9234V23.378C20.0455 23.7734 19.7249 24.0939 19.3295 24.0939H0.715909C0.320523 24.0939 0 23.7734 0 23.378V11.9234Z" fill="black"/>
<path d="M5.92806 18.8134H6.95699C6.81 20.0314 5.99768 20.957 4.62061 20.957C3.09655 20.957 2.09082 19.8527 2.09082 17.9364C2.09082 16.1419 3.11976 14.8184 4.63608 14.8184C5.92806 14.8184 6.83321 15.6547 6.91831 16.9214H5.91258C5.83522 16.1419 5.34009 15.6385 4.62835 15.6385C3.70772 15.6385 3.09655 16.556 3.09655 17.8958C3.09655 19.2437 3.69998 20.1369 4.62061 20.1369C5.3633 20.1369 5.82748 19.6172 5.92806 18.8134Z" fill="white"/>
<path d="M7.88525 18.8621H8.89872C8.89872 19.666 9.34743 20.1369 10.1056 20.1369C10.7709 20.1369 11.1887 19.804 11.1887 19.2924C11.1887 18.6834 10.5852 18.4805 9.90444 18.2693C9.01476 17.9933 7.98583 17.7009 7.98583 16.5073C7.98583 15.5004 8.80588 14.8184 10.0514 14.8184C11.297 14.8184 12.0629 15.5492 12.0861 16.7428H11.0881C11.0881 16.0526 10.6085 15.6304 10.005 15.6304C9.47894 15.6304 9.01476 15.9227 9.01476 16.418C9.01476 16.9783 9.52536 17.1975 10.4924 17.4817C11.3898 17.7497 12.2254 18.1232 12.2254 19.1625C12.2254 20.2425 11.3744 20.957 10.1056 20.957C8.73625 20.957 7.88525 20.1775 7.88525 18.8621Z" fill="white"/>
<path d="M15.011 20.8401L13.1543 14.9451H14.2374L15.2122 18.258C15.3746 18.802 15.4752 19.208 15.6222 19.7602H15.6763C15.7847 19.2974 15.8698 18.9888 16.0709 18.258L17.007 14.9451H18.0514L16.1947 20.8401H15.011Z" fill="white"/>
</svg>
