<svg width="229" height="229" viewBox="0 0 229 229" fill="none" xmlns="http://www.w3.org/2000/svg">
<g clip-path="url(#clip0_539_99)">
<path d="M63.6109 25.4449H190.833V203.556H63.6109V178.112H50.8887V209.917C50.8887 211.604 51.5589 213.222 52.7518 214.416C53.9447 215.608 55.5627 216.278 57.2498 216.278H197.194C198.881 216.278 200.499 215.608 201.693 214.416C202.885 213.222 203.555 211.604 203.555 209.917V19.0838C203.555 17.3967 202.885 15.7787 201.693 14.5858C200.499 13.3929 198.881 12.7227 197.194 12.7227H57.2498C55.5627 12.7227 53.9447 13.3929 52.7518 14.5858C51.5589 15.7787 50.8887 17.3967 50.8887 19.0838V101.778H63.6109V25.4449Z" fill="black"/>
<path fill-rule="evenodd" clip-rule="evenodd" d="M29.9889 101.777C27.4796 101.777 25.4453 103.676 25.4453 106.018V173.87C25.4453 176.213 27.4796 178.111 29.9889 178.111H148.124C150.633 178.111 152.668 176.213 152.668 173.87V106.018C152.668 103.676 150.633 101.777 148.124 101.777H29.9889ZM70.2757 146.416H63.5627C62.9067 151.53 59.8783 154.835 55.0328 154.835C49.0263 154.835 45.0894 149.154 45.0894 140.58C45.0894 132.058 49.0768 126.22 55.0833 126.22C59.7267 126.22 62.9572 129.423 63.4619 134.382H70.0235C69.4683 126.324 63.5627 121.004 55.1336 121.004C45.2408 121.004 38.5278 129.423 38.5278 140.838C38.5278 153.028 45.0894 160.053 55.0328 160.053C64.0171 160.053 69.3167 154.164 70.2757 146.416ZM76.3094 146.726H82.9214C82.9214 151.839 85.8489 154.835 90.7953 154.835C95.136 154.835 97.8616 152.718 97.8616 149.464C97.8616 145.59 93.9247 144.299 89.483 142.955L89.1063 142.842C83.3921 141.117 76.9655 139.177 76.9655 131.747C76.9655 125.342 82.3157 121.004 90.442 121.004C98.5682 121.004 103.565 125.652 103.717 133.244H97.2055C97.2055 128.854 94.0761 126.169 90.1391 126.169C86.7069 126.169 83.6785 128.028 83.6785 131.178C83.6785 134.743 87.0098 136.138 93.319 137.945C99.1739 139.65 104.625 142.025 104.625 148.637C104.625 155.507 99.073 160.053 90.7953 160.053C81.8615 160.053 76.3094 155.094 76.3094 146.726ZM108.413 121.799L120.527 159.298H128.25L140.363 121.799H133.549L127.442 142.873L127.406 142.997C126.119 147.557 125.568 149.511 124.867 152.428H124.514C124.286 151.591 124.074 150.808 123.871 150.052C123.22 147.635 122.646 145.509 121.839 142.873L115.479 121.799H108.413Z" fill="black"/>
</g>
<defs>
<clipPath id="clip0_539_99">
<rect width="229" height="229" fill="white"/>
</clipPath>
</defs>
</svg>
