<svg width="18" height="20" viewBox="0 0 18 20" fill="none" xmlns="http://www.w3.org/2000/svg">
<path fill-rule="evenodd" clip-rule="evenodd" d="M12.386 2.31799H13.386V3.31799V5.31799H12.386V4.0251L10.4211 5.99006C10.6332 6.51238 10.75 7.08355 10.75 7.68201C10.75 8.74451 10.3818 9.72101 9.76596 10.4908L10.5931 11.318L10.9467 10.9644L11.3002 10.6109L11.6538 10.9644L15.8964 15.2071L16.25 15.5606L15.8964 15.9142L14.4822 17.3284L14.1287 17.682L13.7751 17.3284L9.53246 13.0858L9.17891 12.7322L9.53246 12.3787L9.88601 12.0251L9.05885 11.198C8.28901 11.8138 7.31251 12.182 6.25 12.182C3.76472 12.182 1.75 10.1673 1.75 7.68201C1.75 5.19673 3.76472 3.18201 6.25 3.18201C7.76451 3.18201 9.10427 3.93019 9.91984 5.0771L11.6789 3.31799L10.386 3.31799V2.31799H12.386ZM9.19969 5.79724L7.38605 7.61089L5.7396 5.96444C5.64583 5.87067 5.51866 5.81799 5.38605 5.81799C5.25344 5.81799 5.12626 5.87067 5.03249 5.96444L3.53249 7.46444L4.2396 8.17155L5.38605 7.0251L7.03249 8.67155C7.22776 8.86681 7.54434 8.86681 7.7396 8.67155L9.63235 6.7788C9.70909 7.06694 9.75 7.3697 9.75 7.68201C9.75 8.64042 9.36478 9.50885 8.74073 10.1409L8.70892 10.1727C8.07684 10.7968 7.20841 11.182 6.25 11.182C4.317 11.182 2.75 9.615 2.75 7.68201C2.75 5.74901 4.317 4.18201 6.25 4.18201C7.48905 4.18201 8.57772 4.82586 9.19969 5.79724ZM14.1287 16.2677L10.5931 12.7322L11.3002 12.0251L14.8358 15.5606L14.1287 16.2677Z" fill="black"/>
</svg>
