<svg width="18" height="18" viewBox="0 0 18 18" fill="none" xmlns="http://www.w3.org/2000/svg">
<rect x="1" y="3" width="16" height="12" rx="1" fill="#084D95"/>
<path d="M9.85849 13C12.0237 13.0104 14 11.2171 14 9.03438C14 6.64831 12.0237 4.99877 9.85849 5H7.99424C5.80372 4.99877 4 6.64862 4 9.03438C4 11.2171 5.80372 13.0104 7.99424 13H9.85849Z" fill="white"/>
<path d="M8.00295 5.33015C6.00124 5.33108 4.37805 6.96982 4.37744 8.99303C4.37805 11.0153 6.00124 12.6537 8.00295 12.6547C10.0062 12.6537 11.6285 11.0153 11.6291 8.99303C11.6285 6.96982 10.0062 5.33108 8.00295 5.33015ZM5.7052 8.99303C5.70703 8.0041 6.31867 7.16143 7.18022 6.82634V11.1588C6.31867 10.8237 5.70703 9.98134 5.7052 8.99303ZM8.82601 11.1594V6.82634C9.68817 7.1605 10.3004 8.00349 10.3016 8.99303C10.3004 9.98195 9.68817 10.8246 8.82601 11.1594Z" fill="#084D95"/>
</svg>
