<?xml version="1.0" encoding="utf-8"?>
<!-- Generator: Adobe Illustrator 27.5.0, SVG Export Plug-In . SVG Version: 6.00 Build 0)  -->
<svg version="1.1" id="Layer_1" xmlns="http://www.w3.org/2000/svg" xmlns:xlink="http://www.w3.org/1999/xlink" x="0px" y="0px"
	 viewBox="0 0 18 18" style="enable-background:new 0 0 18 18;" xml:space="preserve">
<style type="text/css">
	.st0{fill:#BCBEC0;}
	.st1{fill:#FFFFFF;}
	.st2{fill:#E2B929;}
</style>
<g>
	<path class="st0" d="M17,15H1c-0.6,0-1-0.4-1-1V4c0-0.6,0.4-1,1-1h16c0.6,0,1,0.4,1,1v10C18,14.6,17.6,15,17,15z"/>
	<path class="st1" d="M14.1,6H3.9C3.4,6,3,6.4,3,7s0.4,1,0.9,1h10.2C14.6,8,15,7.6,15,7S14.6,6,14.1,6z"/>
	<path class="st2" d="M17,13v-2.5L9.2,14H16C16.6,14,17,13.6,17,13z"/>
</g>
</svg>
