<svg width="18" height="18" viewBox="0 0 18 18" fill="none" xmlns="http://www.w3.org/2000/svg">
<g clip-path="url(#clip0_6762_1241)">
<path d="M16.8 3H1.2C0.537258 3 0 3.53726 0 4.2V13.8C0 14.4627 0.537258 15 1.2 15H16.8C17.4627 15 18 14.4627 18 13.8V4.2C18 3.53726 17.4627 3 16.8 3Z" fill="#EFEFEF"/>
<path fill-rule="evenodd" clip-rule="evenodd" d="M7.2002 15.0001H16.8032C16.9606 15.0003 17.1165 14.9695 17.262 14.9093C17.4074 14.8491 17.5395 14.7608 17.6508 14.6494C17.762 14.538 17.8501 14.4057 17.9101 14.2602C17.97 14.1146 18.0007 13.9587 18.0002 13.8013V10.2001L7.2002 15.0001Z" fill="#FFB44F"/>
<path d="M14.1 6.00006H3.9C3.40294 6.00006 3 6.403 3 6.90006C3 7.39712 3.40294 7.80006 3.9 7.80006H14.1C14.5971 7.80006 15 7.39712 15 6.90006C15 6.403 14.5971 6.00006 14.1 6.00006Z" fill="#D4D4D4"/>
<path d="M16.4998 3.30005H1.4998C0.837063 3.30005 0.299805 3.83731 0.299805 4.50005V13.5001C0.299805 14.1628 0.837063 14.7001 1.4998 14.7001H16.4998C17.1625 14.7001 17.6998 14.1628 17.6998 13.5001V4.50005C17.6998 3.83731 17.1625 3.30005 16.4998 3.30005Z" stroke="#E7E7E7" stroke-width="0.666667"/>
</g>
<defs>
<clipPath id="clip0_6762_1241">
<rect width="18" height="18" fill="white"/>
</clipPath>
</defs>
</svg>
