<svg width="18" height="18" viewBox="0 0 18 18" fill="none" xmlns="http://www.w3.org/2000/svg">
<path fill-rule="evenodd" clip-rule="evenodd" d="M2.12804 3C1.50517 3 1 3.58994 1 4.31746V13.6825C1 14.4102 1.50501 15 2.12804 15H15.872C16.4948 15 17 14.4101 17 13.6825V4.31746C17 3.5898 16.495 3 15.872 3H2.12804Z" fill="#F7F7F7"/>
<path fill-rule="evenodd" clip-rule="evenodd" d="M7.64247 7.51358C7.81743 7.51358 7.96416 7.54906 8.14275 7.63469V8.08713C7.97359 7.93076 7.82686 7.86532 7.63281 7.86532C7.25141 7.86532 6.95146 8.16391 6.95146 8.54246C6.95146 8.94168 7.24212 9.2225 7.65174 9.2225C7.8361 9.2225 7.98012 9.16045 8.14275 9.00659V9.45927C7.95781 9.5416 7.80793 9.57414 7.63281 9.57414C7.01355 9.57414 6.53236 9.12478 6.53236 8.54526C6.53236 7.97201 7.02636 7.51358 7.64247 7.51358ZM5.71976 7.52605C5.94836 7.52605 6.15751 7.60003 6.33239 7.74468L6.1196 8.00814C6.01367 7.89586 5.91349 7.84849 5.79165 7.84849C5.61637 7.84849 5.48873 7.94285 5.48873 8.06703C5.48873 8.1735 5.56038 8.22986 5.8044 8.31525C6.267 8.47522 6.4041 8.61705 6.4041 8.93027C6.4041 9.31195 6.1076 9.57764 5.68502 9.57764C5.37556 9.57764 5.15057 9.46239 4.96319 9.20233L5.22588 8.9631C5.31953 9.13432 5.47578 9.22604 5.66977 9.22604C5.85119 9.22604 5.9855 9.10767 5.9855 8.94794C5.9855 8.86514 5.94481 8.79414 5.86358 8.74395C5.82268 8.72018 5.74166 8.68475 5.58244 8.63165C5.2005 8.50163 5.06945 8.36264 5.06945 8.09103C5.06945 7.76837 5.35087 7.52605 5.71976 7.52605ZM10.367 7.56041H10.8112L11.3672 8.88471L11.9304 7.56041H12.3713L11.4706 9.58261H11.2517L10.367 7.56041ZM2.5 7.56344H3.09693C3.75646 7.56344 4.21623 7.96877 4.21623 8.55063C4.21623 8.84078 4.07558 9.1213 3.83772 9.30746C3.63759 9.46458 3.40955 9.53506 3.0938 9.53506H2.5V7.56344ZM4.40335 7.56344H4.81001V9.53506H4.40335V7.56344ZM12.5551 7.56344H13.7085V7.89753H12.9615V8.33514H13.681V8.66905H12.9615V9.20126H13.7085V9.53506H12.5552L12.5551 7.56344ZM13.9778 7.56344H14.5808C15.0498 7.56344 15.3186 7.77642 15.3186 8.14556C15.3186 8.44744 15.15 8.64551 14.8437 8.70447L15.5 9.53506H14.9999L14.437 8.74301H14.384V9.53506H13.9778V7.56344ZM14.384 7.87399V8.47108H14.5028C14.7625 8.47108 14.9002 8.36445 14.9002 8.16626C14.9002 7.97439 14.7625 7.87399 14.5093 7.87399H14.384ZM2.90639 7.89751V9.20126H3.01552C3.27831 9.20126 3.44428 9.15365 3.57206 9.04455C3.71269 8.92613 3.79729 8.73701 3.79729 8.54779C3.79729 8.35888 3.71269 8.17541 3.57206 8.05696C3.43773 7.94202 3.27831 7.89751 3.01552 7.89751H2.90639Z" fill="black"/>
<path fill-rule="evenodd" clip-rule="evenodd" d="M9.38453 7.5C9.99712 7.5 10.4937 7.96893 10.4937 8.54821C10.4937 9.1275 9.99712 9.59772 9.38455 9.59772C8.77198 9.59772 8.27539 9.12814 8.27539 8.54886C8.27539 7.96956 8.77196 7.5 9.38453 7.5Z" fill="#F47216"/>
<path d="M6 15C12.6476 13.8095 16.4871 11.3448 17 11L17 13.9652C17 14.5366 16.5152 15 15.9174 15H6Z" fill="#F47216"/>
</svg>
