<svg width="18" height="18" viewBox="0 0 18 18" fill="none" xmlns="http://www.w3.org/2000/svg">
<path d="M2.875 5.392V13.625H15.125V5.545L9.002 11L2.875 5.392ZM14.58 4.875H3.588L9.011 9.838L14.581 4.875H14.58ZM2.014 4.605L2 4.592L2.021 4.572C2.0557 4.43059 2.13082 4.30233 2.23719 4.20289C2.34356 4.10345 2.47657 4.03712 2.62 4.012L2.632 4L2.641 4.008C2.67709 4.00271 2.71352 4.00003 2.75 4H15.25C15.4489 4 15.6397 4.07902 15.7803 4.21967C15.921 4.36032 16 4.55109 16 4.75V13.75C16 13.9489 15.921 14.1397 15.7803 14.2803C15.6397 14.421 15.4489 14.5 15.25 14.5H2.75C2.55109 14.5 2.36032 14.421 2.21967 14.2803C2.07902 14.1397 2 13.9489 2 13.75V4.75C2 4.7 2.005 4.652 2.014 4.605Z" fill="black"/>
</svg>
