<svg width="18" height="18" viewBox="0 0 18 18" fill="none" xmlns="http://www.w3.org/2000/svg">
<path d="M2.875 5.39202V13.625H15.125V5.54502L9.002 11L2.875 5.39202ZM14.58 4.87502H3.588L9.011 9.83802L14.581 4.87502H14.58ZM2.014 4.60502L2 4.59202L2.021 4.57202C2.0557 4.4306 2.13082 4.30235 2.23719 4.20291C2.34356 4.10346 2.47657 4.03714 2.62 4.01202L2.632 4.00002L2.641 4.00802C2.67709 4.00272 2.71352 4.00005 2.75 4.00002H15.25C15.4489 4.00002 15.6397 4.07903 15.7803 4.21969C15.921 4.36034 16 4.5511 16 4.75002V13.75C16 13.9489 15.921 14.1397 15.7803 14.2803C15.6397 14.421 15.4489 14.5 15.25 14.5H2.75C2.55109 14.5 2.36032 14.421 2.21967 14.2803C2.07902 14.1397 2 13.9489 2 13.75V4.75002C2 4.70002 2.005 4.65202 2.014 4.60502Z" fill="black"/>
</svg>
