<svg width="18" height="18" viewBox="0 0 18 18" fill="none" xmlns="http://www.w3.org/2000/svg">
<g clip-path="url(#clip0_6762_1332)">
<path d="M9.00011 17.192C6.82745 17.192 4.74379 16.3289 3.20749 14.7926C1.67119 13.2563 0.808105 11.1726 0.808105 8.99998C0.808105 6.82733 1.67119 4.74366 3.20749 3.20736C4.74379 1.67107 6.82745 0.807983 9.00011 0.807983C11.1728 0.807983 13.2564 1.67107 14.7927 3.20736C16.329 4.74366 17.1921 6.82733 17.1921 8.99998C17.1921 11.1726 16.329 13.2563 14.7927 14.7926C13.2564 16.3289 11.1728 17.192 9.00011 17.192ZM9.00011 16.192C9.94457 16.192 10.8798 16.006 11.7524 15.6445C12.6249 15.2831 13.4178 14.7533 14.0856 14.0855C14.7535 13.4177 15.2832 12.6248 15.6446 11.7522C16.0061 10.8797 16.1921 9.94445 16.1921 8.99998C16.1921 8.05552 16.0061 7.1203 15.6446 6.24772C15.2832 5.37515 14.7535 4.58231 14.0856 3.91447C13.4178 3.24663 12.6249 2.71687 11.7524 2.35544C10.8798 1.99401 9.94457 1.80798 9.00011 1.80798C7.09267 1.80798 5.26336 2.56571 3.91459 3.91447C2.56583 5.26323 1.80811 7.09255 1.80811 8.99998C1.80811 10.9074 2.56583 12.7367 3.91459 14.0855C5.26336 15.4343 7.09267 16.192 9.00011 16.192ZM6.95211 7.05998V10.328L9.04811 9.06398L11.0581 10.314V7.05998H6.95211ZM5.95211 12.099V6.05998H12.0581V12.113L9.04011 10.236L5.95211 12.1V12.099Z" fill="black"/>
</g>
<defs>
<clipPath id="clip0_6762_1332">
<rect width="18" height="18" fill="white"/>
</clipPath>
</defs>
</svg>
