<svg width="18" height="18" viewBox="0 0 18 18" fill="none" xmlns="http://www.w3.org/2000/svg">
<path fill-rule="evenodd" clip-rule="evenodd" d="M12.1457 5.49066H14.6768V10.5552C14.3856 10.431 14.0708 10.3157 13.7347 10.2123V6.42035H4.30918V10.2728C3.97145 10.3836 3.65602 10.5048 3.3671 10.637V5.49066H5.90058L9.06663 2L12.1457 5.49066ZM7.16493 5.49066H10.8957L9.05626 3.40554L7.16493 5.49066Z" fill="black"/>
<path d="M12.7919 9.96292C12.4894 9.89526 12.1747 9.83673 11.8498 9.78595V8.27894H6.19413V9.81662C5.86847 9.87162 5.5539 9.93565 5.25206 10.0078V7.34925H12.7919V9.96292Z" fill="black"/>
<path d="M4.75872 15C4.29228 15 3.84494 14.8173 3.51512 14.4921C3.18529 14.1669 3 13.7258 3 13.2659C3 12.806 3.18529 12.3649 3.51512 12.0397C3.84494 11.7145 4.29228 11.5318 4.75872 11.5318C5.22516 11.5318 5.6725 11.7145 6.00232 12.0397C6.33214 12.3649 6.51744 12.806 6.51744 13.2659C6.51744 13.7258 6.33214 14.1669 6.00232 14.4921C5.6725 14.8173 5.22516 15 4.75872 15ZM4.75872 14.1868C5.00644 14.1868 5.24401 14.0898 5.41917 13.9171C5.59434 13.7444 5.69274 13.5101 5.69274 13.2659C5.69274 13.0216 5.59434 12.7874 5.41917 12.6147C5.24401 12.4419 5.00644 12.3449 4.75872 12.3449C4.511 12.3449 4.27343 12.4419 4.09826 12.6147C3.9231 12.7874 3.82469 13.0216 3.82469 13.2659C3.82469 13.5101 3.9231 13.7444 4.09826 13.9171C4.27343 14.0898 4.511 14.1868 4.75872 14.1868ZM9 15C8.53356 15 8.08622 14.8173 7.7564 14.4921C7.42657 14.1669 7.24128 13.7258 7.24128 13.2659C7.24128 12.806 7.42657 12.3649 7.7564 12.0397C8.08622 11.7145 8.53356 11.5318 9 11.5318C9.46644 11.5318 9.91378 11.7145 10.2436 12.0397C10.5734 12.3649 10.7587 12.806 10.7587 13.2659C10.7587 13.7258 10.5734 14.1669 10.2436 14.4921C9.91378 14.8173 9.46644 15 9 15ZM9 14.1868C9.24772 14.1868 9.48529 14.0898 9.66045 13.9171C9.83562 13.7444 9.93402 13.5101 9.93402 13.2659C9.93402 13.0216 9.83562 12.7874 9.66045 12.6147C9.48529 12.4419 9.24772 12.3449 9 12.3449C8.75228 12.3449 8.51471 12.4419 8.33954 12.6147C8.16438 12.7874 8.06598 13.0216 8.06598 13.2659C8.06598 13.5101 8.16438 13.7444 8.33954 13.9171C8.51471 14.0898 8.75228 14.1868 9 14.1868ZM13.2413 15C12.7748 15 12.3275 14.8173 11.9977 14.4921C11.6679 14.1669 11.4826 13.7258 11.4826 13.2659C11.4826 12.806 11.6679 12.3649 11.9977 12.0397C12.3275 11.7145 12.7748 11.5318 13.2413 11.5318C13.7077 11.5318 14.1551 11.7145 14.4849 12.0397C14.8147 12.3649 15 12.806 15 13.2659C15 13.7258 14.8147 14.1669 14.4849 14.4921C14.1551 14.8173 13.7077 15 13.2413 15ZM13.2413 14.1868C13.489 14.1868 13.7266 14.0898 13.9017 13.9171C14.0769 13.7444 14.1753 13.5101 14.1753 13.2659C14.1753 13.0216 14.0769 12.7874 13.9017 12.6147C13.7266 12.4419 13.489 12.3449 13.2413 12.3449C12.9936 12.3449 12.756 12.4419 12.5808 12.6147C12.4057 12.7874 12.3073 13.0216 12.3073 13.2659C12.3073 13.5101 12.4057 13.7444 12.5808 13.9171C12.756 14.0898 12.9936 14.1868 13.2413 14.1868Z" fill="black"/>
</svg>
