<svg width="20" height="18" viewBox="0 0 20 18" fill="none" xmlns="http://www.w3.org/2000/svg">
<path fill-rule="evenodd" clip-rule="evenodd" d="M18.1681 1.54986L17.2289 0.604858L14.7914 3.02286C13.4056 2.26103 11.8659 1.87653 10.1776 1.87653C6.39757 1.87653 3.35607 3.80386 1.11024 7.57803V7.5792C0.91933 7.89899 0.823432 8.26654 0.833763 8.63884C0.844093 9.01114 0.960224 9.37281 1.16857 9.68153C2.17527 11.1794 3.27416 12.3769 4.46267 13.2691L2.18707 15.5265L3.12624 16.4715L5.60214 14.0154C7.01045 14.8089 8.53255 15.2092 10.1647 15.2092C13.6916 15.2092 16.7027 13.3414 19.1632 9.6792C19.5867 9.04803 19.6112 8.23603 19.2251 7.58153C18.2736 5.97076 17.1758 4.69619 15.936 3.76405L18.1681 1.54986ZM13.7917 4.01458C12.6915 3.47731 11.4884 3.21119 10.1787 3.21119C6.9144 3.21119 4.3034 4.86319 2.2909 8.24886H2.28974C2.2261 8.35528 2.19406 8.47762 2.19737 8.60157C2.20067 8.72553 2.23919 8.84598 2.3084 8.94886C3.27496 10.3878 4.31352 11.5068 5.42723 12.3123L7.38089 10.3742C7.02596 9.83443 6.83273 9.19861 6.83273 8.54287C6.83273 7.65886 7.1839 6.81105 7.80899 6.18596C8.43408 5.56087 9.28189 5.2097 10.1659 5.2097C10.8307 5.2097 11.475 5.4083 12.0195 5.77263L13.7917 4.01458ZM12.9564 6.7199L14.9703 4.72207C16.1208 5.55116 17.1437 6.72438 18.0444 8.24886C18.1079 8.35539 18.1397 8.47779 18.1362 8.60174C18.1327 8.7257 18.094 8.84609 18.0246 8.94886C15.7986 12.2599 13.1922 13.878 10.1659 13.878C8.90402 13.878 7.71516 13.5969 6.59653 13.029L8.32061 11.3187C8.86336 11.6795 9.5045 11.876 10.1659 11.876C11.0499 11.876 11.8977 11.5249 12.5228 10.8998C13.1479 10.2747 13.4991 9.42688 13.4991 8.54287C13.4991 7.89051 13.3078 7.25787 12.9564 6.7199ZM11.04 6.74435C10.7701 6.61321 10.4716 6.5432 10.1659 6.5432C9.63555 6.5432 9.12693 6.75388 8.75192 7.12889C8.37691 7.5039 8.16623 8.01252 8.16623 8.54287C8.16623 8.84314 8.23377 9.13645 8.36043 9.40249L11.04 6.74435ZM9.30119 10.3459L11.9758 7.69265C12.0996 7.95619 12.1656 8.24613 12.1656 8.54287C12.1656 9.07321 11.9549 9.58184 11.5799 9.95685C11.2049 10.3319 10.6962 10.5425 10.1659 10.5425C9.86371 10.5425 9.56857 10.4741 9.30119 10.3459Z" fill="#707070"/>
</svg>
