<svg width="20" height="20" viewBox="0 0 20 20" fill="none" xmlns="http://www.w3.org/2000/svg">
<path fill-rule="evenodd" clip-rule="evenodd" d="M16.6668 4.06671V15.9334C16.664 16.127 16.5858 16.3118 16.4489 16.4487C16.312 16.5857 16.1271 16.6638 15.9335 16.6667H12.5335V11.5112H14.2668L14.5335 9.48893H12.5335V8.21115C12.5335 7.62226 12.7002 7.22226 13.5335 7.22226H14.6446V5.42226C14.1278 5.36866 13.6086 5.34269 13.0891 5.34449C12.7361 5.32015 12.382 5.3731 12.0516 5.49962C11.7212 5.62615 11.4223 5.82321 11.1758 6.07708C10.9294 6.33095 10.7412 6.63551 10.6245 6.96954C10.5078 7.30358 10.4654 7.65904 10.5002 8.01115V9.48893H8.72239V11.5112H10.4557V16.6667H4.06683C3.97053 16.6667 3.87517 16.6477 3.7862 16.6109C3.69722 16.574 3.61638 16.52 3.54828 16.4519C3.48019 16.3838 3.42617 16.303 3.38932 16.214C3.35246 16.125 3.3335 16.0297 3.3335 15.9334V4.06671C3.3335 3.9704 3.35246 3.87504 3.38932 3.78607C3.42617 3.6971 3.48019 3.61626 3.54828 3.54816C3.61638 3.48007 3.69722 3.42605 3.7862 3.3892C3.87517 3.35234 3.97053 3.33337 4.06683 3.33337H15.9335C16.0298 3.33337 16.1252 3.35234 16.2141 3.3892C16.3031 3.42605 16.3839 3.48007 16.452 3.54816C16.5201 3.61626 16.5742 3.6971 16.611 3.78607C16.6479 3.87504 16.6668 3.9704 16.6668 4.06671Z" fill="black"/>
</svg>
