<svg width="18" height="18" viewBox="0 0 18 18" fill="none" xmlns="http://www.w3.org/2000/svg">
<path d="M12 4H5.95V5H12V4ZM12 3V2.012H12.997V5.59C12.997 6.948 12.269 8.255 10.633 9.011C12.265 9.78 12.997 11.101 12.997 12.521V14.211C12.999 14.2239 13 14.2369 13 14.25V14.716C13 14.7291 12.999 14.7421 12.997 14.755V15.975H12V14.965H5.95V16H5V12.52C5 11.1 5.731 9.781 7.361 9.013C5.726 8.262 5 6.969 5 5.62V2H5.95V3H12ZM12.002 6H5.957C5.976 6.317 6.042 6.664 6.282 6.995C6.791 7.698 7.668 8.231 8.998 8.497C10.328 8.231 11.204 7.694 11.714 6.982C11.947 6.656 11.995 6.314 12.002 6ZM12 14V12.99H5.95V14H12ZM11.958 11.99C11.778 10.9 10.991 9.927 8.998 9.515C7.005 9.927 6.183 10.9 5.994 11.99H11.958Z" fill="black"/>
</svg>
