<svg width="18" height="18" viewBox="0 0 18 18" fill="none" xmlns="http://www.w3.org/2000/svg">
<path d="M12 4.00002H5.95V5.00002H12V4.00002ZM12 3.00002V2.01202H12.997V5.59002C12.997 6.94802 12.269 8.25502 10.633 9.01102C12.265 9.78002 12.997 11.101 12.997 12.521V14.211C12.999 14.2239 13 14.237 13 14.25V14.716C13 14.7291 12.999 14.7421 12.997 14.755V15.975H12V14.965H5.95V16H5V12.52C5 11.1 5.731 9.78102 7.361 9.01302C5.726 8.26202 5 6.96902 5 5.62002V2.00002H5.95V3.00002H12ZM12.002 6.00002H5.957C5.976 6.31702 6.042 6.66402 6.282 6.99502C6.791 7.69802 7.668 8.23102 8.998 8.49702C10.328 8.23102 11.204 7.69402 11.714 6.98202C11.947 6.65602 11.995 6.31402 12.002 6.00002ZM12 14V12.99H5.95V14H12ZM11.958 11.99C11.778 10.9 10.991 9.92702 8.998 9.51502C7.005 9.92702 6.183 10.9 5.994 11.99H11.958Z" fill="black"/>
</svg>
