<svg width="26" height="26" viewBox="0 0 26 26" fill="none" xmlns="http://www.w3.org/2000/svg">
  <path d="M19.085 6.468H6.915C3.112 6.468 0 9.526 0 13.265s3.112 6.796 6.915
    6.796h12.17c3.803 0 6.915-3.058 6.915-6.796s-3.112-6.797-6.915-6.797" fill="#ffffff"/>
  <path d="M19.085 6.937c.854 0 1.684.166 2.465.493a6.4 6.4 0 0 1 2.023 1.342 6.3
    6.3 0 0 1 1.366 1.988c.331.768.5 1.584.5 2.423 0 .84-.169 1.655-.5 2.423a6.3
    6.3 0 0 1-1.366 1.988 6.4 6.4 0 0 1-2.023 1.343 6.4 6.4 0 0 1-2.465.492H6.915a6.4
    6.4 0 0 1-2.465-.492 6.4 6.4 0 0 1-2.023-1.343 6.3 6.3 0 0 1-1.366-1.988 6.1
    6.1 0 0 1-.5-2.423c0-.84.169-1.655.5-2.423a6.3 6.3 0 0 1 1.366-1.988A6.4 6.4
    0 0 1 4.45 7.43a6.4 6.4 0 0 1 2.465-.493zm0-.55H6.915C3.112 6.386 0 9.444 0
    13.182s3.112 6.797 6.915 6.797h12.17c3.803 0 6.915-3.059
    6.915-6.797s-3.112-6.797-6.915-6.797" fill="#3C4043"/>
  <path d="M12.402 13.75v2.055h-.664v-5.077h1.76q.67 0 1.138.438.477.44.477 1.07
    0 .647-.477 1.078-.463.433-1.138.432h-1.096zm0-2.397v1.77h1.11a.9.9 0 0 0
    .657-.26.85.85 0 0 0 0-1.238.87.87 0 0 0-.657-.268h-1.11zm4.445.864q.736 0
    1.161.387.426.388.426 1.06v2.142H17.8v-.483h-.028q-.41.596-1.096.595-.584.001-.978-.34a1.08
    1.08 0 0 1-.394-.85q0-.54.415-.856.415-.32 1.106-.32.593 0 .971.215v-.15a.74.74
    0 0 0-.273-.578.95.95 0 0 0-.643-.238q-.555-.001-.878.463l-.584-.36q.483-.689
    1.428-.687m-.858 2.521q0 .256.221.425.22.169.516.17.42 0 .747-.306a.95.95 0
    0 0 .328-.717q-.31-.24-.864-.241-.405 0-.675.19-.274.2-.273.48m6.057-2.411-2.213
    5.002h-.684l.823-1.75-1.46-3.252h.723l1.051 2.494h.014l1.024-2.494z"
    fill="#3C4043"/>
  <path d="M9.756 13.335q-.001-.32-.055-.612H6.918v1.121h1.603a1.35 1.35 0 0
    1-.595.904v.727h.954c.557-.506.876-1.255.876-2.14" fill="#4285F4"/>
  <path d="M7.932 14.75a1.8 1.8 0 0 1-1.008.279 1.77 1.77 0 0
    1-1.663-1.202h-.984v.75a2.97 2.97 0 0 0 2.647 1.604c.8 0 1.473-.259 1.962-.704z"
    fill="#34A853"/>
  <path d="M5.167 13.268q.002-.29.093-.557v-.75h-.984a2.86 2.86 0 0 0 0
    2.615l.984-.75a1.7 1.7 0 0 1-.093-.558" fill="#FABB05"/>
  <path d="M6.924 11.51c.437 0 .828.148 1.137.437l.845-.83a2.87 2.87 0 0
    0-1.982-.76c-1.157 0-2.16.653-2.647 1.604l.984.75c.235-.69.89-1.201 1.663-1.201"
    fill="#E94235"/>
</svg>
