<svg width="18" height="18" viewBox="0 0 18 18" fill="none" xmlns="http://www.w3.org/2000/svg">
<path d="M7.90039 9.59959C8.17625 9.5998 8.40023 9.82372 8.40039 10.0996V14.5C8.40034 14.776 8.17633 14.9998 7.90039 15H3.5C3.22389 15 3.00005 14.7761 3 14.5V10.0996C3.00016 9.82359 3.22396 9.59959 3.5 9.59959H7.90039ZM14.5 9.59959C14.776 9.59959 14.9998 9.82359 15 10.0996V14.5C15 14.7761 14.7761 15 14.5 15H10.1006C9.82447 15 9.60063 14.7761 9.60059 14.5V10.0996C9.60075 9.82359 9.82455 9.59959 10.1006 9.59959H14.5ZM4 14H7.40039V10.5996H4V14ZM10.6006 14H14V10.5996H10.6006V14ZM7.90039 2.99998C8.17635 3.0002 8.40039 3.22397 8.40039 3.49998V7.90038C8.40018 8.17621 8.17622 8.40017 7.90039 8.40038H3.5C3.22399 8.40038 3.00021 8.17634 3 7.90038V3.49998C3 3.22384 3.22386 2.99998 3.5 2.99998H7.90039ZM14.5 2.99998C14.7761 2.99998 15 3.22384 15 3.49998V7.90038C14.9998 8.17634 14.776 8.40038 14.5 8.40038H10.1006C9.82457 8.40038 9.6008 8.17634 9.60059 7.90038V3.49998C9.60059 3.22384 9.82444 2.99998 10.1006 2.99998H14.5ZM4 7.40038H7.40039V3.99998H4V7.40038ZM10.6006 7.40038H14V3.99998H10.6006V7.40038Z" fill="black"/>
</svg>
