<svg width="18" height="18" viewBox="0 0 18 18" fill="none" xmlns="http://www.w3.org/2000/svg">
<path d="M11.654 10.226V13.44H10.779V10.226C10.779 9.501 10.191 8.914 9.46598 8.914H8.54198C7.81698 8.914 7.22898 9.501 7.22898 10.226V13.44H6.35398V10.226C6.35398 9.501 5.76698 8.914 5.04198 8.914H4.18898C3.46398 8.914 2.87598 9.501 2.87598 10.226V13.44H2.00098V10.226C2.00098 9.018 2.98098 8.039 4.18898 8.039H5.04198C5.75698 8.039 6.39198 8.382 6.79198 8.913C6.99565 8.6413 7.25987 8.42084 7.56366 8.26912C7.86744 8.11741 8.20241 8.03861 8.54198 8.039H9.46598C10.182 8.039 10.817 8.382 11.216 8.913C11.4197 8.6413 11.6839 8.42084 11.9877 8.26912C12.2914 8.11741 12.6264 8.03861 12.966 8.039H13.846C15.053 8.039 16.033 9.019 16.033 10.226V13.44H15.158V10.226C15.158 9.501 14.57 8.914 13.845 8.914H12.966C12.241 8.914 11.654 9.501 11.654 10.226ZM4.40998 7.01C3.91508 7.01 3.44046 6.8134 3.09052 6.46346C2.74057 6.11352 2.54398 5.63889 2.54398 5.144C2.54398 4.64911 2.74057 4.17448 3.09052 3.82454C3.44046 3.4746 3.91508 3.278 4.40998 3.278C4.90487 3.278 5.3795 3.4746 5.72944 3.82454C6.07938 4.17448 6.27598 4.64911 6.27598 5.144C6.27598 5.63889 6.07938 6.11352 5.72944 6.46346C5.3795 6.8134 4.90487 7.01 4.40998 7.01ZM4.40998 6.135C4.67281 6.135 4.92487 6.03059 5.11072 5.84474C5.29657 5.65889 5.40098 5.40683 5.40098 5.144C5.40098 4.88117 5.29657 4.62911 5.11072 4.44326C4.92487 4.25741 4.67281 4.153 4.40998 4.153C4.14715 4.153 3.89508 4.25741 3.70923 4.44326C3.52339 4.62911 3.41898 4.88117 3.41898 5.144C3.41898 5.40683 3.52339 5.65889 3.70923 5.84474C3.89508 6.03059 4.14715 6.135 4.40998 6.135ZM8.90998 7.01C8.41508 7.01 7.94046 6.8134 7.59052 6.46346C7.24057 6.11352 7.04398 5.63889 7.04398 5.144C7.04398 4.64911 7.24057 4.17448 7.59052 3.82454C7.94046 3.4746 8.41508 3.278 8.90998 3.278C9.40487 3.278 9.8795 3.4746 10.2294 3.82454C10.5794 4.17448 10.776 4.64911 10.776 5.144C10.776 5.63889 10.5794 6.11352 10.2294 6.46346C9.8795 6.8134 9.40487 7.01 8.90998 7.01ZM8.90998 6.135C9.17281 6.135 9.42487 6.03059 9.61072 5.84474C9.79657 5.65889 9.90098 5.40683 9.90098 5.144C9.90098 4.88117 9.79657 4.62911 9.61072 4.44326C9.42487 4.25741 9.17281 4.153 8.90998 4.153C8.64715 4.153 8.39508 4.25741 8.20923 4.44326C8.02339 4.62911 7.91898 4.88117 7.91898 5.144C7.91898 5.40683 8.02339 5.65889 8.20923 5.84474C8.39508 6.03059 8.64715 6.135 8.90998 6.135ZM13.41 7.01C12.9151 7.01 12.4405 6.8134 12.0905 6.46346C11.7406 6.11352 11.544 5.63889 11.544 5.144C11.544 4.64911 11.7406 4.17448 12.0905 3.82454C12.4405 3.4746 12.9151 3.278 13.41 3.278C13.9049 3.278 14.3795 3.4746 14.7294 3.82454C15.0794 4.17448 15.276 4.64911 15.276 5.144C15.276 5.63889 15.0794 6.11352 14.7294 6.46346C14.3795 6.8134 13.9049 7.01 13.41 7.01ZM13.41 6.135C13.6728 6.135 13.9249 6.03059 14.1107 5.84474C14.2966 5.65889 14.401 5.40683 14.401 5.144C14.401 4.88117 14.2966 4.62911 14.1107 4.44326C13.9249 4.25741 13.6728 4.153 13.41 4.153C13.1471 4.153 12.8951 4.25741 12.7092 4.44326C12.5234 4.62911 12.419 4.88117 12.419 5.144C12.419 5.40683 12.5234 5.65889 12.7092 5.84474C12.8951 6.03059 13.1471 6.135 13.41 6.135Z" fill="black"/>
</svg>
