<svg width="18" height="18" viewBox="0 0 18 18" fill="none" xmlns="http://www.w3.org/2000/svg">
<path d="M5.05859 13.1289C5.97266 13.9922 6.96484 14.7695 8.01953 15.457C8.30469 15.6484 8.63672 15.75 8.98047 15.75C9.32422 15.75 9.66016 15.6484 9.94141 15.457C10.9375 14.75 11.875 13.9609 12.7383 13.0977C13.8242 12.0898 14.6289 10.8125 15.0703 9.39844C15.0898 9.32031 15.0938 9.23828 15.0781 9.16016C15.0664 9.08203 15.0352 9.00391 14.9961 8.9375C14.9531 8.87109 14.8945 8.80859 14.832 8.76562C14.7656 8.71875 14.6914 8.68359 14.6133 8.66406C14.457 8.62891 14.293 8.65625 14.1523 8.74219C14.0156 8.82422 13.918 8.96094 13.8789 9.11719C13.4883 10.3125 12.7969 11.3906 11.8711 12.2422C11.0586 13.0547 10.1758 13.793 9.23438 14.4531C9.15625 14.5078 9.05859 14.5391 8.96094 14.5391C8.86719 14.5391 8.76953 14.5078 8.69141 14.4531C7.69531 13.8086 6.76172 13.0742 5.90234 12.2617C4.91797 11.4219 4.17969 10.332 3.76953 9.10547C3.63672 8.32812 3.58984 7.53516 3.63672 6.75C3.63672 6.21094 3.69141 5.71094 3.72656 5.33984C3.96094 5.33984 4.24609 5.38672 4.55078 5.39844C5.16797 5.4375 5.78516 5.38281 6.38281 5.23438C7.03125 5.01562 7.63672 4.69141 8.17969 4.26953C8.48438 4.04297 8.75391 3.82422 8.96094 3.66016C9.16797 3.83594 9.4375 4.0625 9.74219 4.26953C10.2891 4.69531 10.9102 5.02344 11.5742 5.23438C11.7305 5.27734 11.8945 5.25781 12.0352 5.17578C12.1797 5.09766 12.2812 4.96484 12.3242 4.80859C12.3672 4.65234 12.3477 4.48438 12.2656 4.34375C12.1875 4.20312 12.0508 4.09766 11.8984 4.05469C11.3867 3.88281 10.9141 3.62109 10.4922 3.28516C10.1406 3.02734 9.80859 2.75 9.49219 2.44922C9.35547 2.32031 9.17578 2.25 8.98828 2.25C8.80078 2.25 8.62109 2.32031 8.48438 2.44922C8.16406 2.74609 7.82813 3.02734 7.47656 3.28516C7.05078 3.62109 6.57031 3.88281 6.05859 4.0625C5.58203 4.17578 5.08594 4.21484 4.59375 4.17969C4.1875 4.16406 3.77734 4.12891 3.375 4.07031C3.27734 4.05859 3.17969 4.0625 3.08594 4.08984C2.99219 4.11719 2.90234 4.16406 2.82812 4.22266C2.75 4.28516 2.6875 4.35938 2.64062 4.44531C2.59375 4.53125 2.56641 4.625 2.55469 4.72266C2.52344 5.02734 2.44531 5.82812 2.42187 6.72266C2.36719 7.61328 2.42187 8.50781 2.58594 9.38672C3.05078 10.8359 3.90625 12.1328 5.05859 13.1289Z" fill="black"/>
<path d="M8.91797 6.66795C8.85547 6.61717 8.78515 6.5742 8.71094 6.55076C8.63281 6.52342 8.55469 6.5117 8.47265 6.51561C8.39062 6.52342 8.3125 6.54295 8.24219 6.57811C8.16797 6.61327 8.10547 6.66405 8.05078 6.72264C7.99609 6.78514 7.95703 6.85545 7.92968 6.93358C7.90234 7.0078 7.89453 7.08983 7.89843 7.16795C7.91015 7.33202 7.98437 7.48436 8.10547 7.58983L9.9375 9.22264C10.0625 9.36327 10.2422 9.4492 10.4297 9.46092C10.6211 9.47264 10.8047 9.41405 10.9492 9.28905L15.418 5.09373C15.5391 4.98436 15.6055 4.82811 15.6133 4.66795C15.6172 4.5078 15.5586 4.34764 15.4453 4.23045C15.3359 4.11327 15.1836 4.04295 15.0195 4.03905C14.8594 4.03123 14.7031 4.09373 14.582 4.20311L10.5039 8.05077L8.91797 6.66795Z" fill="black"/>
</svg>
