<svg width="18" height="18" viewBox="0 0 18 18" fill="none" xmlns="http://www.w3.org/2000/svg">
<path d="M11.9998 3.00002C11.4743 2.9996 10.954 3.10272 10.4684 3.30347C9.9828 3.50422 9.54153 3.79868 9.16978 4.17002L8.99978 4.34002L8.82978 4.17002C8.07922 3.41945 7.06124 2.99779 5.99978 2.99779C4.93833 2.99779 3.92035 3.41945 3.16978 4.17002C2.41922 4.92058 1.99756 5.93856 1.99756 7.00002C1.99756 8.06147 2.41922 9.07945 3.16978 9.83002L8.64978 15.3C8.69467 15.3478 8.74889 15.386 8.80909 15.412C8.86929 15.4381 8.93419 15.4515 8.99978 15.4515C9.06538 15.4515 9.13028 15.4381 9.19048 15.412C9.25068 15.386 9.30489 15.3478 9.34978 15.3L14.8298 9.83002C15.3898 9.27059 15.7713 8.55758 15.9259 7.78124C16.0805 7.0049 16.0013 6.20015 15.6983 5.46886C15.3953 4.73756 14.8821 4.11262 14.2237 3.67313C13.5653 3.23365 12.7914 2.99939 11.9998 3.00002ZM14.1198 9.12002L8.99978 14.24L3.87978 9.12002C3.58504 8.84537 3.34863 8.51417 3.18466 8.14617C3.02069 7.77817 2.93252 7.38092 2.92542 6.97811C2.91831 6.57529 2.99241 6.17518 3.14329 5.80163C3.29418 5.42807 3.51875 5.08874 3.80363 4.80386C4.0885 4.51899 4.42784 4.29441 4.80139 4.14353C5.17495 3.99264 5.57506 3.91854 5.97787 3.92565C6.38068 3.93276 6.77794 4.02092 7.14594 4.18489C7.51393 4.34886 7.84513 4.58527 8.11978 4.88002L8.64978 5.40002L8.99978 5.76002L9.34978 5.40002L9.87978 4.88002C10.4485 4.3501 11.2007 4.0616 11.9779 4.07532C12.7551 4.08903 13.4966 4.40388 14.0463 4.95353C14.5959 5.50318 14.9108 6.24472 14.9245 7.02193C14.9382 7.79913 14.6497 8.55132 14.1198 9.12002Z" fill="black"/>
</svg>
