<svg width="18" height="18" viewBox="0 0 18 18" fill="none" xmlns="http://www.w3.org/2000/svg">
<path d="M12.0022 3.00222C11.4768 3.00181 10.9564 3.10493 10.4708 3.30568C9.98524 3.50643 9.54397 3.80089 9.17222 4.17222L9.00222 4.34222L8.83222 4.17222C8.08166 3.42166 7.06368 3 6.00222 3C4.94077 3 3.92279 3.42166 3.17222 4.17222C2.42166 4.92279 2 5.94077 2 7.00222C2 8.06368 2.42166 9.08166 3.17222 9.83223L8.65222 15.3022C8.69711 15.3501 8.75133 15.3882 8.81153 15.4142C8.87173 15.4403 8.93663 15.4537 9.00222 15.4537C9.06782 15.4537 9.13272 15.4403 9.19292 15.4142C9.25312 15.3882 9.30733 15.3501 9.35222 15.3022L14.8322 9.83223C15.3923 9.2728 15.7737 8.55979 15.9283 7.78345C16.0829 7.00711 16.0037 6.20236 15.7007 5.47106C15.3977 4.73977 14.8845 4.11483 14.2262 3.67534C13.5678 3.23586 12.7938 3.0016 12.0022 3.00222Z" fill="black"/>
</svg>
