<svg width="18" height="18" viewBox="0 0 18 18" fill="none" xmlns="http://www.w3.org/2000/svg">
<path d="M11.9998 3.00002C11.4743 2.9996 10.954 3.10272 10.4684 3.30347C9.9828 3.50422 9.54153 3.79868 9.16978 4.17002L8.99978 4.34002L8.82978 4.17002C8.07922 3.41945 7.06124 2.99779 5.99978 2.99779C4.93833 2.99779 3.92035 3.41945 3.16978 4.17002C2.41922 4.92058 1.99756 5.93856 1.99756 7.00002C1.99756 8.06147 2.41922 9.07945 3.16978 9.83002L8.64978 15.3C8.69467 15.3478 8.74889 15.386 8.80909 15.412C8.86929 15.4381 8.93419 15.4515 8.99978 15.4515C9.06538 15.4515 9.13028 15.4381 9.19048 15.412C9.25068 15.386 9.30489 15.3478 9.34978 15.3L14.8298 9.83002C15.3898 9.27059 15.7713 8.55758 15.9259 7.78124C16.0805 7.0049 16.0013 6.20015 15.6983 5.46886C15.3953 4.73756 14.8821 4.11262 14.2237 3.67313C13.5653 3.23365 12.7914 2.99939 11.9998 3.00002Z" fill="black"/>
</svg>
