<svg width="18" height="18" viewBox="0 0 18 18" fill="none" xmlns="http://www.w3.org/2000/svg">
<path fill-rule="evenodd" clip-rule="evenodd" d="M1 9C1 4.58172 4.58172 1 9 1C11.1217 1 13.1566 1.84285 14.6569 3.34315C16.1571 4.84344 17 6.87827 17 9C17 13.4183 13.4183 17 9 17C4.58172 17 1 13.4183 1 9ZM16.1111 9C16.1111 5.07264 12.9274 1.88889 9 1.88889C5.07264 1.88889 1.88889 5.07264 1.88889 9C1.88889 12.9274 5.07264 16.1111 9 16.1111C12.9274 16.1111 16.1111 12.9274 16.1111 9ZM8.34222 10.92V10.7778C8.34222 9.66667 8.55556 9.32 9.64889 8.36C10.0545 8.06576 10.3085 7.60661 10.3422 7.10667C10.3649 6.75987 10.2338 6.42068 9.98378 6.17925C9.73379 5.93783 9.39024 5.81863 9.04444 5.85333C8.62971 5.84228 8.23083 6.01288 7.95235 6.3204C7.67386 6.62793 7.54355 7.04173 7.59556 7.45333H6.57333C6.5697 6.7922 6.83998 6.15907 7.31993 5.70438C7.79989 5.24968 8.44669 5.014 9.10667 5.05333C9.68432 4.98864 10.2628 5.16756 10.7031 5.5471C11.1433 5.92663 11.4055 6.47245 11.4267 7.05333C11.4267 7.9156 10.8855 8.41858 10.3471 8.91893C9.81441 9.41406 9.28444 9.90662 9.28444 10.7422V10.92H8.34222ZM8.25333 11.8V12.9467H9.40889V11.8H8.25333Z" fill="black"/>
</svg>
