<svg width="20" height="20" viewBox="0 0 20 20" fill="none" xmlns="http://www.w3.org/2000/svg">
<path fill-rule="evenodd" clip-rule="evenodd" d="M5.20697 5.56182L5.76429 5L6.77176 5.9994C7.6915 5.48867 8.71448 5.23092 9.83717 5.23092C12.3301 5.23092 14.3362 6.50171 15.8172 8.99141C16.0742 9.42356 16.0592 9.96059 15.7784 10.3784C15.1089 11.3743 14.3775 12.1691 13.586 12.7591L14.6921 13.8562L14.1347 14.4181L12.911 13.2041C11.9665 13.7488 10.9439 14.0238 9.84552 14.0238C7.52027 14.0238 5.5341 12.7913 3.91151 10.3767C3.63162 9.96019 3.61583 9.42509 3.87067 8.9935C4.51105 7.90917 5.25197 7.05591 6.09023 6.43801L5.20697 5.56182ZM7.4298 6.65217C8.16214 6.28967 8.96373 6.11017 9.83716 6.11017C11.9898 6.11017 13.7111 7.20058 15.0393 9.43328C15.125 9.57733 15.12 9.75634 15.0264 9.8956C14.383 10.8527 13.6912 11.5952 12.949 12.1271L11.7781 10.9657C12.0149 10.6149 12.1531 10.1922 12.1531 9.73723C12.1531 8.52319 11.169 7.53902 9.95492 7.53902C9.49359 7.53902 9.06544 7.68114 8.71188 7.92398L7.4298 6.65217ZM8.15036 8.48163L6.72789 7.07056C5.94844 7.61924 5.25706 8.405 4.64998 9.43295C4.56504 9.5768 4.5703 9.75518 4.6636 9.89402C6.131 12.0777 7.85015 13.1445 9.84551 13.1445C10.6991 13.1445 11.5021 12.9492 12.2565 12.5549L11.225 11.5316C10.8663 11.786 10.4281 11.9354 9.95492 11.9354C8.74088 11.9354 7.75671 10.9513 7.75671 9.73723C7.75671 9.27042 7.90222 8.83759 8.15036 8.48163ZM9.35524 8.56218C9.53516 8.47017 9.739 8.41827 9.95495 8.41827C10.6834 8.41827 11.2739 9.00877 11.2739 9.7372C11.2739 9.94938 11.2238 10.1499 11.1348 10.3274L9.35524 8.56218ZM10.5846 10.8964L8.79072 9.11686C8.69199 9.30176 8.63603 9.51294 8.63603 9.7372C8.63603 10.4656 9.22653 11.0561 9.95495 11.0561C10.183 11.0561 10.3975 10.9983 10.5846 10.8964Z" fill="black"/>
</svg>
