<svg width="18" height="18" viewBox="0 0 18 18" fill="none" xmlns="http://www.w3.org/2000/svg">
<path fill-rule="evenodd" clip-rule="evenodd" d="M4.20697 4.56182L4.76429 4L5.77176 4.9994C6.6915 4.48867 7.71448 4.23092 8.83717 4.23092C11.3301 4.23092 13.3362 5.50171 14.8172 7.99141C15.0742 8.42356 15.0592 8.96059 14.7784 9.37838C14.1089 10.3743 13.3775 11.1691 12.586 11.7591L13.6921 12.8562L13.1347 13.4181L11.911 12.2041C10.9665 12.7488 9.94386 13.0238 8.84552 13.0238C6.52027 13.0238 4.5341 11.7913 2.91151 9.3767C2.63162 8.96019 2.61583 8.42509 2.87067 7.9935C3.51105 6.90917 4.25197 6.05591 5.09023 5.43801L4.20697 4.56182ZM6.4298 5.65217C7.16214 5.28967 7.96373 5.11017 8.83716 5.11017C10.9898 5.11017 12.7111 6.20058 14.0393 8.43328C14.125 8.57733 14.12 8.75634 14.0264 8.8956C13.383 9.85272 12.6912 10.5952 11.949 11.1271L10.7781 9.96566C11.0149 9.61494 11.1531 9.19223 11.1531 8.73723C11.1531 7.52319 10.169 6.53902 8.95492 6.53902C8.49359 6.53902 8.06544 6.68114 7.71188 6.92398L6.4298 5.65217ZM7.15036 7.48163L5.72789 6.07056C4.94844 6.61924 4.25706 7.405 3.64998 8.43295C3.56504 8.5768 3.5703 8.75518 3.6636 8.89402C5.131 11.0777 6.85015 12.1445 8.84551 12.1445C9.69909 12.1445 10.5021 11.9492 11.2565 11.5549L10.225 10.5316C9.86632 10.786 9.42808 10.9354 8.95492 10.9354C7.74088 10.9354 6.75671 9.95127 6.75671 8.73723C6.75671 8.27042 6.90222 7.83759 7.15036 7.48163ZM8.35524 7.56218C8.53516 7.47017 8.739 7.41827 8.95495 7.41827C9.68338 7.41827 10.2739 8.00877 10.2739 8.7372C10.2739 8.94938 10.2238 9.14985 10.1348 9.32744L8.35524 7.56218ZM9.58463 9.89639L7.79072 8.11686C7.69199 8.30176 7.63603 8.51294 7.63603 8.7372C7.63603 9.46562 8.22653 10.0561 8.95495 10.0561C9.18299 10.0561 9.39751 9.99825 9.58463 9.89639Z" fill="black"/>
</svg>
