<svg width="18" height="18" viewBox="0 0 18 18" fill="none" xmlns="http://www.w3.org/2000/svg">
<path fill-rule="evenodd" clip-rule="evenodd" d="M8.99479 15.6668C12.6767 15.6668 15.6615 12.6821 15.6615 9.00016C15.6615 5.31826 12.6767 2.3335 8.99479 2.3335C5.31289 2.3335 2.32812 5.31826 2.32812 9.00016C2.32812 12.6821 5.31289 15.6668 8.99479 15.6668ZM12.8153 7.22211L12.458 9.49344L11.6658 8.82286L9.44538 10.707L9.15783 10.951L8.87027 10.707L7.78532 9.78635L6.01412 11.2893L5.43901 10.6115L7.49777 8.86458L7.78532 8.62058L8.07288 8.86458L9.15783 9.78519L10.9781 8.24066L10.1393 7.53061L12.8153 7.22211Z" fill="#1023D7"/>
</svg>
