<svg width="20" height="20" viewBox="0 0 20 20" fill="none" xmlns="http://www.w3.org/2000/svg">
<path fill-rule="evenodd" clip-rule="evenodd" d="M14.0841 3.04264C12.4745 2.18228 10.6163 1.90664 8.82626 2.26271C7.03619 2.61878 5.42496 3.58451 4.26711 4.99536C3.12763 6.38382 2.49663 8.11885 2.47689 9.91319L2.77969 9.91177L4.24093 9.90764L2.12448 13.5924L0 9.91746L1.36751 9.91839L1.47679 9.91788C1.49551 7.89051 2.20685 5.92948 3.4941 4.36096C4.79872 2.77128 6.61419 1.68313 8.63117 1.28193C10.6481 0.880724 12.7418 1.19129 14.5555 2.16072C16.3692 3.13014 17.7906 4.69844 18.5776 6.59839C19.3645 8.49834 19.4684 10.6124 18.8714 12.5803C18.2745 14.5483 17.0136 16.2483 15.3037 17.3909C13.5938 18.5334 11.5406 19.0477 9.49403 18.8461C7.44744 18.6445 5.53406 17.7396 4.0799 16.2854L4.78701 15.5783C6.07758 16.8689 7.7757 17.672 9.59205 17.8509C11.4084 18.0298 13.2306 17.5734 14.7481 16.5594C16.2657 15.5454 17.3847 14.0366 17.9145 12.29C18.4443 10.5435 18.3521 8.66728 17.6537 6.98107C16.9552 5.29487 15.6937 3.903 14.0841 3.04264ZM10.1127 10.4647V5.40406H9.0016V11.1514L13.0379 13.1696L13.5348 12.1758L10.1127 10.4647Z" fill="black"/>
</svg>
