<svg width="18" height="18" viewBox="0 0 18 18" fill="none" xmlns="http://www.w3.org/2000/svg">
<path d="M3.03207 7.87299H1.95907C1.82239 7.87257 1.68931 7.82908 1.57876 7.7487C1.46821 7.66831 1.38582 7.55512 1.34329 7.42522C1.30077 7.29531 1.30028 7.15531 1.34189 7.02511C1.3835 6.89492 1.46509 6.78115 1.57507 6.69999L8.99807 1.26299L16.5321 6.69699C16.6435 6.77741 16.7265 6.89106 16.7693 7.02162C16.8121 7.15219 16.8124 7.29295 16.7701 7.42369C16.7279 7.55444 16.6454 7.66844 16.5343 7.74935C16.4233 7.83025 16.2895 7.87388 16.1521 7.87399H15.0681V15.953H9.99207V10.93H7.96707V15.953H3.03207V7.87299ZM4.03207 7.87299V14.952H6.96707V9.92899H10.9921V14.952H14.0681V7.87299H4.03207ZM15.0681 6.87299L9.00207 2.49799L3.03007 6.87299H15.0701H15.0681Z" fill="black"/>
</svg>
