<svg width="18" height="18" viewBox="0 0 18 18" fill="none" xmlns="http://www.w3.org/2000/svg">
<path fill-rule="evenodd" clip-rule="evenodd" d="M9 1C4.58172 1 1 4.58172 1 9C1 13.4183 4.58172 17 9 17C13.4183 17 17 13.4183 17 9C17 6.87827 16.1571 4.84344 14.6569 3.34315C13.1566 1.84285 11.1217 1 9 1ZM8.99978 1.88892C12.9271 1.88892 16.1109 5.07267 16.1109 9.00003C16.1109 12.9274 12.9271 16.1111 8.99978 16.1111C5.07242 16.1111 1.88867 12.9274 1.88867 9.00003C1.88867 5.07267 5.07242 1.88892 8.99978 1.88892ZM8.51123 5.1333H9.48901V6.19997H8.51123V5.1333ZM9.48901 7.37329V12.8666H8.51123V7.37329H9.48901Z" fill="black"/>
</svg>
