<svg width="18" height="18" viewBox="0 0 18 18" fill="none" xmlns="http://www.w3.org/2000/svg">
<path d="M9 6.17C10.56 6.17 11.82 7.43 11.82 8.99C11.82 10.55 10.56 11.82 9 11.82C7.44 11.82 6.17 10.56 6.17 9C6.17 7.44 7.43 6.17 8.99 6.17ZM9 7.17C7.99 7.17 7.17 7.99 7.17 9.01C7.17 10.02 7.99 10.84 9.01 10.84C10.02 10.84 10.84 10.02 10.84 9C10.84 7.98 10.02 7.17 9 7.17Z" fill="black"/>
<path d="M11.93 5.39C12.3 5.39 12.59 5.68 12.59 6.05C12.59 6.42 12.3 6.71 11.93 6.71C11.57 6.71 11.27 6.42 11.27 6.05C11.27 5.69 11.56 5.39 11.93 5.39Z" fill="black"/>
<path d="M13.51 6.78C13.51 7.36 13.51 7.53 13.51 9C13.51 10.47 13.51 10.64 13.48 11.22C13.45 11.75 13.36 12.05 13.29 12.24C13.19 12.49 13.07 12.68 12.88 12.87C12.69 13.06 12.51 13.18 12.25 13.28C12.06 13.35 11.77 13.44 11.23 13.47C10.65 13.5 10.48 13.5 9.01 13.5C7.54 13.5 7.37 13.5 6.79 13.47C6.26 13.44 5.96 13.35 5.77 13.28C5.52 13.18 5.33 13.06 5.14 12.87C4.95 12.68 4.83 12.5 4.73 12.24C4.66 12.05 4.57 11.76 4.54 11.22C4.5 10.64 4.5 10.47 4.5 9C4.5 7.53 4.5 7.36 4.53 6.78C4.56 6.25 4.65 5.95 4.72 5.76C4.82 5.51 4.94 5.32 5.13 5.13C5.32 4.94 5.5 4.82 5.76 4.72C5.95 4.65 6.24 4.56 6.78 4.53C7.36 4.49 7.53 4.49 9 4.49C10.47 4.49 10.64 4.49 11.22 4.52C11.75 4.55 12.05 4.63 12.24 4.71C12.49 4.81 12.68 4.93 12.87 5.12C13.06 5.31 13.18 5.49 13.28 5.75C13.35 5.94 13.44 6.23 13.47 6.77C13.51 7.35 13.51 7.52 13.51 6.78ZM14.47 6.71C14.43 6.12 14.34 5.72 14.2 5.37C14.05 5.01 13.87 4.71 13.56 4.4C13.25 4.1 12.94 3.91 12.58 3.77C12.23 3.64 11.83 3.55 11.24 3.52C10.65 3.49 10.46 3.49 8.97 3.49C7.47 3.49 7.29 3.49 6.7 3.52C6.11 3.56 5.71 3.65 5.36 3.79C5 3.94 4.7 4.12 4.39 4.43C4.09 4.74 3.9 5.05 3.76 5.41C3.63 5.76 3.54 6.16 3.51 6.75C3.48 7.34 3.48 7.53 3.48 9.02C3.48 10.52 3.48 10.7 3.51 11.29C3.55 11.88 3.64 12.28 3.78 12.63C3.93 12.99 4.11 13.29 4.42 13.6C4.73 13.91 5.04 14.09 5.4 14.23C5.75 14.36 6.15 14.45 6.74 14.48C7.33 14.51 7.52 14.51 9.01 14.51C10.51 14.51 10.69 14.51 11.28 14.48C11.87 14.44 12.27 14.35 12.62 14.21C12.98 14.06 13.28 13.88 13.59 13.57C13.9 13.26 14.08 12.95 14.22 12.59C14.35 12.24 14.44 11.84 14.47 11.25C14.5 10.66 14.5 10.47 14.5 8.98C14.5 7.48 14.5 7.3 14.47 6.71Z" fill="black"/>
</svg>
