<svg width="23" height="23" viewBox="0 0 23 23" fill="none" xmlns="http://www.w3.org/2000/svg">
    <defs>
    <radialGradient id="a" cx="0" cy="0" r="1" gradientUnits="userSpaceOnUse" gradientTransform="matrix(0 -20.8108 19.3604 0 6.579 23.616)">
      <stop stop-color="#FD5"/>
      <stop offset=".1" stop-color="#FD5"/>
      <stop offset=".5" stop-color="#FF543E"/>
      <stop offset="1" stop-color="#C837AB"/>
    </radialGradient>
    <radialGradient id="b" cx="0" cy="0" r="1" gradientUnits="userSpaceOnUse" gradientTransform="matrix(1.82631 9.12157 -37.6079 7.52982 -2.518 2.513)">
      <stop stop-color="#3771C8"/>
      <stop offset=".128" stop-color="#3771C8"/>
      <stop offset="1" stop-color="#60F" stop-opacity="0"/>
    </radialGradient>
  </defs>
  
  <path d="M11.505 1c-4.384 0-5.667.005-5.916.025-.9.075-1.46.217-2.07.52-.47.234-.84.504-1.206.884q-.998
    1.036-1.216 2.554c-.071.491-.092.591-.096 3.1-.002.836 0 1.936 0 3.412 0 4.38.005
    5.662.026 5.91.072.876.21 1.427.5 2.03a4.42 4.42 0 0 0 2.868 2.342c.432.111.91.173
    1.524.202.26.011 2.911.02 5.564.02s5.304-.004 5.558-.017c.71-.033 1.124-.089
    1.58-.207a4.4 4.4 0 0 0
    2.867-2.347c.285-.588.43-1.16.495-1.99.014-.18.02-3.065.02-5.946s-.006-5.76-.02-5.941c-.067-.843-.211-1.41-.506-2.01a4.2
    4.2 0 0 0-.898-1.231q-1.04-.995-2.557-1.214c-.49-.07-.589-.092-3.099-.096z"
    fill="url(#a)"/>
  <path d="M11.505 1c-4.384 0-5.667.005-5.916.025-.9.075-1.46.217-2.07.52-.47.234-.84.504-1.206.884q-.998
    1.036-1.216 2.554c-.071.491-.092.591-.096 3.1-.002.836 0 1.936 0 3.412 0 4.38.005
    5.662.026 5.91.072.876.21 1.427.5 2.03a4.42 4.42 0 0 0 2.868 2.342c.432.111.91.173
    1.524.202.26.011 2.911.02 5.564.02s5.304-.004 5.558-.017c.71-.033 1.124-.089
    1.58-.207a4.4 4.4 0 0 0
    2.867-2.347c.285-.588.43-1.16.495-1.99.014-.18.02-3.065.02-5.946s-.006-5.76-.02-5.941c-.067-.843-.211-1.41-.506-2.01a4.2
    4.2 0 0 0-.898-1.231q-1.04-.995-2.557-1.214c-.49-.07-.589-.092-3.099-.096z"
    fill="url(#b)"/>
  <path d="M11.5 3.746c-2.105 0-2.37.01-3.197.047-.825.038-1.388.169-1.881.36a3.8
    3.8 0 0 0-1.374.894 3.8 3.8 0 0 0-.895 1.374c-.192.493-.323 1.057-.36
    1.882-.037.827-.047 1.091-.047 3.197s.01 2.37.047 3.196c.038.826.169 1.39.36
    1.882a3.8 3.8 0 0 0 .895 1.374c.43.431.863.697 1.373.895.493.192 1.056.322
    1.882.36.827.038 1.09.047 3.196.047s2.37-.01 3.197-.047c.825-.038 1.39-.168
    1.883-.36.51-.198.941-.464
    1.372-.895s.697-.864.895-1.374c.19-.493.322-1.056.36-1.881.038-.827.047-1.091.047-3.197s-.01-2.37-.047-3.197c-.038-.826-.17-1.389-.36-1.882a3.8
    3.8 0 0 0-.895-1.374 3.8 3.8 0 0
    0-1.373-.894c-.494-.191-1.058-.322-1.883-.36-.827-.038-1.09-.047-3.197-.047zm-.695
    1.398h.696c2.07 0 2.315.007 3.133.044.756.035 1.166.161
    1.44.267.361.14.619.309.89.58.272.271.44.53.58.892.107.273.233.683.267
    1.44.038.816.046 1.062.046 3.131s-.008 2.315-.046 3.133c-.034.755-.16
    1.166-.267 1.439a2.4 2.4 0 0 1-.58.89 2.4 2.4 0 0
    1-.89.58c-.274.107-.684.233-1.44.268-.818.037-1.063.045-3.133.045s-2.316-.008-3.134-.045c-.756-.035-1.166-.162-1.44-.268a2.4
    2.4 0 0 1-.891-.58 2.4 2.4 0 0
    1-.58-.89c-.106-.274-.233-.684-.267-1.44-.037-.818-.045-1.063-.045-3.134s.008-2.315.045-3.132c.034-.756.16-1.166.267-1.44.14-.361.309-.62.58-.891.271-.272.53-.44.892-.58.273-.107.683-.233
    1.44-.268.715-.032.992-.042 2.437-.043zm4.834 1.287a.93.93 0 1 0 0 1.861.93.93
    0 0 0 0-1.861m-4.138 1.087a3.982 3.982 0 1 0 0 7.964 3.982 3.982 0 0 0
    0-7.964m0 1.397a2.585 2.585 0 1 1 0 5.17 2.585 2.585 0 0 1 0-5.17"
    fill="#ffffff"/>
</svg>