<svg width="18" height="18" viewBox="0 0 18 18" fill="none" xmlns="http://www.w3.org/2000/svg">
<circle cx="9" cy="9" r="9" fill="white"/>
<g clip-path="url(#clip0_21893_1732)">
<path d="M8.99992 7.17C7.98992 7.17 7.16992 7.99 7.16992 9.01C7.16992 10.02 7.98992 10.84 9.00992 10.84C10.0199 10.84 10.8399 10.02 10.8399 9C10.8399 7.98 10.0199 7.17 8.99992 7.17Z" fill="black"/>
<path d="M13.47 6.77C13.44 6.23 13.35 5.94 13.28 5.75C13.18 5.49 13.06 5.31 12.87 5.12C12.68 4.93 12.49 4.81 12.24 4.71C12.05 4.63 11.75 4.55 11.22 4.52C10.64 4.49 10.47 4.49 9 4.49C7.53 4.49 7.36 4.49 6.78 4.53C6.24 4.56 5.95 4.65 5.76 4.72C5.5 4.82 5.32 4.94 5.13 5.13C4.94 5.32 4.82 5.51 4.72 5.76C4.65 5.95 4.56 6.25 4.53 6.78C4.5 7.36 4.5 7.53 4.5 9C4.5 10.47 4.5 10.64 4.54 11.22C4.57 11.76 4.66 12.05 4.73 12.24C4.83 12.5 4.95 12.68 5.14 12.87C5.33 13.06 5.52 13.18 5.77 13.28C5.96 13.35 6.26 13.44 6.79 13.47C7.37 13.5 7.54 13.5 9.01 13.5C10.48 13.5 10.65 13.5 11.23 13.46C11.77 13.43 12.06 13.34 12.25 13.27C12.51 13.17 12.69 13.05 12.88 12.86C13.07 12.67 13.19 12.48 13.29 12.23C13.36 12.04 13.45 11.74 13.48 11.21C13.51 10.63 13.51 10.46 13.51 8.99C13.51 7.52 13.51 7.35 13.47 6.77ZM9 11.82C7.44 11.82 6.17 10.56 6.17 9C6.17 7.44 7.43 6.17 8.99 6.17C10.55 6.17 11.82 7.43 11.82 8.99C11.82 10.55 10.56 11.82 9 11.82ZM11.93 6.71C11.57 6.71 11.27 6.42 11.27 6.05C11.27 5.69 11.56 5.39 11.93 5.39C12.29 5.39 12.59 5.68 12.59 6.05C12.59 6.41 12.3 6.71 11.93 6.71Z" fill="black"/>
</g>
<defs>
<clipPath id="clip0_21893_1732">
<rect width="18" height="18" rx="9" fill="white"/>
</clipPath>
</defs>
</svg>
