<svg width="18" height="18" viewBox="0 0 18 18" fill="none" xmlns="http://www.w3.org/2000/svg">
<path d="M6.375 2.875C5.44674 2.875 4.5565 3.24375 3.90013 3.90013C3.24375 4.5565 2.875 5.44674 2.875 6.375V11.625C2.875 12.5533 3.24375 13.4435 3.90013 14.0999C4.5565 14.7563 5.44674 15.125 6.375 15.125H11.625C12.5533 15.125 13.4435 14.7563 14.0999 14.0999C14.7563 13.4435 15.125 12.5533 15.125 11.625V6.375C15.125 5.44674 14.7563 4.5565 14.0999 3.90013C13.4435 3.24375 12.5533 2.875 11.625 2.875H6.375ZM6.375 2H11.625C12.7853 2 13.8981 2.46094 14.7186 3.28141C15.5391 4.10188 16 5.21468 16 6.375V11.625C16 12.7853 15.5391 13.8981 14.7186 14.7186C13.8981 15.5391 12.7853 16 11.625 16H6.375C5.21468 16 4.10188 15.5391 3.28141 14.7186C2.46094 13.8981 2 12.7853 2 11.625V6.375C2 5.21468 2.46094 4.10188 3.28141 3.28141C4.10188 2.46094 5.21468 2 6.375 2ZM9 6.375C8.65528 6.375 8.31394 6.4429 7.99546 6.57482C7.67698 6.70674 7.3876 6.90009 7.14385 7.14385C6.90009 7.3876 6.70674 7.67698 6.57482 7.99546C6.4429 8.31394 6.375 8.65528 6.375 9C6.375 9.34472 6.4429 9.68607 6.57482 10.0045C6.70674 10.323 6.90009 10.6124 7.14385 10.8562C7.3876 11.0999 7.67698 11.2933 7.99546 11.4252C8.31394 11.5571 8.65528 11.625 9 11.625C9.69619 11.625 10.3639 11.3484 10.8562 10.8562C11.3484 10.3639 11.625 9.6962 11.625 9C11.625 8.30381 11.3484 7.63613 10.8562 7.14385C10.3639 6.65156 9.69619 6.375 9 6.375ZM9 5.5C9.45963 5.5 9.91475 5.59053 10.3394 5.76642C10.764 5.94231 11.1499 6.20012 11.4749 6.52513C11.7999 6.85013 12.0577 7.23597 12.2336 7.66061C12.4095 8.08525 12.5 8.54038 12.5 9C12.5 9.45963 12.4095 9.91475 12.2336 10.3394C12.0577 10.764 11.7999 11.1499 11.4749 11.4749C11.1499 11.7999 10.764 12.0577 10.3394 12.2336C9.91475 12.4095 9.45963 12.5 9 12.5C8.07174 12.5 7.1815 12.1313 6.52513 11.4749C5.86875 10.8185 5.5 9.92826 5.5 9C5.5 8.07174 5.86875 7.18151 6.52513 6.52513C7.1815 5.86875 8.07174 5.5 9 5.5ZM12.938 5.938C12.7059 5.938 12.4834 5.84581 12.3193 5.68172C12.1552 5.51762 12.063 5.29507 12.063 5.063C12.063 4.83094 12.1552 4.60838 12.3193 4.44428C12.4834 4.28019 12.7059 4.188 12.938 4.188C13.1701 4.188 13.3926 4.28019 13.5567 4.44428C13.7208 4.60838 13.813 4.83094 13.813 5.063C13.813 5.29507 13.7208 5.51762 13.5567 5.68172C13.3926 5.84581 13.1701 5.938 12.938 5.938Z" fill="black"/>
</svg>
