<svg width="18" height="18" viewBox="0 0 18 18" fill="none" xmlns="http://www.w3.org/2000/svg">
<path fill-rule="evenodd" clip-rule="evenodd" d="M5.11985 5.99994L8.98585 3.23994L12.6679 5.99994H5.11985ZM15.0689 6.54994L8.99985 1.99994L2.63485 6.54694C2.59195 6.57777 2.55993 6.6214 2.54337 6.67156C2.5268 6.72172 2.52656 6.77584 2.54266 6.82615C2.55877 6.87647 2.59039 6.92038 2.633 6.9516C2.67562 6.98283 2.72702 6.99975 2.77985 6.99994H4.38086V14.0001H2.99988V15.0001H14.9999V14.0001H13.3848V6.99994H14.9189C14.9713 6.99994 15.0225 6.98343 15.065 6.95275C15.1076 6.92207 15.1394 6.87877 15.156 6.829C15.1726 6.77922 15.1731 6.72548 15.1575 6.6754C15.1418 6.62531 15.1108 6.58142 15.0689 6.54994ZM12.3848 6.99994H11.3768V14.0001H12.3848V6.99994ZM10.3768 6.99994H9.38484V14.0001H10.3768V6.99994ZM8.38484 6.99994H7.38784V14.0001H8.38484V6.99994ZM6.38784 6.99994H5.38086V14.0001H6.38784V6.99994Z" fill="black"/>
</svg>
