<svg width="18" height="18" viewBox="0 0 18 18" fill="none" xmlns="http://www.w3.org/2000/svg">
<path d="M6.0949 2.05038C5.35364 2.08636 4.84268 2.20151 4.39649 2.38142C3.9359 2.56134 3.54728 2.79883 3.15866 3.18745C2.77004 3.57607 2.53255 3.96469 2.35264 4.42527C2.17992 4.87146 2.06477 5.38243 2.02879 6.12368C2 6.87213 2 7.10962 2 9.00954C2 10.9095 2.01439 11.1469 2.05038 11.8954C2.08636 12.6367 2.20151 13.1476 2.38142 13.5938C2.56134 14.0544 2.79883 14.443 3.18745 14.8316C3.57607 15.2203 3.96469 15.4577 4.42527 15.6377C4.87146 15.8104 5.38243 15.9255 6.12368 15.9615C6.86494 15.9975 7.10962 16.0047 9.00954 15.9975C10.9095 15.9975 11.1469 15.9831 11.8954 15.9471C12.6439 15.9111 13.1476 15.796 13.5938 15.6161C14.0544 15.4362 14.443 15.1987 14.8316 14.81C15.2203 14.4214 15.4577 14.0328 15.6377 13.5722C15.8104 13.126 15.9255 12.6151 15.9615 11.8738C15.9975 11.1254 16.0047 10.8879 15.9975 8.98795C15.9975 7.08803 15.9831 6.85054 15.9471 6.10209C15.9111 5.35364 15.796 4.84987 15.6161 4.40368C15.4362 3.9431 15.1987 3.55448 14.81 3.16586C14.4214 2.77724 14.0328 2.53975 13.5722 2.35983C13.126 2.18711 12.6223 2.07197 11.8738 2.03598C11.1254 2 10.8807 2 8.98075 2C7.08084 2 6.84335 2.01439 6.0949 2.05038V2.05038ZM6.17406 14.6949C5.49038 14.6661 5.12335 14.551 4.87146 14.4574C4.54762 14.3351 4.31013 14.1767 4.06544 13.9392C3.82075 13.6946 3.66962 13.4643 3.54008 13.1332C3.44653 12.8885 3.33138 12.5143 3.2954 11.8378C3.25941 11.1038 3.25222 10.8807 3.25222 9.00954C3.25222 7.14561 3.25222 6.92251 3.2882 6.18126C3.31699 5.49757 3.43213 5.13054 3.52569 4.88586C3.64803 4.56201 3.80636 4.32452 4.04385 4.07983C4.28854 3.83515 4.51883 3.68402 4.84988 3.55448C5.09456 3.46092 5.46879 3.34577 6.14527 3.30979C6.87933 3.27381 7.10243 3.26661 8.97356 3.26661C10.8375 3.26661 11.0606 3.26661 11.8018 3.30259C12.4855 3.33138 12.8526 3.44653 13.0972 3.54008C13.4211 3.66243 13.6586 3.82075 13.9033 4.05824C14.148 4.30293 14.2991 4.53322 14.4286 4.86427C14.5222 5.10895 14.6373 5.48318 14.6733 6.15967C14.7093 6.89372 14.7165 7.11682 14.7165 8.98795C14.7165 10.8519 14.7165 11.075 14.6805 11.8162C14.6517 12.4999 14.5366 12.8669 14.443 13.1188C14.3207 13.4427 14.1623 13.6802 13.9177 13.9249C13.673 14.1695 13.4427 14.3207 13.1116 14.4502C12.8669 14.5438 12.4927 14.6589 11.8162 14.6949C11.0822 14.7309 10.8591 14.7381 8.98795 14.7381C7.11682 14.7381 6.90092 14.7381 6.15967 14.7021M11.881 5.25289C11.881 5.41841 11.9314 5.58393 12.0249 5.72067C12.1185 5.85741 12.248 5.96536 12.3992 6.03013C12.5503 6.0949 12.723 6.10929 12.8813 6.0805C13.0469 6.04452 13.1908 5.96536 13.3131 5.85021C13.4283 5.73506 13.5075 5.58393 13.5434 5.41841C13.5722 5.25289 13.5578 5.08736 13.4931 4.93623C13.4283 4.78511 13.3203 4.65557 13.1836 4.56201C13.0469 4.46845 12.8813 4.41808 12.7158 4.41808C12.4927 4.41808 12.2768 4.50444 12.1257 4.66276C11.9674 4.82109 11.881 5.03699 11.881 5.26008M5.40402 9.00234C5.40402 10.9886 7.01607 12.5935 9.00234 12.5863C10.9886 12.5863 12.5935 10.9742 12.5863 8.98795C12.5863 7.00167 10.9742 5.39682 8.98795 5.40402C7.00167 5.40402 5.39682 7.01607 5.40402 9.00234ZM6.66343 9.00234C6.66343 8.54176 6.80017 8.08837 7.05205 7.70695C7.30393 7.32552 7.67096 7.02326 8.09557 6.84335C8.52017 6.66343 8.98795 6.62025 9.44134 6.70661C9.89473 6.79297 10.3121 7.01607 10.636 7.33992C10.9598 7.66377 11.1829 8.08117 11.2765 8.53456C11.37 8.98795 11.3197 9.45573 11.1469 9.88034C10.9742 10.3049 10.672 10.672 10.2905 10.931C9.90912 11.1901 9.45573 11.3269 8.99515 11.3269C8.68569 11.3269 8.38343 11.2693 8.10276 11.1541C7.82209 11.039 7.56301 10.8663 7.34711 10.6504C7.13121 10.4345 6.95849 10.1754 6.84335 9.89473C6.7282 9.61406 6.66343 9.3118 6.66343 9.00234Z" fill="black"/>
</svg>
