<svg width="18" height="18" viewBox="0 0 18 18" fill="none" xmlns="http://www.w3.org/2000/svg">
<path fill-rule="evenodd" clip-rule="evenodd" d="M5.11985 5.99995L8.98585 3.23995L12.6679 5.99995H5.11985ZM15.0689 6.54995L8.99985 1.99995L2.63485 6.54695C2.59195 6.57779 2.55993 6.62141 2.54337 6.67158C2.5268 6.72174 2.52656 6.77586 2.54266 6.82617C2.55877 6.87648 2.59039 6.9204 2.633 6.95162C2.67562 6.98284 2.72702 6.99976 2.77985 6.99995H4.38086V14.0001H2.99988V15.0001H14.9999V14.0001H13.3848V6.99995H14.9189C14.9713 6.99995 15.0225 6.98345 15.065 6.95276C15.1076 6.92208 15.1394 6.87879 15.156 6.82901C15.1726 6.77923 15.1731 6.7255 15.1575 6.67541C15.1418 6.62533 15.1108 6.58144 15.0689 6.54995ZM12.3848 6.99995H11.3768V14.0001H12.3848V6.99995ZM10.3768 6.99995H9.38484V14.0001H10.3768V6.99995ZM8.38484 6.99995H7.38784V14.0001H8.38484V6.99995ZM6.38784 6.99995H5.38086V14.0001H6.38784V6.99995Z" fill="black"/>
</svg>
