<svg width="18" height="18" viewBox="0 0 18 18" fill="none" xmlns="http://www.w3.org/2000/svg">
  <defs>
    <radialGradient id="a" cx="0" cy="0" r="1" gradientUnits="userSpaceOnUse" gradientTransform="matrix(0 -16.2867 15.1516 0 5.149 18.482)">
      <stop stop-color="#FD5"/>
      <stop offset=".1" stop-color="#FD5"/>
      <stop offset=".5" stop-color="#FF543E"/>
      <stop offset="1" stop-color="#C837AB"/>
    </radialGradient>
    <radialGradient id="b" cx="0" cy="0" r="1" gradientUnits="userSpaceOnUse" gradientTransform="rotate(78.678 -2.185 -.219)scale(7.2803 30.0164)">
      <stop stop-color="#3771C8"/>
      <stop offset=".128" stop-color="#3771C8"/>
      <stop offset="1" stop-color="#60F" stop-opacity="0"/>
    </radialGradient>
  </defs>

  <path d="M9.004.783c-3.431 0-4.435.004-4.63.02-.704.058-1.143.169-1.62.406a3.3
    3.3 0 0 0-.944.692Q1.03 2.71.86 3.9c-.056.384-.072.462-.076 2.426v2.67c0
    3.428.004 4.431.02 4.625.057.686.165 1.117.392 1.589a3.46 3.46 0 0 0 2.245
    1.833c.338.087.712.135 1.192.158.204.008 2.278.016 4.355.016 2.076 0
    4.15-.003 4.35-.014.555-.026.88-.07 1.236-.162a3.44 3.44 0 0 0
    2.244-1.837c.223-.46.336-.907.387-1.557.011-.14.016-2.399.016-4.653
    0-2.255-.005-4.508-.016-4.65-.052-.66-.165-1.103-.396-1.573a3.3 3.3 0 0
    0-.703-.963q-.814-.78-2-.95c-.384-.055-.462-.072-2.426-.075z"
    fill="url(#a)"/>
  <path d="M9.004.783c-3.431 0-4.435.004-4.63.02-.704.058-1.143.169-1.62.406a3.3
    3.3 0 0 0-.944.692Q1.03 2.71.86 3.9c-.056.384-.072.462-.076 2.426v2.67c0
    3.428.004 4.431.02 4.625.057.686.165 1.117.392 1.589a3.46 3.46 0 0 0 2.245
    1.833c.338.087.712.135 1.192.158.204.008 2.278.016 4.355.016 2.076 0
    4.15-.003 4.35-.014.555-.026.88-.07 1.236-.162a3.44 3.44 0 0 0
    2.244-1.837c.223-.46.336-.907.387-1.557.011-.14.016-2.399.016-4.653
    0-2.255-.005-4.508-.016-4.65-.052-.66-.165-1.103-.396-1.573a3.3 3.3 0 0
    0-.703-.963q-.814-.78-2-.95c-.384-.055-.462-.072-2.426-.075z"
    fill="url(#b)"/>
  <path d="M9 2.932c-1.647 0-1.855.007-2.502.036-.646.03-1.086.133-1.472.282a3
    3 0 0 0-1.075.7c-.31.303-.548.67-.7 1.075-.151.386-.254.827-.283 1.473S2.932
    7.352 2.932 9s.007 1.855.036 2.501c.03.647.133 1.088.282
    1.473.153.405.392.772.7 1.075a2.95 2.95 0 0 0 1.075.7c.386.151.827.253
    1.473.283s.853.036 2.501.036 1.855-.008 2.502-.036c.646-.03 1.088-.132
    1.474-.282a3 3 0 0 0
    1.074-.7c.337-.338.545-.677.7-1.076.149-.386.252-.826.282-1.472.03-.647.037-.854.037-2.502s-.008-1.855-.037-2.502c-.03-.646-.133-1.087-.282-1.473a3
    3 0 0 0-.7-1.075 3 3 0 0
    0-1.075-.7c-.386-.15-.828-.252-1.474-.282-.647-.03-.853-.036-2.502-.036zm-.544
    1.094h.545c1.62 0 1.812.005 2.452.034.591.028.912.126
    1.127.21.282.109.484.24.696.453.213.212.345.415.454.698.084.214.182.535.209
    1.127.03.639.036.831.036 2.45s-.006 1.812-.036 2.452c-.027.591-.125.913-.209
    1.127a1.9 1.9 0 0 1-.454.696 1.9 1.9 0 0
    1-.696.454c-.215.084-.536.182-1.127.21-.64.029-.832.035-2.452.035s-1.813-.006-2.453-.035c-.592-.028-.912-.127-1.127-.21a1.9
    1.9 0 0 1-.697-.454 1.9 1.9 0 0
    1-.454-.697c-.083-.214-.182-.535-.209-1.126-.029-.64-.035-.832-.035-2.453s.006-1.812.035-2.451c.027-.592.125-.913.209-1.127.11-.283.242-.485.454-.698s.415-.344.698-.453c.214-.084.534-.183
    1.127-.21.56-.025.776-.033 1.907-.034zm3.783 1.007a.728.728 0 1 0 0
    1.457.728.728 0 0 0 0-1.457m-3.238.85a3.116 3.116 0 1 0 0 6.233 3.116 3.116
    0 0 0 0-6.232m0 1.094a2.023 2.023 0 1 1 0 4.046 2.023 2.023 0 0 1 0-4.046"
    fill="#fff"/>
</svg>
