<svg width="18" height="18" viewBox="0 0 18 18" fill="none" xmlns="http://www.w3.org/2000/svg">
<path d="M17 12.581C17 13.9143 15.8851 15 14.5159 15H2C1.44771 15 1 14.5523 1 14V5.41905C1 4.08571 2.11491 3 3.48411 3H16C16.5523 3 17 3.44772 17 4V12.581Z" fill="white"/>
<path d="M12.5991 10.3101H13.626C13.6554 10.3101 13.7238 10.3003 13.7532 10.3003C13.9488 10.2612 14.115 10.0853 14.115 9.841C14.115 9.60645 13.9488 9.43054 13.7532 9.38168C13.7238 9.3719 13.6651 9.3719 13.626 9.3719H12.5991V10.3101Z" fill="url(#paint0_linear_17516_1515)"/>
<path d="M13.5085 3.67001C12.5305 3.67001 11.7285 4.46161 11.7285 5.44867V7.29574H14.242C14.3007 7.29574 14.3691 7.29574 14.418 7.30551C14.9853 7.33483 15.4058 7.62802 15.4058 8.13621C15.4058 8.53689 15.1222 8.87894 14.5941 8.94735V8.9669C15.1711 9.00599 15.6112 9.3285 15.6112 9.82691C15.6112 10.3644 15.1222 10.7162 14.4767 10.7162H11.7188V14.3322H14.33C15.308 14.3322 16.1099 13.5406 16.1099 12.5535V3.67001H13.5085Z" fill="url(#paint1_linear_17516_1515)"/>
<path d="M13.9879 8.41417C13.9879 8.17962 13.8216 8.02325 13.626 7.99393C13.6065 7.99393 13.5576 7.98416 13.5282 7.98416H12.5991V8.84417H13.5282C13.5576 8.84417 13.6162 8.84417 13.626 8.8344C13.8216 8.80508 13.9879 8.64872 13.9879 8.41417Z" fill="url(#paint2_linear_17516_1515)"/>
<path d="M3.6701 3.67C2.69211 3.67 1.89015 4.4616 1.89015 5.44866V9.83668C2.38893 10.081 2.90727 10.2374 3.4256 10.2374C4.04174 10.2374 4.37426 9.86599 4.37426 9.35781V7.28596H5.89993V9.34803C5.89993 10.1494 5.40115 10.8042 3.70922 10.8042C2.68233 10.8042 1.88037 10.5794 1.88037 10.5794V14.3224H4.49162C5.46961 14.3224 6.27157 13.5308 6.27157 12.5438V3.67H3.6701Z" fill="url(#paint3_linear_17516_1515)"/>
<path d="M8.58903 3.67C7.61104 3.67 6.80908 4.4616 6.80908 5.44866V7.7746C7.25896 7.39346 8.04136 7.14914 9.30297 7.20778C9.97779 7.23709 10.7015 7.42278 10.7015 7.42278V8.17529C10.3396 7.9896 9.90933 7.82347 9.35187 7.78437C8.39343 7.71596 7.81642 8.18506 7.81642 9.00598C7.81642 9.83668 8.39343 10.3058 9.35187 10.2276C9.90933 10.1885 10.3396 10.0126 10.7015 9.83668V10.5892C10.7015 10.5892 9.98757 10.7749 9.30297 10.8042C8.04136 10.8628 7.25896 10.6185 6.80908 10.2374V14.342H9.42033C10.3983 14.342 11.2003 13.5504 11.2003 12.5633V3.67H8.58903Z" fill="url(#paint4_linear_17516_1515)"/>
<defs>
<linearGradient id="paint0_linear_17516_1515" x1="11.7271" y1="9.84217" x2="16.1219" y2="9.84217" gradientUnits="userSpaceOnUse">
<stop stop-color="#007940"/>
<stop offset="0.2285" stop-color="#00873F"/>
<stop offset="0.7433" stop-color="#40A737"/>
<stop offset="1" stop-color="#5CB531"/>
</linearGradient>
<linearGradient id="paint1_linear_17516_1515" x1="11.7268" y1="8.99684" x2="16.122" y2="8.99684" gradientUnits="userSpaceOnUse">
<stop stop-color="#007940"/>
<stop offset="0.2285" stop-color="#00873F"/>
<stop offset="0.7433" stop-color="#40A737"/>
<stop offset="1" stop-color="#5CB531"/>
</linearGradient>
<linearGradient id="paint2_linear_17516_1515" x1="11.727" y1="8.41294" x2="16.122" y2="8.41294" gradientUnits="userSpaceOnUse">
<stop stop-color="#007940"/>
<stop offset="0.2285" stop-color="#00873F"/>
<stop offset="0.7433" stop-color="#40A737"/>
<stop offset="1" stop-color="#5CB531"/>
</linearGradient>
<linearGradient id="paint3_linear_17516_1515" x1="1.88808" y1="8.99683" x2="6.35097" y2="8.99683" gradientUnits="userSpaceOnUse">
<stop stop-color="#1F286F"/>
<stop offset="0.4751" stop-color="#004E94"/>
<stop offset="0.8261" stop-color="#0066B1"/>
<stop offset="1" stop-color="#006FBC"/>
</linearGradient>
<linearGradient id="paint4_linear_17516_1515" x1="6.7838" y1="8.99683" x2="11.1183" y2="8.99683" gradientUnits="userSpaceOnUse">
<stop stop-color="#6C2C2F"/>
<stop offset="0.1735" stop-color="#882730"/>
<stop offset="0.5731" stop-color="#BE1833"/>
<stop offset="0.8585" stop-color="#DC0436"/>
<stop offset="1" stop-color="#E60039"/>
</linearGradient>
</defs>
</svg>
