<svg width="18" height="18" viewBox="0 0 18 18" fill="none" xmlns="http://www.w3.org/2000/svg">
<circle cx="9" cy="9" r="9" fill="white"/>
<g clip-path="url(#clip0_21903_4110)">
<path d="M4.428 13.229V6.847H6.549V13.229H4.428ZM5.489 5.976H5.475C4.763 5.976 4.303 5.486 4.303 4.874C4.303 4.248 4.777 3.771 5.503 3.771C6.229 3.771 6.675 4.247 6.689 4.874C6.689 5.486 6.229 5.976 5.489 5.976ZM14.197 13.229H12.076V9.815C12.076 8.957 11.769 8.372 11.002 8.372C10.416 8.372 10.067 8.767 9.914 9.148C9.858 9.284 9.844 9.475 9.844 9.665V13.228H7.723C7.723 13.228 7.751 7.445 7.723 6.847H9.844V7.751C10.126 7.316 10.629 6.697 11.756 6.697C13.152 6.697 14.198 7.609 14.198 9.569V13.228L14.197 13.229Z" fill="black"/>
</g>
<defs>
<clipPath id="clip0_21903_4110">
<rect width="18" height="18" fill="white"/>
</clipPath>
</defs>
</svg>
