<svg width="18" height="18" viewBox="0 0 18 18" fill="none" xmlns="http://www.w3.org/2000/svg">
<g clip-path="url(#clip0_730_10843)">
<path d="M9 1.5C13.1425 1.5 16.5 4.85748 16.5 9C16.5 13.1425 13.1425 16.5 9 16.5C4.85748 16.5 1.5 13.1425 1.5 9C1.5 4.85748 4.85748 1.5 9 1.5Z" stroke="black"/>
</g>
<path d="M4.66678 7.28989V12.9628H6.55211V7.28989H4.66678Z" fill="black"/>
<path d="M5.59744 6.51566H5.60989C6.26766 6.51566 6.67655 6.08011 6.67655 5.53611C6.66411 4.97878 6.26766 4.55566 5.62233 4.55566C4.977 4.55566 4.55566 4.97966 4.55566 5.53611C4.55566 6.08011 4.96455 6.51566 5.59744 6.51566Z" fill="black"/>
<path d="M11.465 12.9628H13.3503L13.3512 12.9619V9.70944C13.3512 7.96722 12.4214 7.15655 11.1806 7.15655C10.1788 7.15655 9.73166 7.70678 9.481 8.09344V7.28989H7.59566C7.62055 7.82144 7.59566 12.9619 7.59566 12.9619H9.481V9.79478C9.481 9.62589 9.49344 9.45611 9.54322 9.33522C9.67922 8.99655 9.98944 8.64544 10.5103 8.64544C11.1921 8.64544 11.465 9.16544 11.465 9.92811V12.9628Z" fill="black"/>
<defs>
<clipPath id="clip0_730_10843">
<rect width="16" height="16" fill="white" transform="translate(1 1)"/>
</clipPath>
</defs>
</svg>
