<?xml version="1.0" encoding="UTF-8"?>
<svg id="Layer_1" xmlns="http://www.w3.org/2000/svg" version="1.1" viewBox="0 0 18 18">
  <!-- Generator: Adobe Illustrator 29.6.1, SVG Export Plug-In . SVG Version: 2.1.1 Build 9)  -->
  <path d="M9,0C4.029,0,0,4.029,0,9s4.029,9,9,9,9-4.029,9-9S13.971,0,9,0ZM4.428,13.229v-6.382h2.121v6.382h-2.121ZM5.489,5.976h0s-.014,0-.014,0c-.712,0-1.172-.49-1.172-1.102,0-.626.474-1.103,1.2-1.103s1.172.476,1.186,1.103c0,.612-.46,1.102-1.2,1.102ZM14.197,13.229h-2.121v-3.414c0-.858-.307-1.443-1.074-1.443-.586,0-.935.395-1.088.776-.056.136-.07.327-.07.517v3.563h-2.121s.028-5.783,0-6.381h2.121v.904c.282-.435.785-1.054,1.912-1.054,1.396,0,2.442.912,2.442,2.872v3.659Z"/>
</svg>