<svg width="18" height="18" viewBox="0 0 18 18" xmlns="http://www.w3.org/2000/svg">
<circle cx="9" cy="9" r="7.5" stroke="black" fill="none"/>
<path d="M4.81131 7.43417V13.1071H6.69664V7.43417H4.81131Z" fill="black"/>
<path d="M5.74197 6.65995H5.75442C6.41219 6.65995 6.82108 6.2244 6.82108 5.6804C6.80864 5.12306 6.41219 4.69995 5.76686 4.69995C5.12153 4.69995 4.7002 5.12395 4.7002 5.6804C4.7002 6.2244 5.10908 6.65995 5.74197 6.65995Z" fill="black"/>
<path d="M11.6095 13.1071H13.4949L13.4958 13.1062V9.85373C13.4958 8.11151 12.566 7.30084 11.3251 7.30084C10.3233 7.30084 9.87619 7.85106 9.62553 8.23773V7.43417H7.7402C7.76508 7.96573 7.7402 13.1062 7.7402 13.1062H9.62553V9.93906C9.62553 9.77017 9.63797 9.6004 9.68775 9.47951C9.82375 9.14084 10.134 8.78973 10.6549 8.78973C11.3366 8.78973 11.6095 9.30973 11.6095 10.0724V13.1071Z" fill="black"/>
</svg>
