<svg width="18" height="18" viewBox="0 0 18 18" fill="none" xmlns="http://www.w3.org/2000/svg">
<path d="M14.6161 3.38406C15.9409 4.70859 15.9409 6.86469 14.6161 8.1892L13.069 9.7365C13.1096 9.07777 13.0078 8.41185 12.7629 7.78917L13.4894 7.06251C13.7541 6.79777 13.9192 6.47063 13.9847 6.12805C14.0934 5.56009 13.9282 4.94968 13.4894 4.51078C12.7859 3.80714 11.6412 3.80716 10.9377 4.51078L8.17873 7.26964C7.4751 7.97312 7.47517 9.11784 8.17881 9.82141C8.34543 9.98795 8.53701 10.1143 8.74135 10.2014L7.57031 11.3727C7.38706 11.2507 7.21311 11.1095 7.05185 10.9481C5.72703 9.62357 5.72704 7.46746 7.05187 6.14293L9.81078 3.38404C11.1354 2.05907 13.2914 2.05909 14.6161 3.38406Z" fill="black"/>
<path d="M9.82134 8.17856C9.65457 8.01186 9.46299 7.88563 9.25873 7.79856L10.4298 6.62732C10.6131 6.74926 10.787 6.89053 10.9481 7.05187C12.2728 8.3764 12.2729 10.5324 10.9481 11.8571L8.18937 14.6159C6.86471 15.9408 4.70859 15.9407 3.38405 14.6159C2.05908 13.2913 2.0591 11.1353 3.38408 9.81061L4.93103 8.26347C4.89034 8.92227 4.9922 9.58827 5.2373 10.2109L4.51065 10.9375C3.80701 11.6411 3.80701 12.7855 4.51065 13.4892C5.21428 14.1928 6.35874 14.1928 7.06237 13.4892L9.82142 10.7303C10.5251 10.0267 10.525 8.8822 9.82134 8.17856Z" fill="black"/>
</svg>
