<svg width="18" height="18" viewBox="0 0 18 18" fill="none" xmlns="http://www.w3.org/2000/svg">
<path d="M5.45 8.00001L5.454 4.93301C5.711 3.02601 6.946 2.02301 9 2.02301C11.058 2.02301 12.278 3.03101 12.5 5.00001V8.00001H13C13.2652 8.00001 13.5196 8.10537 13.7071 8.2929C13.8946 8.48044 14 8.73479 14 9.00001V15C14 15.2652 13.8946 15.5196 13.7071 15.7071C13.5196 15.8947 13.2652 16 13 16H5C4.73478 16 4.48043 15.8947 4.29289 15.7071C4.10536 15.5196 4 15.2652 4 15V9.00001C4 8.73479 4.10536 8.48044 4.29289 8.2929C4.48043 8.10537 4.73478 8.00001 5 8.00001H5.45ZM6.45 8.00001H11.5L11.503 5.05701C11.344 3.66701 10.565 3.02301 9 3.02301C7.432 3.02301 6.633 3.67101 6.45 5.00001V8.00001ZM5 9.00001V15H13V9.00001H5ZM8.5 11.046C8.5 10.9134 8.55268 10.7862 8.64645 10.6925C8.74021 10.5987 8.86739 10.546 9 10.546C9.13261 10.546 9.25979 10.5987 9.35355 10.6925C9.44732 10.7862 9.5 10.9134 9.5 11.046V13C9.5 13.1326 9.44732 13.2598 9.35355 13.3536C9.25979 13.4473 9.13261 13.5 9 13.5C8.86739 13.5 8.74021 13.4473 8.64645 13.3536C8.55268 13.2598 8.5 13.1326 8.5 13V11.046Z" fill="black"/>
</svg>
