<svg width="18" height="18" viewBox="0 0 18 18" fill="none" xmlns="http://www.w3.org/2000/svg">
<path d="M7.00001 2.81297V3.87497C5.8068 4.34236 4.81415 5.21159 4.19337 6.33268C3.57259 7.45378 3.36261 8.7564 3.59967 10.0158C3.83673 11.2751 4.50595 12.4123 5.49186 13.2309C6.47777 14.0496 7.71853 14.4984 9.00001 14.5C10.2829 14.5009 11.5257 14.0533 12.5134 13.2348C13.5012 12.4162 14.1717 11.2781 14.409 10.0174C14.6463 8.75669 14.4355 7.45269 13.8129 6.33101C13.1904 5.20933 12.1954 4.34055 11 3.87497V2.81297C12.4733 3.28942 13.7282 4.27618 14.5386 5.5956C15.3491 6.91503 15.6619 8.48043 15.4207 10.01C15.1795 11.5395 14.4002 12.9328 13.2231 13.9388C12.046 14.9448 10.5485 15.4976 9.00001 15.4976C7.45157 15.4976 5.95398 14.9448 4.77688 13.9388C3.59978 12.9328 2.8205 11.5395 2.57933 10.01C2.33817 8.48043 2.65096 6.91503 3.4614 5.5956C4.27184 4.27618 5.52669 3.28942 7.00001 2.81297ZM8.50001 0.999969H9.50001V9.19997H8.50001V0.999969Z" fill="black"/>
</svg>
