<svg width="18" height="18" viewBox="0 0 18 18" fill="none" xmlns="http://www.w3.org/2000/svg">
<g clip-path="url(#clip0_840_11133)">
<path fill-rule="evenodd" clip-rule="evenodd" d="M11.6886 3.77776C12.0732 3.80191 12.4517 3.88944 12.8087 4.0373C13.2333 4.21319 13.6192 4.471 13.9442 4.796C14.2692 5.12101 14.527 5.50685 14.7029 5.93149C14.8788 6.35613 14.9693 6.81125 14.9693 7.27088C14.9693 7.7305 14.8788 8.18563 14.7029 8.61027C14.527 9.03491 14.2692 9.42075 13.9442 9.74575C13.6192 10.0708 13.2333 10.3286 12.8087 10.5045C12.3841 10.6803 11.9289 10.7709 11.4693 10.7709C10.541 10.7709 9.6508 10.4021 8.99442 9.74575C8.3949 9.14622 8.03533 8.35159 7.97754 7.51109C7.97639 7.49437 7.97536 7.47763 7.97445 7.46087L6.9851 7.64769C6.99919 7.81535 7.02272 7.98264 7.05576 8.14878C7.1923 8.83522 7.4865 9.47769 7.912 10.0269L2.0293 15.8309L2.9093 16.7109L8.80307 10.896C9.33201 11.285 9.94203 11.5552 10.5914 11.6844C11.4643 11.858 12.3691 11.7689 13.1914 11.4283C14.0136 11.0877 14.7164 10.511 15.2109 9.77094C15.7054 9.03092 15.9693 8.16089 15.9693 7.27088C15.9706 6.67956 15.8551 6.0938 15.6294 5.54724C15.4038 5.00068 15.0723 4.50408 14.6542 4.08596C14.2361 3.66783 13.7395 3.33641 13.1929 3.11073C12.8228 2.95792 12.4348 2.85562 12.0392 2.80591L11.6886 3.77776Z" fill="black"/>
<path d="M7.30613 -0.0151224C7.27785 -0.156567 7.07562 -0.156567 7.04733 -0.0151224C6.77569 1.3431 5.71401 2.40478 4.35578 2.67643C4.21434 2.70472 4.21434 2.90694 4.35578 2.93523C5.71401 3.20687 6.77569 4.26855 7.04733 5.62678C7.07562 5.76822 7.27785 5.76822 7.30613 5.62678C7.57778 4.26855 8.63946 3.20687 9.99768 2.93523C10.1391 2.90694 10.1391 2.70472 9.99768 2.67643C8.63946 2.40478 7.57778 1.3431 7.30613 -0.0151224Z" fill="black"/>
</g>
<defs>
<clipPath id="clip0_840_11133">
<rect width="18" height="18" fill="white"/>
</clipPath>
</defs>
</svg>
