<svg width="18" height="18" viewBox="0 0 18 18" fill="none" xmlns="http://www.w3.org/2000/svg">
<path d="M15.4596 10.8697L15.2197 10.229C15.2197 10.229 16.2192 8.79681 13.7405 8.30684C13.7405 8.30684 13.9004 6.53542 13.0208 5.70624C14.9399 3.93482 14.5001 1.25885 10.1423 2.99258C7.90342 -1.04023 -0.732202 8.41991 2.86597 9.9275C2.50616 10.3798 2.50616 12.6412 4.9849 12.8673C6.66405 16.2594 10.742 16.4855 13.1008 15.4679C15.4596 14.4503 16.8189 11.209 15.4596 10.8697ZM4.94492 12.3773C2.90595 12.1889 2.70606 9.5506 4.46516 9.28678C6.22427 9.02295 6.66405 12.5281 4.94492 12.3773ZM4.34523 8.79681C3.78551 8.79681 3.10585 9.51291 3.10585 9.51291C0.387231 8.26915 8.02336 0.0150833 9.66253 3.21872C9.66253 3.21872 5.66456 5.02783 4.34523 8.79681ZM12.3412 12.0004C12.3412 11.8497 11.5016 12.2266 9.98237 11.7366C10.1023 10.9451 11.9014 12.415 14.8999 10.4928L15.1398 11.2843C16.2592 11.0959 15.1398 14.6764 11.5416 14.6387C8.62306 14.601 7.70352 11.7743 9.30271 10.229C9.62255 9.9275 8.1433 9.32447 8.42316 8.00532C8.5431 7.43997 9.06283 6.6108 10.3822 6.83694C11.7015 7.06308 11.9814 5.93238 12.8609 6.34697C13.7405 6.76156 13.2207 8.34453 13.3407 8.57067C13.4606 8.79681 14.74 8.8345 14.9798 9.47522C15.2197 10.116 13.3407 11.5105 10.4221 11.1336C9.74249 11.0582 9.34269 11.8874 9.78247 12.415C10.662 13.6211 14.2602 12.8296 14.8599 11.6612C13.3407 12.7542 10.2222 13.1688 9.98237 12.0004C10.8619 12.3773 12.3412 12.1512 12.3412 12.0004ZM7.10383 6.04545C7.98338 5.02783 9.14279 4.42479 9.14279 4.42479L8.90292 4.99014C8.90292 4.99014 9.74249 4.3871 10.662 4.3871L10.3422 4.68862C11.3817 4.72631 11.8214 5.10321 11.8214 5.10321C11.8214 5.10321 9.38267 4.42479 7.10383 6.04545ZM12.5011 7.51535C13.0208 7.47766 12.8609 8.60836 12.8609 8.60836H12.5411C12.5411 8.60836 11.9814 7.55304 12.5011 7.51535ZM10.1423 8.75912C9.78247 8.79681 9.38267 8.98526 9.42265 8.8345C9.58257 8.23146 11.0618 8.38222 11.0218 8.90988C10.9819 9.43753 10.662 8.68374 10.1423 8.75912ZM10.9819 9.2114C11.0218 9.28678 10.702 9.2114 10.4621 9.24909C10.2222 9.28678 9.98237 9.39984 9.98237 9.32447C9.98237 9.24909 10.9019 8.90988 10.9819 9.2114ZM11.7815 9.32447C11.9014 9.09833 12.3812 9.32447 12.2612 9.5506C12.1413 9.77674 11.6615 9.5506 11.7815 9.32447ZM12.7809 9.39984C12.5411 9.39984 12.5411 8.90988 12.7809 8.90988C13.0208 8.90988 13.0208 9.43753 12.7809 9.43753V9.39984ZM5.5846 11.3974C5.70454 11.5105 5.34472 11.7366 5.06486 11.5482C4.785 11.3597 5.3847 10.4552 4.66506 10.229C3.94543 10.0029 4.14533 10.8697 3.94543 10.7567C3.74553 10.6436 4.22529 9.43753 5.06486 9.9275C5.90443 10.4175 4.82498 11.1713 5.30474 11.3974C5.7845 11.6235 5.50464 11.322 5.5846 11.3974Z" fill="#222222"/>
</svg>
