<svg width="18" height="18" viewBox="0 0 18 18" fill="none" xmlns="http://www.w3.org/2000/svg">
<g clip-path="url(#clip0_6762_1234)">
<path d="M16.4998 3.30002H1.4998C0.837063 3.30002 0.299805 3.83728 0.299805 4.50002V13.5C0.299805 14.1628 0.837063 14.7 1.4998 14.7H16.4998C17.1625 14.7 17.6998 14.1628 17.6998 13.5V4.50002C17.6998 3.83728 17.1625 3.30002 16.4998 3.30002Z" fill="#EFEFEF" stroke="#E7E7E7" stroke-width="0.666667"/>
<path d="M11.3994 11.9999C13.0563 11.9999 14.3994 10.6568 14.3994 8.99991C14.3994 7.34305 13.0563 5.99991 11.3994 5.99991C9.74256 5.99991 8.39941 7.34305 8.39941 8.99991C8.39941 10.6568 9.74256 11.9999 11.3994 11.9999Z" fill="#FFB44F"/>
<path d="M6.59961 12C8.25646 12 9.59961 10.6568 9.59961 8.99997C9.59961 7.34312 8.25646 5.99997 6.59961 5.99997C4.94276 5.99997 3.59961 7.34312 3.59961 8.99997C3.59961 10.6568 4.94276 12 6.59961 12Z" fill="#CE4747"/>
<path fill-rule="evenodd" clip-rule="evenodd" d="M8.99942 10.7999C8.60905 10.2811 8.39842 9.64916 8.39942 8.99989C8.39942 8.32429 8.62262 7.70149 8.99942 7.19989C9.37622 7.70149 9.59942 8.32429 9.59942 8.99989C9.60042 9.64916 9.38978 10.2811 8.99942 10.7999Z" fill="#D6765F"/>
</g>
<defs>
<clipPath id="clip0_6762_1234">
<rect width="18" height="18" fill="white"/>
</clipPath>
</defs>
</svg>
