<svg width="18" height="18" viewBox="0 0 18 18" fill="none" xmlns="http://www.w3.org/2000/svg">
<g clip-path="url(#clip0_17510_2269)">
<rect x="1" y="3" width="16" height="12" rx="1" fill="#F7F7F7"/>
<path d="M10.6233 6.0815H7.37939V11.8198H10.6233V6.0815Z" fill="#FF5F00"/>
<path d="M7.58545 8.95064C7.58545 7.83542 8.11065 6.7709 8.99627 6.0815C7.38979 4.83448 5.05215 5.10822 3.7855 6.69993C2.52915 8.28151 2.80719 10.5728 4.42397 11.8198C5.77301 12.864 7.65754 12.864 9.00657 11.8198C8.11065 11.1304 7.58545 10.0659 7.58545 8.95064Z" fill="#EB001B"/>
<path d="M14.9998 8.95064C14.9998 10.9682 13.3418 12.6004 11.2925 12.6004C10.4584 12.6004 9.65512 12.3267 9.00635 11.8198C10.6128 10.5728 10.8909 8.28151 9.62423 6.6898C9.43886 6.46675 9.2329 6.25385 9.00635 6.0815C10.6128 4.83448 12.9505 5.10822 14.2068 6.69993C14.7217 7.33865 14.9998 8.12944 14.9998 8.95064Z" fill="#F79E1B"/>
</g>
<defs>
<clipPath id="clip0_17510_2269">
<rect x="1" y="3" width="16" height="12" rx="1" fill="white"/>
</clipPath>
</defs>
</svg>
