<?xml version="1.0" encoding="utf-8"?>
<!-- Generator: Adobe Illustrator 27.5.0, SVG Export Plug-In . SVG Version: 6.00 Build 0)  -->
<svg version="1.1" id="Layer_1" xmlns="http://www.w3.org/2000/svg" xmlns:xlink="http://www.w3.org/1999/xlink" x="0px" y="0px"
	 viewBox="0 0 18 18" style="enable-background:new 0 0 18 18;" xml:space="preserve">
<style type="text/css">
	.st0{fill:#BCBEC0;}
	.st1{fill:#BB392D;}
	.st2{fill:#E2B929;}
	.st3{fill:#DA6722;}
</style>
<g>
	<path class="st0" d="M17,15H1c-0.6,0-1-0.4-1-1V4c0-0.6,0.4-1,1-1h16c0.6,0,1,0.4,1,1v10C18,14.6,17.6,15,17,15z"/>
	<path class="st1" d="M8,9c0-0.9,0.4-1.7,1-2.2C8.5,6.3,7.8,6,7,6C5.3,6,4,7.3,4,9s1.3,3,3,3c0.8,0,1.5-0.3,2-0.8
		C8.4,10.7,8,9.9,8,9z"/>
	<path class="st2" d="M11,6c-0.8,0-1.5,0.3-2,0.8c0.6,0.5,1,1.3,1,2.2s-0.4,1.7-1,2.2c0.5,0.5,1.2,0.8,2,0.8c1.7,0,3-1.3,3-3
		S12.7,6,11,6z"/>
	<path class="st3" d="M10,9c0-0.9-0.4-1.7-1-2.2C8.4,7.3,8,8.1,8,9s0.4,1.7,1,2.2C9.6,10.7,10,9.9,10,9z"/>
</g>
</svg>
