<?xml version="1.0" encoding="utf-8"?>
<!-- Generator: Adobe Illustrator 27.5.0, SVG Export Plug-In . SVG Version: 6.00 Build 0)  -->
<svg version="1.1" id="Layer_1" xmlns="http://www.w3.org/2000/svg" xmlns:xlink="http://www.w3.org/1999/xlink" x="0px" y="0px"
	 viewBox="0 0 18 18" style="enable-background:new 0 0 18 18;" xml:space="preserve">
<path d="M9,17c4.4,0,8-3.6,8-8c0-4.4-3.6-8-8-8C4.6,1,1,4.6,1,9C1,13.4,4.6,17,9,17z M9,13.8c-0.2,0-0.4-0.2-0.4-0.4v-0.6
	c-1.1-0.1-2-0.7-2.3-1.7c0-0.1,0-0.2,0-0.3c0-0.3,0.2-0.5,0.5-0.5c0.3,0,0.5,0.1,0.6,0.5c0.1,0.5,0.5,0.9,1.2,1V9.4l0,0
	c-1.4-0.3-2.1-1-2.1-2.1c0-1.2,0.9-2,2.2-2.1V4.6c0-0.3,0.2-0.4,0.4-0.4c0.3,0,0.4,0.2,0.4,0.4v0.6c1.1,0.1,1.9,0.8,2.1,1.7
	c0,0.1,0,0.2,0,0.3c0,0.3-0.2,0.5-0.6,0.5c-0.3,0-0.5-0.2-0.6-0.5c-0.2-0.5-0.5-0.9-1.1-1v2.2l0.1,0c1.5,0.3,2.2,1,2.2,2.1
	c0,1.3-1,2.1-2.3,2.2v0.6C9.4,13.6,9.2,13.8,9,13.8z M8.5,8.3v-2c-0.7,0.1-1,0.5-1,1C7.5,7.7,7.8,8,8.5,8.3L8.5,8.3z M9.4,9.6v2.1
	c0.8-0.1,1.1-0.5,1.1-1.1C10.6,10.2,10.3,9.9,9.4,9.6L9.4,9.6z"/>
</svg>
