<svg width="18" height="18" viewBox="0 0 18 18" fill="none" xmlns="http://www.w3.org/2000/svg">
<path d="M17 10.7362L14.1435 12.8491L13.7486 9.32152L14.7956 9.78084C14.8353 9.52238 14.8568 9.26146 14.8599 9C14.8638 7.91185 14.5637 6.84425 13.9936 5.91749C13.4234 4.99073 12.6058 4.24164 11.6329 3.75462C10.66 3.2676 9.57037 3.06201 8.48691 3.16102C7.40344 3.26002 6.36915 3.65969 5.50057 4.31498L4.81171 3.39635C6.0178 2.48578 7.48888 1.99535 9 2.00003C10.8555 2.00246 12.6342 2.74074 13.9463 4.05296C15.2583 5.36518 15.9964 7.14424 15.9989 9C15.9959 9.41915 15.956 9.83723 15.8794 10.2493L17 10.7362ZM9 14.8609C7.44585 14.8609 5.95535 14.2434 4.8564 13.1443C3.75745 12.0451 3.14007 10.5544 3.14007 9C3.14323 8.73854 3.16471 8.47762 3.20436 8.21916L4.25144 8.67848L3.85649 5.15094L1 7.26379L2.12055 7.75066C2.04401 8.16277 2.00405 8.58085 2.00115 9C2.00358 10.8558 2.74174 12.6348 4.05375 13.947C5.36576 15.2593 7.14454 15.9975 9 16C10.5111 16.0047 11.9822 15.5142 13.1883 14.6036L12.4994 13.685C11.4916 14.4468 10.2632 14.8595 9 14.8609Z" fill="black"/>
<path d="M6.4043 10.0418C6.4043 11.3548 7.24776 12.1445 8.66357 12.2682V13.153H9.35641V12.2682C10.7019 12.1731 11.5956 11.4024 11.5956 10.3177C11.5956 9.26164 10.8023 8.77641 9.35641 8.4434V6.55003C9.85847 6.68324 10.23 7.08284 10.23 7.68225H11.4149C11.3948 6.50246 10.6216 5.76034 9.35641 5.64616V4.84695H8.66357V5.64616C7.37829 5.75082 6.51475 6.4644 6.51475 7.47293C6.51475 8.47195 7.28792 9.02378 8.66357 9.32824V11.3738C7.99081 11.2502 7.61928 10.7935 7.60924 10.0418H6.4043ZM10.3605 10.47C10.3605 10.9647 9.97897 11.3072 9.35641 11.3929V9.50902C10.0191 9.71833 10.3605 9.98474 10.3605 10.47ZM7.73978 7.35876C7.73978 6.89255 8.14142 6.59761 8.66357 6.51198V8.26263C8.05105 8.07234 7.73978 7.81545 7.73978 7.35876Z" fill="black"/>
</svg>
