<svg width="18" height="18" viewBox="0 0 18 18" fill="none" xmlns="http://www.w3.org/2000/svg">
<path fill-rule="evenodd" clip-rule="evenodd" d="M4 7.5C3.17157 7.5 2.5 8.17157 2.5 9C2.5 9.82843 3.17157 10.5 4 10.5C4.82843 10.5 5.5 9.82843 5.5 9C5.5 8.17157 4.82843 7.5 4 7.5ZM7.5 9C7.5 8.17157 8.17157 7.5 9 7.5C9.82843 7.5 10.5 8.17157 10.5 9C10.5 9.82843 9.82843 10.5 9 10.5C8.17157 10.5 7.5 9.82843 7.5 9ZM12.5 9C12.5 8.17157 13.1716 7.5 14 7.5C14.8284 7.5 15.5 8.17157 15.5 9C15.5 9.82843 14.8284 10.5 14 10.5C13.1716 10.5 12.5 9.82843 12.5 9Z" fill="black"/>
</svg>
