<svg width="18" height="18" viewBox="0 0 18 18" fill="none" xmlns="http://www.w3.org/2000/svg">
<path d="M7.70004 9C7.70004 8.26362 8.28262 7.66602 9.0005 7.66602C9.71822 7.66619 10.3 8.26373 10.3 9C10.2998 9.73612 9.71812 10.3328 9.0005 10.333C8.28273 10.333 7.70021 9.73623 7.70004 9Z" fill="black"/>
<path d="M7.70004 4.33398C7.70004 3.5976 8.28262 3 9.0005 3C9.71822 3.00018 10.3 3.59771 10.3 4.33398C10.2998 5.07011 9.71812 5.66682 9.0005 5.66699C8.28273 5.66699 7.70021 5.07021 7.70004 4.33398Z" fill="black"/>
<path d="M7.7 13.667C7.7 12.9306 8.28259 12.333 9.00046 12.333C9.71818 12.3332 10.3 12.9307 10.3 13.667C10.2998 14.4031 9.71808 14.9998 9.00046 15C8.28269 15 7.70017 14.4032 7.7 13.667Z" fill="black"/>
</svg>
