<svg width="18" height="18" viewBox="0 0 18 18" fill="none" xmlns="http://www.w3.org/2000/svg">
<path fill-rule="evenodd" clip-rule="evenodd" d="M11.685 12.1957L12.3774 13.1957H14V5.1957H6.8389L7.53119 6.19568H13V12.1957H11.685ZM10.4688 12.1957L11.1611 13.1957H4V5.1957H5.62264L6.31493 6.19568H5.00005V12.1957H10.4688ZM7.00724 7.19568H6.00005V11.1957H9.77647L7.00724 7.19568ZM8.2235 7.19568L10.9927 11.1957H12V7.19568H8.2235ZM4.62649 2L6.14659 4.1957H15V14.1957H13.0697L14.1957 15.8222L13.3735 16.3914L11.8534 14.1957H3V4.1957H4.93033L3.8043 2.56921L4.62649 2Z" fill="black"/>
</svg>
