<svg width="18" height="18" viewBox="0 0 18 18" fill="none" xmlns="http://www.w3.org/2000/svg">
<path fill-rule="evenodd" clip-rule="evenodd" d="M6.31496 12.1957L5.62264 13.1957H4V5.1957H11.1611L10.4688 6.19568H4.99995V12.1957H6.31496ZM7.53122 12.1957L6.8389 13.1957H14V5.1957H12.3774L11.6851 6.19568H13V12.1957H7.53122ZM10.9928 7.19568H12V11.1957H8.22353L10.9928 7.19568ZM9.7765 7.19568L7.00727 11.1957H5.99995V7.19568H9.7765ZM13.3735 2L11.8534 4.1957H3V14.1957H4.93033L3.8043 15.8222L4.62649 16.3914L6.14659 14.1957H15V4.1957H13.0697L14.1957 2.56921L13.3735 2Z" fill="black"/>
</svg>
