<svg width="18" height="18" viewBox="0 0 18 18" fill="none" xmlns="http://www.w3.org/2000/svg">
<path fill-rule="evenodd" clip-rule="evenodd" d="M6.31496 11L5.62264 12H4V4.00002H11.1611L10.4688 5H4.99995V11H6.31496ZM7.53122 11L6.8389 12H14V4.00002H12.3774L11.6851 5H13V11H7.53122ZM10.9928 6H12V10H8.22353L10.9928 6ZM9.7765 6L7.00727 10H5.99995V6H9.7765ZM13.3735 0.804321L11.8534 3.00002H3V13H4.93033L3.8043 14.6265L4.62649 15.1957L6.14659 13H15V3.00002H13.0697L14.1957 1.37353L13.3735 0.804321Z" fill="black"/>
</svg>
