<svg width="13" height="14" viewBox="0 0 13 14" fill="none" xmlns="http://www.w3.org/2000/svg">
<path d="M6.8291 12.854C5.25958 14.3886 2.73598 14.3825 1.1752 12.8326C-0.38513 11.2836 -0.391278 8.77711 1.1542 7.21853L1.1529 7.21763L6.83 1.58037L7.53999 0.875642C8.71581 -0.291881 10.6218 -0.291881 11.7976 0.875642C12.9734 2.04316 12.9734 3.93596 11.7976 5.10394L5.53956 11.2535L5.53736 11.2517C4.76615 11.9901 3.53694 11.9848 2.77492 11.232C2.0129 10.4788 2.0081 9.26445 2.75522 8.50328L2.75302 8.50063L3.44986 7.81299L6.58984 4.71166C6.78062 4.52324 7.08746 4.52332 7.27814 4.71184C7.47204 4.90356 7.47196 5.21675 7.27795 5.40836L3.44986 9.18917C3.0649 9.56887 3.0649 10.1852 3.44986 10.5653C3.83482 10.9454 4.45902 10.9454 4.84353 10.5653L11.0879 4.3983L11.0862 4.397L11.1098 4.37686C11.8937 3.59864 11.8937 2.33619 11.1098 1.55803C10.3259 0.779865 9.05562 0.779815 8.27171 1.55803L8.25072 1.58167L8.24942 1.58077L7.53989 2.28506L1.86244 7.92237C0.686615 9.08989 0.686615 10.9827 1.86244 12.1502C3.03826 13.3177 4.94465 13.3177 6.11957 12.1502L11.0871 7.21763L11.4445 6.86293C11.6394 6.66945 11.9539 6.66945 12.1489 6.86293C12.3458 7.05842 12.3459 7.3769 12.149 7.57245L11.7967 7.92237L6.83 12.8549L6.8291 12.854Z" fill="black"/>
</svg>
