<?xml version="1.0" encoding="utf-8"?>
<!-- Generator: Adobe Illustrator 27.4.1, SVG Export Plug-In . SVG Version: 6.00 Build 0)  -->
<svg version="1.1" id="Layer_1" xmlns="http://www.w3.org/2000/svg" xmlns:xlink="http://www.w3.org/1999/xlink" x="0px" y="0px"
	 viewBox="0 0 18 18" style="enable-background:new 0 0 18 18;" xml:space="preserve">
<style type="text/css">
	.st0{fill-rule:evenodd;clip-rule:evenodd;}
</style>
<path class="st0" d="M9,17c4.4,0,8-3.6,8-8c0-4.4-3.6-8-8-8C4.6,1,1,4.6,1,9C1,13.4,4.6,17,9,17z M8.7,5.6c0-0.5-0.4-0.9-0.9-0.9
	C7.4,4.7,7,5.1,7,5.6v4.3c0,0.3,0.2,0.7,0.5,0.8l3.4,1.4c0.4,0.2,0.9,0,1.1-0.5c0.2-0.4,0-0.9-0.5-1.1L8.7,9.3V5.6z"/>
</svg>
