<svg width="18" height="18" viewBox="0 0 18 18" fill="none" xmlns="http://www.w3.org/2000/svg">
<path d="M9 1C11.1216 1.00004 13.157 1.84261 14.6572 3.34277C16.1574 4.84304 16.9999 6.87835 17 9C17 11.1217 16.1575 13.1569 14.6572 14.6572C13.1569 16.1575 11.1217 17 9 17C6.87835 16.9999 4.84304 16.1574 3.34277 14.6572C1.8426 13.1569 1.00003 11.1216 1 9C1.00005 6.87829 1.84249 4.84305 3.34277 3.34277C4.84305 1.8425 6.8783 1.00005 9 1ZM9 1.92773C7.12424 1.92779 5.3254 2.67266 3.99902 3.99902C2.67265 5.3254 1.92779 7.12423 1.92773 9C1.92777 10.8758 2.67263 12.6756 3.99902 14.002C5.32536 15.3281 7.12443 16.0732 9 16.0732C10.8758 16.0732 12.6756 15.3283 14.002 14.002C15.3283 12.6756 16.0732 10.8758 16.0732 9C16.0732 7.12443 15.3281 5.32536 14.002 3.99902C12.6756 2.67264 10.8758 1.92777 9 1.92773ZM8.77246 9.41895L11.8525 10.959L11.4053 11.8525L7.77246 10.0361V4.86426H8.77246V9.41895Z" fill="black"/>
</svg>
