<svg width="18" height="18" viewBox="0 0 18 18" fill="none" xmlns="http://www.w3.org/2000/svg">
<g clip-path="url(#clip0_11146_22395)">
<path d="M16 2H2C1.73478 2 1.48043 2.10536 1.29289 2.29289C1.10536 2.48043 1 2.73478 1 3V15C1 15.2652 1.10536 15.5196 1.29289 15.7071C1.48043 15.8946 1.73478 16 2 16H16C16.2652 16 16.5196 15.8946 16.7071 15.7071C16.8946 15.5196 17 15.2652 17 15V3C17 2.73478 16.8946 2.48043 16.7071 2.29289C16.5196 2.10536 16.2652 2 16 2ZM2 15V3H16V15H2Z" fill="black"/>
<path d="M4.46094 7C4.75761 7 5.04762 6.91203 5.29429 6.74721C5.54097 6.58238 5.73323 6.34812 5.84676 6.07403C5.96029 5.79994 5.98999 5.49834 5.93212 5.20737C5.87424 4.91639 5.73138 4.64912 5.5216 4.43934C5.31182 4.22956 5.04454 4.0867 4.75357 4.02882C4.4626 3.97094 4.161 4.00065 3.88691 4.11418C3.61282 4.22771 3.37856 4.41997 3.21373 4.66665C3.04891 4.91332 2.96094 5.20333 2.96094 5.5C2.96094 5.89783 3.11897 6.27936 3.40028 6.56066C3.68158 6.84197 4.06311 7 4.46094 7ZM4.46094 4.7C4.61937 4.69901 4.77453 4.74509 4.90675 4.83239C5.03896 4.91969 5.14228 5.04428 5.2036 5.19037C5.26491 5.33647 5.28147 5.49747 5.25117 5.65299C5.22087 5.8085 5.14507 5.95151 5.03339 6.06389C4.92171 6.17628 4.77918 6.25297 4.62386 6.28424C4.46854 6.31552 4.30743 6.29997 4.16096 6.23957C4.01448 6.17917 3.88925 6.07664 3.80112 5.94497C3.71299 5.81331 3.66594 5.65844 3.66594 5.5C3.66725 5.28956 3.75143 5.08811 3.90024 4.9393C4.04904 4.79049 4.2505 4.70631 4.46094 4.705V4.7Z" fill="black"/>
<path d="M11.3909 7.68495L8.69094 10.3849L6.69094 8.38495C6.59726 8.29182 6.47053 8.23955 6.33844 8.23955C6.20635 8.23955 6.07962 8.29182 5.98594 8.38495L2.96094 11.4499V12.8649L6.35594 9.46995L8.00094 11.0899L6.12594 12.9649H7.50094L11.7259 8.73995L15.0009 11.9999V10.5899L12.0959 7.68495C12.0023 7.59182 11.8755 7.53955 11.7434 7.53955C11.6113 7.53955 11.4846 7.59182 11.3909 7.68495Z" fill="black"/>
</g>
<defs>
<clipPath id="clip0_11146_22395">
<rect width="18" height="18" fill="white"/>
</clipPath>
</defs>
</svg>
