<svg width="18" height="18" viewBox="0 0 18 18" fill="none" xmlns="http://www.w3.org/2000/svg">
<path fill-rule="evenodd" clip-rule="evenodd" d="M14.5487 6.21942L14.5463 6.21705L14.0326 6.90371L13.5403 7.55601L13.5444 7.55542L12.0485 9.55616C12.6588 10.8875 12.7502 12.4126 11.9211 13.2418C11.7738 13.3892 11.5028 13.3583 11.318 13.1731L9.49143 11.3466L9.49025 11.3478L8.8107 10.6682L8.81188 10.667L7.32777 9.18291L7.32659 9.18409L6.64881 8.50632L6.65 8.50395L4.82167 6.6768C4.63647 6.49148 4.60577 6.2217 4.75294 6.07486C5.58211 5.24583 7.10751 5.33622 8.43982 5.9463L11.5698 3.60668L12.3957 3L15.0078 5.61215L14.5487 6.21942ZM12.4531 4.12508L8.87113 6.803C8.76452 6.8825 8.60302 6.8916 8.44811 6.81248C7.52846 6.3421 6.45698 6.14728 5.73465 6.52217L11.4738 12.2613C11.8345 11.5669 11.6625 10.4333 11.1965 9.57274C11.1094 9.4215 11.1021 9.24603 11.193 9.12485L13.8715 5.54224L12.4531 4.12508Z" fill="black"/>
<path d="M3.70032 14.9851C3.35519 15.2337 2.93155 14.8124 3.16912 14.4689L7.16167 8.69505L7.70364 9.23135L4.99411 13.1487L8.88404 10.3994L9.42659 10.9363L3.70032 14.9851Z" fill="black"/>
</svg>
