<?xml version="1.0" encoding="utf-8"?>
<!-- Generator: Adobe Illustrator 27.5.0, SVG Export Plug-In . SVG Version: 6.00 Build 0)  -->
<svg version="1.1" id="Layer_1" xmlns="http://www.w3.org/2000/svg" xmlns:xlink="http://www.w3.org/1999/xlink" x="0px" y="0px"
	 viewBox="0 0 18 18" style="enable-background:new 0 0 18 18;" xml:space="preserve">
<path d="M9,1C4.6,1,1,4.6,1,9c0,3.3,2,6.1,4.8,7.3c0-0.6,0-1.2,0.1-1.8c0.2-0.6,1-4.4,1-4.4S6.7,9.6,6.7,8.9c0-1.2,0.7-2.1,1.5-2.1
	C9,6.8,9.3,7.3,9.3,8c0,0.7-0.5,1.8-0.7,2.8c-0.2,0.8,0.4,1.5,1.3,1.5c1.5,0,2.5-1.9,2.5-4.3c0-1.8-1.2-3.1-3.3-3.1
	c-2.4,0-3.9,1.8-3.9,3.8c0,0.7,0.2,1.2,0.5,1.6c0.1,0.2,0.2,0.2,0.1,0.4c0,0.1-0.1,0.5-0.2,0.6c-0.1,0.2-0.2,0.3-0.4,0.2
	c-1.1-0.5-1.6-1.7-1.6-3.1c0-2.3,1.9-5,5.7-5c3.1,0,5.1,2.2,5.1,4.6c0,3.1-1.7,5.5-4.3,5.5c-0.9,0-1.7-0.5-2-1c0,0-0.5,1.8-0.6,2.2
	c-0.2,0.6-0.5,1.2-0.8,1.7C7.5,16.9,8.2,17,9,17c4.4,0,8-3.6,8-8C17,4.6,13.4,1,9,1z"/>
</svg>
