<?xml version="1.0" encoding="UTF-8"?>
<svg id="Layer_1" xmlns="http://www.w3.org/2000/svg" version="1.1" viewBox="0 0 18 18">
  <!-- Generator: Adobe Illustrator 29.6.1, SVG Export Plug-In . SVG Version: 2.1.1 Build 9)  -->
  <defs>
    <style>
      .st0 {
        fill: #010101;
      }
    </style>
  </defs>
  <g id="pinterest">
    <path class="st0" d="M9.001,0C4.03,0,0,4.029,0,8.999c0,3.686,2.216,6.852,5.388,8.244-.027-.629-.006-1.383.155-2.066.174-.731,1.159-4.905,1.159-4.905,0,0-.287-.575-.287-1.423,0-1.334.773-2.33,1.735-2.33.82,0,1.214.615,1.214,1.351,0,.822-.524,2.054-.794,3.194-.225.955.479,1.734,1.42,1.734,1.706,0,2.854-2.191,2.854-4.785,0-1.972-1.329-3.449-3.745-3.449-2.731,0-4.43,2.036-4.43,4.31,0,.785.23,1.337.593,1.765.166.197.189.277.128.502-.043.166-.141.564-.183.722-.06.228-.244.309-.451.226-1.257-.514-1.842-1.89-1.842-3.438,0-2.557,2.156-5.622,6.431-5.622,3.437,0,5.699,2.486,5.699,5.155,0,3.531-1.964,6.169-4.857,6.169-.971,0-1.885-.526-2.198-1.123,0,0-.523,2.074-.633,2.474-.191.693-.565,1.388-.906,1.928.809.239,1.665.369,2.551.369,4.971,0,8.999-4.029,8.999-9.001,0-4.97-4.029-8.999-8.999-8.999Z"/>
  </g>
</svg>