<svg width="18" height="18" viewBox="0 0 18 18" fill="none" xmlns="http://www.w3.org/2000/svg">
<g clip-path="url(#clip0_6762_1260)">
<path d="M14.05 2V1.95H14H4H3.95V2V16V16.05H4H14H14.05V16V2ZM7.34353 3.47972V3.06112H7.60478V3.47972V3.52639L7.65134 3.5296C8.01582 3.55473 8.30043 3.67018 8.49365 3.86103C8.67698 4.04212 8.78281 4.29581 8.79267 4.61836H8.38541C8.37535 4.39053 8.29636 4.20906 8.17215 4.07505C8.03952 3.93196 7.85836 3.84621 7.66309 3.81329L7.60478 3.80347V3.8626V5.25126V5.28942L7.64159 5.29949C7.94615 5.38278 8.25539 5.47098 8.4892 5.62846C8.71903 5.78326 8.875 6.0043 8.875 6.3599C8.875 6.94185 8.39255 7.36845 7.65102 7.42439L7.60478 7.42788V7.47425V7.95H7.34353V7.47997V7.43337L7.29704 7.43009C6.90028 7.4021 6.58958 7.27799 6.37829 7.06805C6.17656 6.8676 6.06025 6.58376 6.05065 6.2156H6.48095C6.48854 6.4746 6.55586 6.68582 6.68544 6.8425C6.82364 7.00963 7.02743 7.10838 7.2873 7.14098L7.34353 7.14804V7.09137V5.63414V5.59598L7.30672 5.58591C7.00204 5.50259 6.70478 5.41729 6.48285 5.26437C6.26523 5.11443 6.11992 4.89932 6.11992 4.54836C6.11992 3.99521 6.5846 3.58549 7.29744 3.52956L7.34353 3.52595V3.47972ZM7.60478 7.09137V7.14814L7.6611 7.14097C7.89344 7.11138 8.08356 7.02792 8.21617 6.89941C8.34942 6.77026 8.42146 6.59852 8.42146 6.3999C8.42146 6.19192 8.33481 6.04098 8.19533 5.92814C8.05847 5.81742 7.87139 5.74376 7.66908 5.68338L7.60478 5.66418V5.73129V7.09137ZM7.34353 3.8626V3.80376L7.28546 3.81325C6.92704 3.87184 6.57346 4.09385 6.57346 4.49121C6.57346 4.6949 6.65161 4.84291 6.78178 4.95424C6.90931 5.06329 7.08502 5.13571 7.27863 5.19612L7.34353 5.21637V5.14839V3.8626ZM14.95 1.53125V16.4688C14.95 16.5961 14.8984 16.7184 14.8063 16.8087C14.7142 16.8991 14.589 16.95 14.4583 16.95H3.54167C3.41096 16.95 3.2858 16.8991 3.19366 16.8087C3.10156 16.7184 3.05 16.5961 3.05 16.4688V1.53125C3.05 1.40393 3.10156 1.28163 3.19366 1.1913C3.2858 1.10093 3.41096 1.05 3.54167 1.05H14.4583C14.589 1.05 14.7142 1.10093 14.8063 1.1913C14.8984 1.28163 14.95 1.40393 14.95 1.53125ZM6.05 10.05H11.95V10.95H6.05V10.05ZM6.05 13.05H10.95V13.95H6.05V13.05Z" fill="black" stroke="black" stroke-width="0.1"/>
</g>
<defs>
<clipPath id="clip0_6762_1260">
<rect width="18" height="18" fill="white"/>
</clipPath>
</defs>
</svg>
