<svg width="20" height="20" viewBox="0 0 20 20" fill="none" xmlns="http://www.w3.org/2000/svg">
<g clip-path="url(#clip0_6762_1260)">
<path d="M15.5557 2.22223H4.44461V17.7778H15.5557V2.22223ZM16.6668 1.66667V18.3333C16.6668 18.4807 16.6083 18.622 16.5041 18.7262C16.3999 18.8304 16.2586 18.8889 16.1113 18.8889H3.88905C3.74171 18.8889 3.6004 18.8304 3.49621 18.7262C3.39203 18.622 3.3335 18.4807 3.3335 18.3333V1.66667C3.3335 1.51933 3.39203 1.37802 3.49621 1.27383C3.6004 1.16965 3.74171 1.11111 3.88905 1.11111H16.1113C16.2586 1.11111 16.3999 1.16965 16.5041 1.27383C16.6083 1.37802 16.6668 1.51933 16.6668 1.66667ZM6.66683 11.1111H13.3335V12.2222H6.66683V11.1111ZM6.66683 14.4444H11.1113V15.5556H6.66683V14.4444Z" fill="black"/>
<path d="M6 6.2988C6 7.14143 6.49602 7.61355 7.32669 7.67331V8.21713H7.69721V7.66733C8.4741 7.60757 9 7.14741 9 6.50199C9 5.71912 8.31873 5.51594 7.69721 5.34263V3.89044C8.07968 3.95618 8.39641 4.23108 8.39641 4.73307H8.91633C8.91633 3.98606 8.46215 3.54382 7.69721 3.49004V3H7.32669V3.49004C6.57968 3.5498 6.07171 3.99203 6.07171 4.60757C6.07171 5.37849 6.70518 5.56972 7.32669 5.74303V7.26693C6.81275 7.20119 6.54382 6.87251 6.54382 6.2988H6ZM8.43227 6.54382C8.43227 6.93227 8.15737 7.20717 7.69721 7.26693V5.84462C8.10956 5.97012 8.43227 6.14343 8.43227 6.54382ZM6.63944 4.54781C6.63944 4.17131 6.96813 3.9502 7.32669 3.89044V5.23506C6.93227 5.10956 6.63944 4.94223 6.63944 4.54781Z" fill="black" stroke="black" stroke-width="0.1"/>
</g>
<defs>
<clipPath id="clip0_6762_1260">
<rect width="20" height="20" fill="white"/>
</clipPath>
</defs>
</svg>
