<svg width="18" height="18" viewBox="0 0 18 18" fill="none" xmlns="http://www.w3.org/2000/svg">
<path d="M17.71 10.89L14.6 13.19L14.17 9.34998L15.31 9.84998C15.3532 9.56863 15.3766 9.2846 15.38 8.99998C15.3842 7.81545 15.0576 6.65329 14.4368 5.64443C13.816 4.63558 12.9259 3.82014 11.8666 3.28998C10.8073 2.75982 9.62103 2.53602 8.44141 2.6438C7.26179 2.75158 6.1357 3.18664 5.19004 3.89998L4.44004 2.89998C5.75317 1.90876 7.3548 1.37488 9.00004 1.37998C11.0202 1.38263 12.9568 2.18629 14.3853 3.61475C15.8137 5.0432 16.6174 6.97984 16.62 8.99998C16.6169 9.45626 16.5734 9.91137 16.49 10.36L17.71 10.89ZM9.00004 15.38C7.30796 15.38 5.68518 14.7078 4.4887 13.5113C3.29222 12.3148 2.62004 10.6921 2.62004 8.99998C2.62348 8.71536 2.64687 8.43133 2.69004 8.14998L3.83004 8.64998L3.40004 4.80998L0.290039 7.10998L1.51004 7.63998C1.4267 8.0886 1.3832 8.5437 1.38004 8.99998C1.38268 11.0201 2.18635 12.9568 3.61481 14.3852C5.04326 15.8137 6.9799 16.6173 9.00004 16.62C10.6453 16.6251 12.2469 16.0912 13.56 15.1L12.81 14.1C11.7128 14.9292 10.3754 15.3785 9.00004 15.38Z" fill="black"/>
</svg>
