<svg width="18" height="18" viewBox="0 0 18 18" fill="none" xmlns="http://www.w3.org/2000/svg">
<path fill-rule="evenodd" clip-rule="evenodd" d="M12.6285 2.82656C11.2003 2.06314 9.55151 1.81857 7.96314 2.13452C6.37477 2.45046 4.94509 3.30738 3.9177 4.55926C2.90694 5.79087 2.34708 7.32979 2.32921 8.92139L2.50172 8.92059L3.81684 8.91688L1.91203 12.2331L0 8.92571L1.23076 8.92655L1.32911 8.92609C1.34596 7.10145 1.98617 5.33653 3.14469 3.92487C4.31885 2.49415 5.95277 1.51481 7.76805 1.15373C9.58333 0.792649 11.4677 1.07216 13.0999 1.94464C14.7322 2.81713 16.0115 4.22859 16.7198 5.93855C17.4281 7.6485 17.5216 9.55115 16.9843 11.3223C16.447 13.0934 15.3122 14.6235 13.7733 15.6518C12.2344 16.68 10.3866 17.1429 8.54463 16.9615C6.7027 16.7801 4.98066 15.9656 3.67191 14.6569L4.37902 13.9498C5.52417 15.0949 7.03096 15.8076 8.64265 15.9663C10.2543 16.125 11.8712 15.72 13.2178 14.8203C14.5643 13.9206 15.5572 12.5818 16.0274 11.032C16.4975 9.48226 16.4157 7.81744 15.7959 6.32123C15.1762 4.82502 14.0568 3.58999 12.6285 2.82656ZM9.10144 9.41827V4.86365H8.10144V10.0363L11.7341 11.8526L12.1814 10.9582L9.10144 9.41827Z" fill="black"/>
</svg>
