<svg width="18" height="18" viewBox="0 0 18 18" fill="none" xmlns="http://www.w3.org/2000/svg">
<path d="M6.49994 3.00003C6.04031 3.00003 5.58519 3.09056 5.16055 3.26645C4.73591 3.44234 4.35007 3.70015 4.02507 4.02515C3.70006 4.35016 3.44225 4.736 3.26636 5.16063C3.09047 5.58527 2.99994 6.0404 2.99994 6.50003C2.99994 6.95965 3.09047 7.41478 3.26636 7.83942C3.44225 8.26406 3.70006 8.6499 4.02507 8.9749C4.35007 9.29991 4.73591 9.55771 5.16055 9.73361C5.58519 9.9095 6.04031 10 6.49994 10C7.4282 10 8.31844 9.63128 8.97481 8.9749C9.63119 8.31852 9.99994 7.42828 9.99994 6.50003C9.99994 5.57177 9.63119 4.68153 8.97481 4.02515C8.31844 3.36878 7.4282 3.00003 6.49994 3.00003ZM6.49994 2.00003C7.38996 2.00003 8.25998 2.26395 9.00001 2.75841C9.74003 3.25288 10.3168 3.95568 10.6574 4.77795C10.998 5.60022 11.0871 6.50502 10.9135 7.37793C10.7398 8.25085 10.3113 9.05267 9.68192 9.68201C9.05258 10.3113 8.25076 10.7399 7.37785 10.9136C6.50493 11.0872 5.60013 10.9981 4.77787 10.6575C3.9556 10.3169 3.25279 9.74011 2.75833 9.00009C2.26386 8.26007 1.99994 7.39004 1.99994 6.50003C1.99862 5.90871 2.11412 5.32295 2.3398 4.77639C2.56548 4.22983 2.89689 3.73323 3.31502 3.31511C3.73315 2.89698 4.22975 2.56556 4.77631 2.33988C5.32287 2.1142 5.90862 1.99871 6.49994 2.00003ZM8.55794 9.52503L9.43794 8.64503L15.9399 15.06L15.0599 15.94L8.55794 9.52503Z" fill="black"/>
</svg>
