<svg width="18" height="18" viewBox="0 0 18 18" fill="none" xmlns="http://www.w3.org/2000/svg">
<path d="M11.5001 3.00001C11.9597 3.00001 12.4148 3.09054 12.8395 3.26643C13.2641 3.44232 13.6499 3.70013 13.9749 4.02514C14.2999 4.35014 14.5577 4.73598 14.7336 5.16062C14.9095 5.58526 15.0001 6.04038 15.0001 6.50001C15.0001 6.95964 14.9095 7.41476 14.7336 7.8394C14.5577 8.26404 14.2999 8.64988 13.9749 8.97489C13.6499 9.29989 13.2641 9.5577 12.8395 9.73359C12.4148 9.90948 11.9597 10 11.5001 10C10.5718 10 9.68156 9.63126 9.02519 8.97489C8.36881 8.31851 8.00006 7.42827 8.00006 6.50001C8.00006 5.57175 8.36881 4.68152 9.02519 4.02514C9.68156 3.36876 10.5718 3.00001 11.5001 3.00001ZM11.5001 2.00001C10.61 2.00001 9.74002 2.26393 8.99999 2.7584C8.25997 3.25286 7.6832 3.95567 7.3426 4.77794C7.00201 5.6002 6.91289 6.505 7.08653 7.37792C7.26016 8.25083 7.68874 9.05266 8.31808 9.68199C8.94742 10.3113 9.74924 10.7399 10.6222 10.9135C11.4951 11.0872 12.3999 10.9981 13.2221 10.6575C14.0444 10.3169 14.7472 9.7401 15.2417 9.00008C15.7361 8.26006 16.0001 7.39003 16.0001 6.50001C16.0014 5.90869 15.8859 5.32294 15.6602 4.77638C15.4345 4.22982 15.1031 3.73322 14.685 3.31509C14.2669 2.89696 13.7703 2.56555 13.2237 2.33987C12.6771 2.11419 12.0914 1.99869 11.5001 2.00001ZM9.44206 9.52501L8.56206 8.64501L2.06006 15.06L2.94006 15.94L9.44206 9.52501Z" fill="black"/>
</svg>
