<svg width="18" height="18" viewBox="0 0 18 18" fill="none" xmlns="http://www.w3.org/2000/svg">
<path fill-rule="evenodd" clip-rule="evenodd" d="M14.1435 12.8491L17 10.7362L15.8794 10.2493C15.956 9.83723 15.9959 9.41915 15.9989 9C15.9964 7.14424 15.2583 5.36518 13.9463 4.05296C12.6342 2.74074 10.8555 2.00246 9 2.00003C7.48888 1.99535 6.0178 2.48578 4.81171 3.39635L5.50057 4.31498C6.36915 3.65969 7.40344 3.26002 8.48691 3.16102C9.57037 3.06201 10.66 3.2676 11.6329 3.75462C12.6058 4.24164 13.4234 4.99073 13.9936 5.91749C14.5637 6.84425 14.8638 7.91185 14.8599 9C14.8568 9.26146 14.8353 9.52238 14.7956 9.78084L13.7486 9.32152L14.1435 12.8491ZM4.8564 13.1443C5.95535 14.2434 7.44585 14.8609 9 14.8609C10.2632 14.8595 11.4916 14.4468 12.4994 13.685L13.1883 14.6036C11.9822 15.5142 10.5111 16.0047 9 16C7.14454 15.9975 5.36576 15.2593 4.05375 13.947C2.74174 12.6348 2.00358 10.8558 2.00115 9C2.00405 8.58085 2.04401 8.16277 2.12055 7.75066L1 7.26379L3.85649 5.15094L4.25144 8.67848L3.20436 8.21916C3.16471 8.47762 3.14323 8.73854 3.14007 9C3.14007 10.5544 3.75745 12.0451 4.8564 13.1443ZM7.57143 7.28571C7.57143 7.44351 7.44351 7.57143 7.28571 7.57143C7.12792 7.57143 7 7.44351 7 7.28571C7 7.12792 7.12792 7 7.28571 7C7.44351 7 7.57143 7.12792 7.57143 7.28571ZM8.57143 7.28571C8.57143 7.99579 7.99579 8.57143 7.28571 8.57143C6.57563 8.57143 6 7.99579 6 7.28571C6 6.57563 6.57563 6 7.28571 6C7.99579 6 8.57143 6.57563 8.57143 7.28571ZM10.7143 11C10.8721 11 11 10.8721 11 10.7143C11 10.5565 10.8721 10.4286 10.7143 10.4286C10.5565 10.4286 10.4286 10.5565 10.4286 10.7143C10.4286 10.8721 10.5565 11 10.7143 11ZM10.7143 12C11.4244 12 12 11.4244 12 10.7143C12 10.0042 11.4244 9.42857 10.7143 9.42857C10.0042 9.42857 9.42857 10.0042 9.42857 10.7143C9.42857 11.4244 10.0042 12 10.7143 12ZM11.3573 5.99999L6.21449 11.1428L6.9216 11.8499L12.0645 6.70709L11.3573 5.99999Z" fill="black"/>
</svg>
