<svg width="18" height="18" viewBox="0 0 18 18" fill="none" xmlns="http://www.w3.org/2000/svg">
<path fill-rule="evenodd" clip-rule="evenodd" d="M8.24279 1.50002C7.88639 1.50002 7.57156 1.7322 7.46626 2.07268L7.10067 3.2548C6.81754 3.34835 6.5437 3.46223 6.28088 3.59468L5.18613 3.01712C4.87091 2.85081 4.48411 2.90926 4.2321 3.16127L3.4093 3.98412L3.16127 4.23215C2.90925 4.48416 2.85081 4.87095 3.01711 5.18617L3.59466 6.28085C3.46219 6.54368 3.34831 6.81754 3.25475 7.10069L2.07267 7.46625C1.73218 7.57155 1.5 7.88637 1.5 8.24277L1.50003 9.40642V9.75725C1.50003 10.1136 1.73221 10.4284 2.0727 10.5337L3.25474 10.8993C3.3483 11.1825 3.46219 11.4563 3.59466 11.7192L3.0171 12.8139C2.8508 13.1291 2.90924 13.5159 3.16126 13.7679L3.41058 14.0173L4.23212 14.8388C4.48414 15.0908 4.87093 15.1492 5.18615 14.9829L6.28093 14.4054C6.54374 14.5378 6.81758 14.6517 7.10069 14.7452L7.46627 15.9273C7.57157 16.2678 7.8864 16.5 8.24281 16.5H9.75727C10.1137 16.5 10.4285 16.2678 10.5338 15.9273L10.8994 14.7452C11.1826 14.6517 11.4564 14.5378 11.7193 14.4053L12.814 14.9829C13.1292 15.1492 13.516 15.0907 13.7681 14.8387L14.5909 14.0159L14.8389 13.7678C15.0909 13.5158 15.1494 13.129 14.9831 12.8138L14.4055 11.7191C14.538 11.4563 14.6518 11.1824 14.7454 10.8993L15.9273 10.5337C16.2678 10.4284 16.5 10.1136 16.5 9.75724V9.40642V8.24277C16.5 7.88638 16.2678 7.57155 15.9273 7.46625L14.7454 7.10073C14.6518 6.81762 14.538 6.5438 14.4055 6.281L14.9831 5.18625C15.1494 4.87103 15.091 4.48424 14.839 4.23223L14.5936 3.98683L13.7681 3.16134C13.5161 2.90933 13.1293 2.85089 12.8141 3.01719L11.7194 3.59474C11.4565 3.46225 11.1826 3.34835 10.8994 3.25477L10.5338 2.07268C10.4285 1.7322 10.1137 1.50002 9.75726 1.50002H8.24279ZM3.73602 4.80689L4.5588 3.98412L4.80685 3.73601L6.28493 4.51581L6.47686 4.41005C6.81044 4.22626 7.16611 4.07784 7.53884 3.96977L7.74922 3.90878L8.24279 2.31283H9.75726L10.2508 3.90876L10.4612 3.96975C10.834 4.07784 11.1897 4.22629 11.5234 4.41012L11.7153 4.51588L13.1934 3.73608L13.4388 3.98153L14.2642 4.80697L13.4844 6.28504L13.5901 6.47697C13.7739 6.81053 13.9223 7.16618 14.0304 7.53889L14.0914 7.74927L15.6872 8.24277V8.59361V9.75724L14.0914 10.2507L14.0304 10.4611C13.9223 10.8338 13.7739 11.1895 13.5901 11.5231L13.4844 11.715L14.2642 13.1931L13.4414 14.0159L13.1933 14.264L11.7152 13.4842L11.5233 13.5899C11.1897 13.7737 10.834 13.9222 10.4612 14.0303L10.2508 14.0913L9.75727 15.6872H8.24281L7.74924 14.0912L7.53886 14.0302C7.16614 13.9222 6.81049 13.7738 6.47692 13.59L6.28498 13.4842L4.80687 14.2641L4.55752 14.0147L3.73601 13.1932L4.5158 11.7151L4.41005 11.5232C4.22624 11.1896 4.0778 10.8339 3.96973 10.4611L3.90873 10.2508L2.31285 9.75725L2.31282 8.59361V8.24277L3.90874 7.74923L3.96973 7.53885C4.07781 7.1661 4.22624 6.81042 4.41004 6.47684L4.5158 6.2849L3.73602 4.80689ZM11.3629 9.00002C11.3629 10.305 10.305 11.3629 9 11.3629C7.69501 11.3629 6.6371 10.305 6.6371 9.00002C6.6371 7.69503 7.69501 6.63712 9 6.63712C10.305 6.63712 11.3629 7.69503 11.3629 9.00002ZM12.2143 9.00002C12.2143 10.7752 10.7752 12.2143 9 12.2143C7.2248 12.2143 5.78571 10.7752 5.78571 9.00002C5.78571 7.22482 7.2248 5.78573 9 5.78573C10.7752 5.78573 12.2143 7.22482 12.2143 9.00002Z" fill="black"/>
</svg>
