<svg width="18" height="18" viewBox="0 0 18 18" fill="none" xmlns="http://www.w3.org/2000/svg">
<path fill-rule="evenodd" clip-rule="evenodd" d="M8.547 3.81696L5.704 6.20296C5.67793 6.22483 5.64768 6.24114 5.61508 6.25091C5.58249 6.26067 5.54825 6.26368 5.51445 6.25975C5.48065 6.25581 5.44802 6.24502 5.41854 6.22804C5.38906 6.21105 5.36335 6.18823 5.343 6.16096L5.043 5.75996C5.00529 5.70946 4.98804 5.64658 4.99472 5.5839C5.00139 5.52123 5.0315 5.46339 5.079 5.42196L8.658 2.29896C8.7516 2.21724 8.87228 2.1733 8.99651 2.17571C9.12074 2.17811 9.23963 2.22668 9.33 2.31196L9.335 2.31696L9.352 2.33096L12.952 5.50596C12.9991 5.54749 13.0288 5.6052 13.0353 5.66763C13.0418 5.73007 13.0245 5.79266 12.987 5.84296L12.687 6.24496C12.6666 6.27223 12.6409 6.29505 12.6115 6.31204C12.582 6.32902 12.5493 6.33981 12.5155 6.34375C12.4818 6.34768 12.4475 6.34467 12.4149 6.33491C12.3823 6.32514 12.3521 6.30883 12.326 6.28696L9.534 3.94496V7.99996H13.5C13.6326 7.99996 13.7598 8.05264 13.8536 8.14641C13.9473 8.24018 14 8.36736 14 8.49996V14.5C14 14.6326 13.9473 14.7597 13.8536 14.8535C13.7598 14.9473 13.6326 15 13.5 15H4.5C4.36739 15 4.24021 14.9473 4.14645 14.8535C4.05268 14.7597 4 14.6326 4 14.5V8.49996C4 8.36736 4.05268 8.24018 4.14645 8.14641C4.24021 8.05264 4.36739 7.99996 4.5 7.99996H8.547V3.81696ZM8.547 8.99996H5V14H13V8.99996H9.534V11.75C9.534 11.8163 9.50766 11.8799 9.46078 11.9267C9.41389 11.9736 9.3503 12 9.284 12H8.797C8.7307 12 8.66711 11.9736 8.62022 11.9267C8.57334 11.8799 8.547 11.8163 8.547 11.75V8.99996Z" fill="black"/>
</svg>
