<svg width="20" height="20" viewBox="0 0 20 20" fill="none" xmlns="http://www.w3.org/2000/svg">
<path fill-rule="evenodd" clip-rule="evenodd" d="M15.8172 9.76049C14.3362 7.27079 12.3301 6 9.83717 6C7.34352 6 5.34179 7.27159 3.87067 9.76258C3.61582 10.1942 3.63161 10.7293 3.9115 11.1458C5.5341 13.5604 7.52027 14.7929 9.84552 14.7929C12.1702 14.7929 14.156 13.561 15.7784 11.1475C16.0592 10.7297 16.0742 10.1926 15.8172 9.76049ZM15.0393 10.2024C15.125 10.3465 15.12 10.5255 15.0264 10.6647C13.5592 12.8474 11.8404 13.9136 9.84554 13.9136C7.85018 13.9136 6.13103 12.8468 4.66363 10.6631C4.57033 10.5243 4.56507 10.3459 4.65001 10.2021C5.96853 7.96948 7.6847 6.87929 9.83719 6.87929C11.9899 6.87929 13.7112 7.9697 15.0393 10.2024ZM9.84501 12.5947C11.0591 12.5947 12.0432 11.6105 12.0432 10.3964C12.0432 9.1824 11.0591 8.19823 9.84501 8.19823C8.63097 8.19823 7.6468 9.1824 7.6468 10.3964C7.6468 11.6105 8.63097 12.5947 9.84501 12.5947ZM9.84502 11.7155C9.1166 11.7155 8.52609 11.125 8.52609 10.3966C8.52609 9.66814 9.1166 9.07763 9.84502 9.07763C10.5734 9.07763 11.164 9.66814 11.164 10.3966C11.164 11.125 10.5734 11.7155 9.84502 11.7155Z" fill="black"/>
</svg>
