<svg xmlns="http://www.w3.org/2000/svg" width="18" height="18" viewBox="0 0 18 18">
  <path fill-rule="evenodd" d="M16.8 8.2c-2-3.3-4.6-4.9-7.8-4.9S3.2 5 1.2 8.2c-.3.5-.3 1.2.1 1.8C3.4 13.1 6 14.7 9 14.7s5.6-1.6 7.7-4.7c.4-.6.4-1.3.1-1.8zm-1 .5c.1.2.1.4 0 .6-1.9 2.8-4.1 4.2-6.7 4.2-2.6 0-4.8-1.4-6.7-4.2-.1-.2-.1-.4 0-.6C4 5.8 6.2 4.4 9 4.4s5 1.4 6.8 4.3zM9 11.9c1.6 0 2.9-1.3 2.9-2.9 0-1.6-1.3-2.9-2.9-2.9-1.6 0-2.9 1.3-2.9 2.9 0 1.6 1.3 2.9 2.9 2.9zm0-1.2c-.9 0-1.7-.8-1.7-1.7 0-.9.8-1.7 1.7-1.7.9 0 1.7.8 1.7 1.7 0 .9-.8 1.7-1.7 1.7z" clip-rule="evenodd"/>
</svg>