<svg width="18" height="18" viewBox="0 0 18 18" fill="none" xmlns="http://www.w3.org/2000/svg">
<path fill-rule="evenodd" clip-rule="evenodd" d="M14.8172 8.76049C13.3362 6.27079 11.3301 5 8.83717 5C6.34352 5 4.34179 6.27159 2.87067 8.76258C2.61582 9.19417 2.63161 9.72927 2.9115 10.1458C4.5341 12.5604 6.52027 13.7929 8.84552 13.7929C11.1702 13.7929 13.156 12.561 14.7784 10.1475C15.0592 9.72967 15.0742 9.19264 14.8172 8.76049ZM14.0393 9.2024C14.125 9.34645 14.12 9.52547 14.0264 9.66472C12.5592 11.8474 10.8404 12.9136 8.84554 12.9136C6.85018 12.9136 5.13103 11.8468 3.66363 9.66314C3.57033 9.52431 3.56507 9.34593 3.65001 9.20207C4.96853 6.96948 6.6847 5.87929 8.83719 5.87929C10.9899 5.87929 12.7112 6.9697 14.0393 9.2024ZM8.84501 11.5947C10.0591 11.5947 11.0432 10.6105 11.0432 9.39644C11.0432 8.1824 10.0591 7.19823 8.84501 7.19823C7.63097 7.19823 6.6468 8.1824 6.6468 9.39644C6.6468 10.6105 7.63097 11.5947 8.84501 11.5947ZM8.84502 10.7155C8.1166 10.7155 7.52609 10.125 7.52609 9.39656C7.52609 8.66814 8.1166 8.07763 8.84502 8.07763C9.57345 8.07763 10.164 8.66814 10.164 9.39656C10.164 10.125 9.57345 10.7155 8.84502 10.7155Z" fill="black"/>
</svg>
