<svg width="18" height="18" viewBox="0 0 18 18" fill="none" xmlns="http://www.w3.org/2000/svg">
<mask id="path-1-outside-1_3406_35882" maskUnits="userSpaceOnUse" x="2" y="2" width="14" height="14" fill="black">
<rect fill="white" x="2" y="2" width="14" height="14"/>
<path fill-rule="evenodd" clip-rule="evenodd" d="M3.5 3C3.22386 3 3 3.22386 3 3.5L3 14.5C3 14.7761 3.22386 15 3.5 15H6.85715V14H4V4H6.85715V3H3.5Z"/>
<path fill-rule="evenodd" clip-rule="evenodd" d="M14.5 3C14.7761 3 15 3.22386 15 3.5V14.5C15 14.7761 14.7761 15 14.5 15H6.5C6.22386 15 6 14.7761 6 14.5V3.5C6 3.22386 6.22386 3 6.5 3H14.5ZM14 4H7V14H14V4Z"/>
<path fill-rule="evenodd" clip-rule="evenodd" d="M11.0201 11.3132L8.70673 8.99986L11.0201 6.68652L11.3134 6.97986L9.29339 8.99986L11.3134 11.0199L11.0201 11.3132Z"/>
</mask>
<path fill-rule="evenodd" clip-rule="evenodd" d="M3.5 3C3.22386 3 3 3.22386 3 3.5L3 14.5C3 14.7761 3.22386 15 3.5 15H6.85715V14H4V4H6.85715V3H3.5Z" fill="black"/>
<path fill-rule="evenodd" clip-rule="evenodd" d="M14.5 3C14.7761 3 15 3.22386 15 3.5V14.5C15 14.7761 14.7761 15 14.5 15H6.5C6.22386 15 6 14.7761 6 14.5V3.5C6 3.22386 6.22386 3 6.5 3H14.5ZM14 4H7V14H14V4Z" fill="black"/>
<path fill-rule="evenodd" clip-rule="evenodd" d="M11.0201 11.3132L8.70673 8.99986L11.0201 6.68652L11.3134 6.97986L9.29339 8.99986L11.3134 11.0199L11.0201 11.3132Z" fill="black"/>
<path d="M3 3.5H3.1H3ZM3 14.5H2.9H3ZM6.85715 15V15.1C6.91238 15.1 6.95715 15.0552 6.95715 15H6.85715ZM6.85715 14H6.95715C6.95715 13.9448 6.91238 13.9 6.85715 13.9V14ZM4 14H3.9C3.9 14.0552 3.94477 14.1 4 14.1V14ZM4 4V3.9C3.94477 3.9 3.9 3.94477 3.9 4H4ZM6.85715 4V4.1C6.91238 4.1 6.95715 4.05523 6.95715 4H6.85715ZM6.85715 3H6.95715C6.95715 2.94477 6.91238 2.9 6.85715 2.9V3ZM7 4V3.9C6.94477 3.9 6.9 3.94477 6.9 4H7ZM14 4H14.1C14.1 3.94477 14.0552 3.9 14 3.9V4ZM7 14H6.9C6.9 14.0552 6.94477 14.1 7 14.1V14ZM14 14V14.1C14.0552 14.1 14.1 14.0552 14.1 14H14ZM11.0201 11.3132L10.9493 11.3839L11.0201 11.4546L11.0908 11.3839L11.0201 11.3132ZM8.70673 8.99986L8.63602 8.92915L8.5653 8.99986L8.63602 9.07057L8.70673 8.99986ZM11.0201 6.68652L11.0908 6.61581L11.0201 6.5451L10.9493 6.61581L11.0201 6.68652ZM11.3134 6.97986L11.3841 7.05057L11.4548 6.97986L11.3841 6.90915L11.3134 6.97986ZM9.29339 8.99986L9.22268 8.92915L9.15197 8.99986L9.22268 9.07057L9.29339 8.99986ZM11.3134 11.0199L11.3841 11.0906L11.4548 11.0199L11.3841 10.9491L11.3134 11.0199ZM3 3.5H3.1C3.1 3.27909 3.27909 3.1 3.5 3.1V3V2.9C3.16863 2.9 2.9 3.16863 2.9 3.5H3ZM3 14.5H3.1V3.5H3H2.9V14.5H3ZM3.5 15V14.9C3.27909 14.9 3.1 14.7209 3.1 14.5H3H2.9C2.9 14.8314 3.16863 15.1 3.5 15.1V15ZM6.85715 14H6.75715V15H6.85715H6.95715V14H6.85715ZM4 4H3.9V14H4H4.1V4H4ZM6.85715 3H6.75715V4H6.85715H6.95715V3H6.85715ZM6.85715 15V14.9H3.5V15V15.1H6.85715V15ZM4 14V14.1H6.85715V14V13.9H4V14ZM6.85715 4V3.9H4V4V4.1H6.85715V4ZM3.5 3V3.1H6.85715V3V2.9H3.5V3ZM15 3.5H15.1C15.1 3.16863 14.8314 2.9 14.5 2.9V3V3.1C14.7209 3.1 14.9 3.27909 14.9 3.5H15ZM15 14.5H15.1V3.5H15H14.9V14.5H15ZM14.5 15V15.1C14.8314 15.1 15.1 14.8314 15.1 14.5H15H14.9C14.9 14.7209 14.7209 14.9 14.5 14.9V15ZM6.5 15V15.1H14.5V15V14.9H6.5V15ZM6 14.5H5.9C5.9 14.8314 6.16863 15.1 6.5 15.1V15V14.9C6.27909 14.9 6.1 14.7209 6.1 14.5H6ZM6 3.5H5.9V14.5H6H6.1V3.5H6ZM6.5 3V2.9C6.16863 2.9 5.9 3.16863 5.9 3.5H6H6.1C6.1 3.27909 6.27909 3.1 6.5 3.1V3ZM14.5 3V2.9H6.5V3V3.1H14.5V3ZM7 4V4.1H14V4V3.9H7V4ZM7 14H7.1V4H7H6.9V14H7ZM14 14V13.9H7V14V14.1H14V14ZM14 4H13.9V14H14H14.1V4H14ZM11.0201 11.3132L11.0908 11.2425L8.77744 8.92915L8.70673 8.99986L8.63602 9.07057L10.9493 11.3839L11.0201 11.3132ZM8.70673 8.99986L8.77744 9.07057L11.0908 6.75723L11.0201 6.68652L10.9493 6.61581L8.63602 8.92915L8.70673 8.99986ZM11.0201 6.68652L10.9493 6.75723L11.2427 7.05057L11.3134 6.97986L11.3841 6.90915L11.0908 6.61581L11.0201 6.68652ZM11.3134 6.97986L11.2427 6.90915L9.22268 8.92915L9.29339 8.99986L9.3641 9.07057L11.3841 7.05057L11.3134 6.97986ZM9.29339 8.99986L9.22268 9.07057L11.2427 11.0906L11.3134 11.0199L11.3841 10.9491L9.3641 8.92915L9.29339 8.99986ZM11.3134 11.0199L11.2427 10.9491L10.9493 11.2425L11.0201 11.3132L11.0908 11.3839L11.3841 11.0906L11.3134 11.0199Z" fill="black" mask="url(#path-1-outside-1_3406_35882)"/>
</svg>
