<svg width="18" height="18" viewBox="0 0 18 18" fill="none" xmlns="http://www.w3.org/2000/svg">
<path fill-rule="evenodd" clip-rule="evenodd" d="M3.5 3C3.22386 3 3 3.22386 3 3.5V14.5C3 14.7761 3.22386 15 3.5 15H6.85715V14H4V4H6.85715V3H3.5Z" fill="black"/>
<path fill-rule="evenodd" clip-rule="evenodd" d="M14.5 3C14.7761 3 15 3.22386 15 3.5V14.5C15 14.7761 14.7761 15 14.5 15H6.5C6.22386 15 6 14.7761 6 14.5V3.5C6 3.22386 6.22386 3 6.5 3H14.5ZM14 4H7V14H14V4Z" fill="black"/>
<path d="M9.03583 6.65137L11.3483 8.96484L11.3845 9L11.3483 9.03516L9.03583 11.3486L8.99969 11.3838L8.67157 11.0557L8.63641 11.0195L10.6559 9L8.67157 7.01562L8.63641 6.97949L8.99969 6.61621L9.03583 6.65137Z" fill="black" stroke="black" stroke-width="0.1"/>
</svg>
