<svg width="18" height="18" viewBox="0 0 18 18" fill="none" xmlns="http://www.w3.org/2000/svg">
<g clip-path="url(#clip0_11161_22536)">
<path d="M7.60296 10.8152C7.36536 10.8152 7.11827 10.8057 6.88068 10.8152C5.97782 10.8627 5.08448 10.9958 4.21014 11.2049C4.08659 11.2334 3.97254 11.2999 3.89651 11.3949C3.82049 11.49 3.77297 11.6135 3.77297 11.7466C3.77297 12.1362 4.1056 12.3738 4.51426 12.2883C5.84477 11.9937 7.18479 11.8416 8.54382 11.9556C9.88384 12.0507 11.1763 12.4688 12.3358 13.1531C12.4023 13.2006 12.4688 13.2291 12.5449 13.2386C12.6209 13.2482 12.6969 13.2482 12.773 13.2386C12.849 13.2196 12.9155 13.1911 12.982 13.1436C13.0391 13.0961 13.0961 13.0391 13.1341 12.9725C13.1721 12.906 13.2006 12.8395 13.2101 12.7635C13.2196 12.6874 13.2101 12.6114 13.1911 12.5354C13.1721 12.4593 13.1341 12.3928 13.0866 12.3358C13.0391 12.2788 12.982 12.2313 12.9155 12.1932C12.6494 12.0317 12.3738 11.8796 12.0887 11.7466C10.6727 11.0718 9.16156 10.7962 7.60296 10.8057V10.8152ZM7.23231 7.85956C6.9472 7.87856 6.38648 7.90707 5.83527 7.9641C5.17001 8.04013 4.51426 8.17318 3.87751 8.37276C3.77297 8.40127 3.68743 8.45829 3.6114 8.52482C3.53537 8.59134 3.47835 8.68638 3.44034 8.78141C3.40232 8.87645 3.38332 8.98099 3.39282 9.08553C3.39282 9.19007 3.43083 9.29461 3.48786 9.38015C3.57339 9.5227 3.69694 9.62724 3.849 9.68427C4.00106 9.74129 4.17212 9.74129 4.32418 9.68427C4.94192 9.5037 5.56917 9.38015 6.21542 9.31362C7.26082 9.20908 8.31573 9.22809 9.36114 9.38965C10.7487 9.59873 12.0602 10.0074 13.2672 10.7297C13.3432 10.7772 13.4382 10.8152 13.5238 10.8342C13.6093 10.8532 13.7138 10.8437 13.7994 10.8342C13.8944 10.8152 13.9799 10.7772 14.056 10.7202C14.132 10.6631 14.1985 10.5966 14.246 10.5111C14.2936 10.4351 14.3316 10.34 14.3411 10.245C14.3506 10.1499 14.3411 10.0549 14.3221 9.96938C14.2936 9.87434 14.2555 9.79831 14.1985 9.72228C14.1415 9.64625 14.0655 9.58923 13.9894 9.54171C13.6853 9.36114 13.3717 9.19007 13.0486 9.03802C11.2904 8.2207 9.44667 7.86906 7.25132 7.84055L7.23231 7.85956ZM7.69799 4.78986C7.40338 4.78986 7.11827 4.78036 6.82365 4.78986C5.74974 4.82788 4.68532 4.97994 3.64942 5.25554C3.49736 5.28406 3.3548 5.34108 3.22175 5.3981C3.04118 5.49314 2.89863 5.6547 2.8321 5.85428C2.76558 6.04435 2.76558 6.26294 2.8416 6.45301C2.92714 6.64308 3.06969 6.79514 3.25977 6.88068C3.44984 6.96621 3.65892 6.99472 3.8585 6.9377C4.43823 6.80465 5.01795 6.66209 5.60718 6.57656C6.89968 6.39599 8.21119 6.38648 9.5132 6.53854C11.2239 6.72862 12.868 7.12777 14.3696 7.99261C14.5026 8.06864 14.6547 8.10665 14.8068 8.09715C14.9588 8.09715 15.1109 8.03062 15.2249 7.93559C15.339 7.85956 15.434 7.74551 15.5005 7.62196C15.5671 7.49842 15.5956 7.35586 15.5861 7.21331C15.5766 7.07075 15.5385 6.9377 15.472 6.81415C15.396 6.6906 15.301 6.59557 15.1774 6.51954C14.6262 6.18691 14.037 5.9113 13.4287 5.70222C11.5755 5.02746 9.65576 4.77086 7.69799 4.78036V4.78986ZM9 0C10.188 0 11.3569 0.228089 12.4498 0.684266C13.5428 1.14044 14.5407 1.8057 15.377 2.64203C16.2133 3.47835 16.8786 4.47624 17.3252 5.57867C17.7719 6.6811 18 7.85005 18 9.03802C17.981 14.1225 13.7994 18.076 8.83844 18C4.02957 17.9145 0 14.0084 0 9C0 7.82154 0.237592 6.64308 0.684266 5.55016C1.14044 4.45723 1.7962 3.46885 2.63252 2.63252C3.46885 1.7962 4.45723 1.13094 5.55016 0.684266C6.65259 0.228089 7.82154 0 9 0Z" fill="black"/>
</g>
<defs>
<clipPath id="clip0_11161_22536">
<rect width="18" height="18" fill="white"/>
</clipPath>
</defs>
</svg>
