<svg width="18" height="18" viewBox="0 0 18 18" fill="none" xmlns="http://www.w3.org/2000/svg">
<path d="M9 16C12.866 16 16 12.866 16 9C16 5.134 12.866 2 9 2C5.134 2 2 5.134 2 9C2 12.866 5.134 16 9 16Z" fill="#fff"/>
<path d="M9 16C12.866 16 16 12.866 16 9C16 5.134 12.866 2 9 2C5.13401 2 2 5.134 2 9C2 12.866 5.13401 16 9 16ZM6.96198 12.7324C6.72358 12.9054 6.52363 12.9477 6.36597 12.8247C6.20831 12.7055 6.17371 12.5093 6.26984 12.2325L7.07349 9.83693L5.02014 8.36425C4.78174 8.19506 4.68177 8.01434 4.74713 7.82592C4.80866 7.6375 4.98939 7.54522 5.28547 7.54907L7.80408 7.56829L8.56929 5.16119C8.66157 4.88049 8.79999 4.73437 8.9961 4.73437C9.19609 4.73437 9.33451 4.88049 9.42674 5.16119L10.1919 7.56829L12.7106 7.54907C13.0066 7.54522 13.1874 7.6375 13.2489 7.82592C13.3104 8.01434 13.2143 8.19506 12.9759 8.36425L10.9226 9.83693L11.7262 12.2325C11.8224 12.5093 11.7877 12.7055 11.6301 12.8247C11.4686 12.9477 11.2725 12.9054 11.034 12.7324L8.9961 11.2367L6.96198 12.7324Z" fill="#00674A"/>
<path d="M9 2.06C12.83 2.06 15.94 5.17 15.94 9C15.94 12.83 12.83 15.94 9 15.94C5.17 15.94 2.06 12.83 2.06 9C2.06 5.17 5.17 2.06 9 2.06ZM9 1.31C4.75 1.31 1.31 4.75 1.31 9C1.31 13.25 4.75 16.69 9 16.69C13.25 16.69 16.69 13.25 16.69 9C16.69 4.75 13.25 1.31 9 1.31Z" fill="#fff"/>
</svg>
