<svg width="18" height="18" viewBox="0 0 18 18" fill="none" xmlns="http://www.w3.org/2000/svg">
<path d="M9 15A6 6 0 1 0 9 3a6 6 0 0 0 0 12" fill="#fff"/>
<path d="M9 17A8 8 0 1 0 9 1a8 8 0 0 0 0 16m-2.33-3.734c-.272.197-.5.246-.68.105-.18-.136-.22-.36-.11-.677l.918-2.738-2.346-1.683c-.273-.193-.387-.4-.312-.615q.106-.322.615-.316l2.878.022.875-2.751c.105-.321.263-.488.488-.488.228 0 .386.167.492.488l.874 2.75 2.879-.021q.509-.008.615.316c.07.216-.04.422-.312.615l-2.347 1.684.919 2.737c.11.317.07.54-.11.677-.185.14-.409.092-.681-.105l-2.33-1.71z" fill="#00674A"/>
</svg>
