<svg width="18" height="18" viewBox="0 0 18 18" fill="none" xmlns="http://www.w3.org/2000/svg">
<path d="M9 15C12.3137 15 15 12.3137 15 9C15 5.68629 12.3137 3 9 3C5.68629 3 3 5.68629 3 9C3 12.3137 5.68629 15 9 15Z" fill="#fff"/>
<path d="M9 16.2C12.9765 16.2 16.2 12.9765 16.2 8.99999C16.2 5.02354 12.9765 1.79999 9 1.79999C5.02355 1.79999 1.8 5.02354 1.8 8.99999C1.8 12.9765 5.02355 16.2 9 16.2ZM6.90375 12.839C6.65854 13.017 6.45288 13.0605 6.29071 12.934C6.12855 12.8114 6.09296 12.6096 6.19184 12.3249L7.01845 9.86084L4.90643 8.34608C4.66122 8.17206 4.55839 7.98617 4.62562 7.79237C4.68891 7.59857 4.8748 7.50365 5.17934 7.50761L7.76991 7.52738L8.55698 5.0515C8.6519 4.76278 8.79428 4.61249 8.99599 4.61249C9.20169 4.61249 9.34407 4.76278 9.43893 5.0515L10.226 7.52738L12.8166 7.50761C13.1211 7.50365 13.307 7.59857 13.3703 7.79237C13.4336 7.98617 13.3347 8.17206 13.0895 8.34608L10.9775 9.86084L11.8041 12.3249C11.903 12.6096 11.8674 12.8114 11.7052 12.934C11.5391 13.0605 11.3374 13.017 11.0921 12.839L8.99599 11.3006L6.90375 12.839Z" fill="#00674A"/>
</svg>
