<svg width="18" height="18" viewBox="0 0 18 18" fill="none" xmlns="http://www.w3.org/2000/svg">
<g clip-path="url(#clip0_6762_1198)">
<path fill-rule="evenodd" clip-rule="evenodd" d="M9.27589 3.75884C9.56362 3.73966 9.84562 3.84562 10.0495 4.04952L16.6066 10.6066C16.9971 10.9971 16.9971 11.6303 16.6066 12.0208L11.6569 16.9706C11.2663 17.3611 10.6332 17.3611 10.2426 16.9706L3.68556 10.4135C3.48165 10.2096 3.3757 9.92758 3.39488 9.63985L3.70424 4.99947C3.70865 4.93335 3.71944 4.86901 3.736 4.80706L2.81802 3.88909C2.62276 3.69383 2.62276 3.37724 2.81802 3.18198C3.01328 2.98672 3.32986 2.98672 3.52513 3.18198L4.4431 4.09996C4.50505 4.0834 4.56939 4.07261 4.6355 4.0682L9.27589 3.75884ZM4.65783 5.7289L4.39266 9.70637L10.9497 16.2635L15.8995 11.3137L9.34241 4.75663L5.36494 5.02179L7.12101 6.77787C7.67858 6.51152 8.36661 6.60925 8.82843 7.07107C9.41421 7.65685 9.41421 8.6066 8.82843 9.19239C8.24264 9.77817 7.29289 9.77817 6.70711 9.19239C6.24529 8.73057 6.14756 8.04254 6.41391 7.48497L4.65783 5.7289ZM8.12132 7.77817C7.92606 7.58291 7.60948 7.58291 7.41421 7.77817C7.21895 7.97344 7.21895 8.29002 7.41421 8.48528C7.60948 8.68054 7.92606 8.68054 8.12132 8.48528C8.31658 8.29002 8.31658 7.97344 8.12132 7.77817Z" fill="black"/>
</g>
<defs>
<clipPath id="clip0_6762_1198">
<rect width="18" height="18" fill="white"/>
</clipPath>
</defs>
</svg>
