<svg width="18" height="18" viewBox="0 0 18 18" fill="none" xmlns="http://www.w3.org/2000/svg">
<g clip-path="url(#clip0_6762_1198)">
<path fill-rule="evenodd" clip-rule="evenodd" d="M8.63966 2.75884C8.92739 2.73966 9.20939 2.84562 9.41329 3.04952L15.9704 9.6066C16.3609 9.99713 16.3609 10.6303 15.9704 11.0208L11.0206 15.9706C10.6301 16.3611 9.99693 16.3611 9.60641 15.9706L3.04933 9.41348C2.84542 9.20958 2.73947 8.92758 2.75865 8.63985L3.06801 3.99947C3.07242 3.93335 3.0832 3.86901 3.09977 3.80706L2.18179 2.88909C1.98653 2.69383 1.98653 2.37724 2.18179 2.18198C2.37705 1.98672 2.69363 1.98672 2.8889 2.18198L3.80687 3.09996C3.86882 3.0834 3.93316 3.07261 3.99927 3.0682L8.63966 2.75884ZM4.0216 4.7289L3.75643 8.70637L10.3135 15.2635L15.2633 10.3137L8.70618 3.75663L4.72871 4.02179L6.48478 5.77787C7.04235 5.51152 7.73038 5.60925 8.1922 6.07107C8.77798 6.65685 8.77798 7.6066 8.1922 8.19239C7.60641 8.77817 6.65666 8.77817 6.07088 8.19239C5.60906 7.73057 5.51132 7.04254 5.77768 6.48497L4.0216 4.7289ZM7.48509 6.77817C7.28983 6.58291 6.97325 6.58291 6.77798 6.77817C6.58272 6.97344 6.58272 7.29002 6.77798 7.48528C6.97325 7.68054 7.28983 7.68054 7.48509 7.48528C7.68035 7.29002 7.68035 6.97344 7.48509 6.77817Z" fill="black"/>
</g>
<defs>
<clipPath id="clip0_6762_1198">
<rect width="18" height="18" fill="white"/>
</clipPath>
</defs>
</svg>
