<svg width="18" height="18" viewBox="0 0 18 18" fill="none" xmlns="http://www.w3.org/2000/svg">
<path d="M11 14H5V13H11V14Z" fill="black"/>
<path d="M10.8359 7C10.9235 7.00011 11.0072 7.03892 11.0693 7.10742L13 9.24902V10.2881L10.8242 7.88477L8.0166 11H7.10254L8.34863 9.61719L7.25586 8.42285L5 10.9268V9.88281L7.00977 7.62305C7.072 7.55442 7.1564 7.51564 7.24414 7.51563C7.33188 7.51563 7.41628 7.55444 7.47852 7.62305L8.80762 9.09766L10.6016 7.10742C10.6638 7.03876 10.7482 7 10.8359 7Z" fill="black"/>
<path fill-rule="evenodd" clip-rule="evenodd" d="M5.92578 4.11426C6.19987 4.00073 6.502 3.97142 6.79297 4.0293C7.08378 4.08723 7.35087 4.22977 7.56055 4.43945C7.77023 4.64913 7.91277 4.91622 7.9707 5.20703C8.02858 5.498 7.99927 5.80013 7.88574 6.07422C7.7722 6.34823 7.57962 6.58229 7.33301 6.74707C7.08637 6.91182 6.7966 7 6.5 7C6.10218 7 5.72076 6.84185 5.43945 6.56055C5.15815 6.27924 5 5.89783 5 5.5C5 5.2034 5.08818 4.91363 5.25293 4.66699C5.41771 4.42038 5.65178 4.2278 5.92578 4.11426ZM6.5 4.70508C6.28956 4.70639 6.08826 4.79065 5.93945 4.93945C5.79065 5.08826 5.70639 5.28956 5.70508 5.5C5.70508 5.65844 5.75172 5.81365 5.83984 5.94531C5.92797 6.07694 6.05375 6.17887 6.2002 6.23926C6.34666 6.29964 6.50778 6.31545 6.66309 6.28418C6.81834 6.25288 6.96063 6.17582 7.07227 6.06348C7.1838 5.9512 7.2597 5.80864 7.29004 5.65332C7.32034 5.49781 7.30351 5.33652 7.24219 5.19043C7.18089 5.04445 7.07839 4.9193 6.94629 4.83203C6.81407 4.74473 6.65843 4.69921 6.5 4.7002V4.70508Z" fill="black"/>
<path fill-rule="evenodd" clip-rule="evenodd" d="M14.5 1C14.6326 1 14.7597 1.05272 14.8535 1.14648C14.9473 1.24025 15 1.36739 15 1.5V16.5C15 16.6326 14.9473 16.7597 14.8535 16.8535C14.7597 16.9473 14.6326 17 14.5 17H3.5C3.36739 17 3.24025 16.9473 3.14648 16.8535C3.05272 16.7597 3 16.6326 3 16.5V1.5C3 1.36739 3.05272 1.24025 3.14648 1.14648C3.24025 1.05272 3.36739 1 3.5 1H14.5ZM4 16H14V2H4V16Z" fill="black"/>
</svg>
