<?xml version="1.0" encoding="UTF-8"?>
<svg id="Layer_1" xmlns="http://www.w3.org/2000/svg" version="1.1" viewBox="0 0 18 18">
  <!-- Generator: Adobe Illustrator 29.6.1, SVG Export Plug-In . SVG Version: 2.1.1 Build 9)  -->
  <path d="M9,0C4.029,0,0,4.029,0,9s4.029,9,9,9,9-4.029,9-9S13.971,0,9,0ZM5.558,12.88c.775.966,1.967,1.461,3.543,1.472,1.421-.01,2.361-.342,3.142-1.108.892-.874.876-1.946.59-2.599-.168-.385-.473-.705-.885-.948-.104.732-.337,1.325-.695,1.772-.48.597-1.16.923-2.02.97-.651.035-1.279-.118-1.765-.434-.576-.373-.913-.942-.949-1.605-.035-.645.221-1.238.72-1.669.477-.412,1.148-.654,1.941-.699.584-.033,1.131-.007,1.635.077-.068-.402-.203-.721-.406-.952-.278-.317-.708-.478-1.278-.482h-.016c-.458,0-1.079.126-1.474.715l-.952-.638c.53-.788,1.391-1.222,2.426-1.222h.023c1.73.01,2.761,1.07,2.864,2.919.058.025.117.051.174.077.807.38,1.397.954,1.708,1.663.432.987.472,2.595-.839,3.878-1.002.98-2.218,1.424-3.942,1.435h-.008c-1.94-.013-3.431-.653-4.433-1.901-.891-1.111-1.351-2.657-1.366-4.594v-.009c.016-1.938.476-3.483,1.368-4.594,1.001-1.249,2.493-1.889,4.432-1.902h.008c1.487.01,2.731.393,3.697,1.136.909.699,1.548,1.695,1.901,2.961l-1.105.308c-.598-2.145-2.111-3.241-4.498-3.258-1.576.012-2.768.507-3.542,1.472-.724.904-1.099,2.209-1.113,3.88.014,1.672.389,2.977,1.114,3.88Z"/>
  <path d="M9.244,9.179c-.995.056-1.615.512-1.58,1.161.036.68.786.996,1.508.957.663-.035,1.526-.294,1.672-2.01-.367-.079-.768-.12-1.2-.12-.131,0-.264.004-.4.012Z"/>
</svg>