<svg width="18" height="18" viewBox="0 0 18 18" fill="none" xmlns="http://www.w3.org/2000/svg">
<g clip-path="url(#clip0_11600_25194)">
<path d="M9 0C4.03 0 0 4.03 0 9C0 13.97 4.03 18 9 18C13.97 18 18 13.97 18 9C18 4.03 13.97 0 9 0ZM14.5 7.9C13.38 7.9 12.33 7.55 11.48 6.95V11.26C11.48 13.41 9.69 15.16 7.49 15.16C6.64 15.16 5.85 14.9 5.2 14.45C4.17 13.74 3.5 12.58 3.5 11.26C3.5 9.11 5.29 7.36 7.49 7.36C7.67 7.36 7.85 7.37 8.03 7.4V7.9V9.56C7.86 9.51 7.68 9.48 7.49 9.48C6.48 9.48 5.67 10.28 5.67 11.26C5.67 11.94 6.07 12.54 6.65 12.84C6.9 12.97 7.19 13.04 7.5 13.04C8.48 13.04 9.28 12.28 9.32 11.33V2.84H11.49C11.49 3.02 11.51 3.2 11.54 3.38C11.69 4.19 12.18 4.88 12.86 5.31C13.33 5.61 13.9 5.79 14.5 5.79V6.26V7.91V7.9Z" fill="black"/>
</g>
<defs>
<clipPath id="clip0_11600_25194">
<rect width="18" height="18" fill="white"/>
</clipPath>
</defs>
</svg>
