<svg width="18" height="18" viewBox="0 0 18 18" fill="none" xmlns="http://www.w3.org/2000/svg">
<path d="M9.50001 3.99997V1.99997H12V0.999969H6.00001V1.99997H8.50001V3.99997C6.82439 4.12925 5.26398 4.90249 4.14619 6.15746C3.02841 7.41242 2.44014 9.05155 2.50482 10.7309C2.56951 12.4102 3.28212 13.9993 4.49313 15.1645C5.70414 16.3298 7.31942 16.9807 9.00001 16.9807C10.6806 16.9807 12.2959 16.3298 13.5069 15.1645C14.7179 13.9993 15.4305 12.4102 15.4952 10.7309C15.5599 9.05155 14.9716 7.41242 13.8538 6.15746C12.736 4.90249 11.1756 4.12925 9.50001 3.99997ZM9.00001 16C7.91221 16 6.84884 15.6774 5.94437 15.0731C5.0399 14.4687 4.33495 13.6097 3.91867 12.6047C3.50239 11.5997 3.39347 10.4939 3.60569 9.42697C3.8179 8.36008 4.34173 7.38007 5.11092 6.61088C5.88011 5.84169 6.86011 5.31787 7.92701 5.10565C8.9939 4.89343 10.0998 5.00235 11.1048 5.41863C12.1098 5.83491 12.9687 6.53986 13.5731 7.44433C14.1774 8.3488 14.5 9.41217 14.5 10.5C14.4974 11.9578 13.9171 13.3553 12.8862 14.3861C11.8553 15.417 10.4579 15.9973 9.00001 16ZM9.50001 10.29L11.5 12.29L10.8 12.99L8.50001 10.71V6.49997H9.50001V10.29Z" fill="black"/>
</svg>
