<svg width="18" height="18" viewBox="0 0 18 18" fill="none" xmlns="http://www.w3.org/2000/svg">
<path fill-rule="evenodd" clip-rule="evenodd" d="M1 9C1 13.4183 4.58172 17 9 17C13.4183 17 17 13.4183 17 9C17 4.58172 13.4183 1 9 1C4.58172 1 1 4.58172 1 9ZM16.0044 9C16.0044 12.8684 12.8684 16.0044 9 16.0044C5.13155 16.0044 1.99556 12.8684 1.99556 9C1.99556 5.13155 5.13155 1.99556 9 1.99556C12.8684 1.99556 16.0044 5.13155 16.0044 9Z" fill="black"/>
<path fill-rule="evenodd" clip-rule="evenodd" d="M6 8.672L6.74284 9.38513L8.50569 7.81279V12.0001H9.57608V7.88974L11.2583 9.38565L12 8.67148L8.99574 6L6 8.672Z" fill="black"/>
</svg>
