<svg width="18" height="18" viewBox="0 0 18 18" fill="none" xmlns="http://www.w3.org/2000/svg">
<path d="M15 4.00003H12V2.46503C12 2.33242 11.9473 2.20524 11.8536 2.11147C11.7598 2.01771 11.6326 1.96503 11.5 1.96503H6.5C6.36739 1.96503 6.24022 2.01771 6.14645 2.11147C6.05268 2.20524 6 2.33242 6 2.46503V4.00003H3V5.00003H4L5 15.54C5.01008 15.6656 5.06717 15.7827 5.15987 15.868C5.25257 15.9533 5.37404 16.0004 5.5 16H12.5C12.626 16.0004 12.7474 15.9533 12.8401 15.868C12.9328 15.7827 12.9899 15.6656 13 15.54L14 5.00003H15V4.00003ZM7 2.96503H11V4.00003H7V2.96503ZM12 15.04H6L5.05 5.00003H13L12 15.04Z" fill="black"/>
</svg>
