<svg width="20" height="20" viewBox="0 0 20 20" fill="none" xmlns="http://www.w3.org/2000/svg">
<path fill-rule="evenodd" clip-rule="evenodd" d="M6.95536 16.6667C5.12906 16.6678 3.34041 16.1474 1.7998 15.1667C2.06647 15.1833 2.33314 15.1833 2.5998 15.1667C4.11483 15.1665 5.58596 14.6578 6.77758 13.7222C6.07432 13.7147 5.39143 13.485 4.82664 13.0659C4.26185 12.6468 3.84409 12.0598 3.63314 11.3889C3.84203 11.4244 4.05425 11.4422 4.26647 11.4444C4.56692 11.4439 4.86593 11.4028 5.15536 11.3222C4.38497 11.1733 3.69181 10.7573 3.19793 10.1476C2.70405 9.53784 2.44109 8.77342 2.45536 7.98889C2.92203 8.24777 3.44425 8.39222 3.97758 8.41111C3.5211 8.10787 3.14643 7.69677 2.88673 7.21419C2.62703 6.73162 2.49032 6.19246 2.48869 5.64444C2.48412 5.05198 2.63753 4.46901 2.93314 3.95555C3.77835 4.99385 4.83232 5.84295 6.02673 6.44781C7.22114 7.05267 8.52932 7.39979 9.86647 7.46666C9.81543 7.20304 9.78939 6.93518 9.78869 6.66666C9.7877 5.9906 9.9923 5.33022 10.3753 4.77315C10.7584 4.21607 11.3018 3.78863 11.9334 3.54756C12.565 3.30648 13.255 3.26316 13.9118 3.42335C14.5686 3.58353 15.1612 3.93965 15.6109 4.44444C16.3785 4.28518 17.1119 3.9918 17.7776 3.57777C17.5177 4.3631 16.9805 5.02676 16.2665 5.44444C16.9341 5.36517 17.5859 5.18536 18.1998 4.91111C17.7508 5.59252 17.1824 6.18725 16.522 6.66666V7.1C16.5294 8.35837 16.287 9.6057 15.8088 10.7697C15.3307 11.9337 14.6263 12.9913 13.7365 13.8811C12.8466 14.7709 11.7891 15.4753 10.6251 15.9535C9.46106 16.4316 8.21373 16.674 6.95536 16.6667Z" fill="black"/>
</svg>
