<svg width="18" height="18" viewBox="0 0 18 18" fill="none" xmlns="http://www.w3.org/2000/svg">
<g clip-path="url(#clip0_11161_22525)">
<path d="M9.00456 18C13.9808 18 18.0091 13.9716 18.0091 8.99544C18.0091 4.01924 13.9716 0 9.00456 0C4.03747 0 0 4.02835 0 9.00456C0 13.9808 4.02835 18.0091 9.00456 18.0091V18ZM5.27696 10.3534C5.41367 10.3808 5.54127 10.3899 5.67797 10.3899C5.86937 10.3899 6.06076 10.3625 6.24304 10.317C5.25873 10.1165 4.52051 9.25063 4.52051 8.21165V8.1843C4.81215 8.34835 5.14025 8.43949 5.48658 8.44861C4.91241 8.06582 4.52962 7.40962 4.52962 6.66228C4.52962 6.27038 4.63899 5.90582 4.82127 5.58684C5.87848 6.88101 7.45519 7.73772 9.24152 7.82886C9.20506 7.67392 9.18684 7.50987 9.18684 7.33671C9.18684 6.1519 10.1438 5.19494 11.3286 5.19494C11.9484 5.19494 12.5043 5.45013 12.8962 5.86937C13.3884 5.76911 13.8441 5.59595 14.2542 5.34987C14.0901 5.85114 13.7529 6.27038 13.3154 6.53468C13.7529 6.48 14.163 6.36152 14.5458 6.19747C14.2542 6.62582 13.8896 7.00861 13.4704 7.30937C13.4704 7.40051 13.4704 7.49165 13.4704 7.58278C13.4704 10.4172 11.3195 13.68 7.37316 13.68C6.16101 13.68 5.04 13.3246 4.10127 12.7139C4.27443 12.7322 4.43848 12.7413 4.61165 12.7413C5.61418 12.7413 6.5438 12.3949 7.27291 11.8299C6.33418 11.8116 5.54127 11.1919 5.27696 10.3443V10.3534Z" fill="black"/>
</g>
<defs>
<clipPath id="clip0_11161_22525">
<rect width="18" height="18" fill="white"/>
</clipPath>
</defs>
</svg>
