<svg width="18" height="18" viewBox="0 0 18 18" fill="none" xmlns="http://www.w3.org/2000/svg">
<g clip-path="url(#clip0_17510_2378)">
<path d="M4.12759 3.00005H8.11375C8.67018 3.00005 9.01626 3.5443 8.88646 4.21424L7.03062 13.7757C6.89964 14.4433 6.34253 14.988 5.78571 14.988H1.79994C1.24428 14.988 0.897425 14.4433 1.02723 13.7757L2.88385 4.21424C3.01365 3.5443 3.57048 3.00005 4.12759 3.00005Z" fill="#E21836"/>
<path d="M7.78212 3.00004H12.3661C12.9224 3.00004 12.6716 3.54429 12.5407 4.21422L10.6852 13.7756C10.555 14.4432 10.5956 14.988 10.0381 14.988H5.45409C4.89658 14.988 4.55157 14.4432 4.68254 13.7756L6.538 4.21422C6.66974 3.54429 7.2254 3.00004 7.78212 3.00004Z" fill="#00447C"/>
<path d="M12.1843 3.00004H16.1704C16.7277 3.00004 17.0737 3.54429 16.9429 4.21422L15.0873 13.7756C14.9563 14.4432 14.3988 14.988 13.8417 14.988H9.85741C9.29991 14.988 8.95412 14.4432 9.0847 13.7756L10.9405 4.21422C11.0703 3.54429 11.6268 3.00004 12.1843 3.00004Z" fill="#007B84"/>
</g>
<path d="M5.07448 6.51401C4.66457 6.51817 4.5435 6.51401 4.50484 6.50492C4.48997 6.57526 4.21336 7.84605 4.21258 7.84711C4.15302 8.10421 4.10969 8.28748 3.96249 8.40582C3.87893 8.47462 3.78139 8.50781 3.66829 8.50781C3.48651 8.50781 3.3806 8.41792 3.36282 8.24742L3.35942 8.18888C3.35942 8.18888 3.4148 7.8445 3.4148 7.84257C3.4148 7.84257 3.70512 6.68451 3.7571 6.53143C3.75982 6.52272 3.76059 6.51817 3.76127 6.51401C3.19619 6.51895 3.09602 6.51401 3.08912 6.50492C3.08534 6.5174 3.07134 6.5892 3.07134 6.5892L2.77491 7.89443L2.74946 8.00513L2.7002 8.36721C2.7002 8.47462 2.72138 8.56229 2.76354 8.63641C2.89859 8.87145 3.28383 8.90667 3.50176 8.90667C3.78255 8.90667 4.04595 8.84725 4.22395 8.73878C4.53291 8.55697 4.61375 8.27277 4.68584 8.02022L4.71927 7.89066C4.71927 7.89066 5.01832 6.68789 5.06914 6.53143C5.07108 6.52272 5.07186 6.51817 5.07448 6.51401ZM6.092 7.48429C6.01991 7.48429 5.88816 7.50171 5.76982 7.55948C5.72688 7.58144 5.68626 7.60679 5.64342 7.63205L5.68209 7.493L5.66091 7.46958C5.40994 7.52019 5.35379 7.52696 5.12196 7.55948L5.10253 7.57235C5.07562 7.79461 5.05172 7.96172 4.95193 8.3986C4.91394 8.55962 4.8745 8.72218 4.83495 8.88281L4.84564 8.90322C5.0832 8.89074 5.15529 8.89074 5.36175 8.89413L5.37846 8.87603C5.4047 8.74221 5.4081 8.71086 5.4662 8.43982C5.4935 8.31132 5.55044 8.02897 5.57852 7.92843C5.63011 7.90463 5.68102 7.88121 5.7296 7.88121C5.84532 7.88121 5.83123 7.98175 5.82676 8.02181C5.8218 8.08906 5.77964 8.30871 5.7364 8.4973L5.70754 8.61903C5.68743 8.70892 5.66538 8.7963 5.64526 8.88542L5.65401 8.90322C5.88816 8.89074 5.95957 8.89074 6.15953 8.89413L6.18304 8.87603C6.21918 8.66702 6.22977 8.61109 6.2939 8.30678L6.32616 8.16695C6.38883 7.89331 6.4203 7.75455 6.37289 7.64153C6.32276 7.51487 6.20247 7.48429 6.092 7.48429ZM7.22869 7.7708C7.10423 7.7946 7.02485 7.81047 6.94596 7.82073C6.86774 7.83321 6.79147 7.84453 6.67119 7.86117L6.66167 7.86978L6.65292 7.87666C6.64039 7.96587 6.63165 8.04299 6.61503 8.13366C6.60094 8.22742 6.57928 8.33396 6.54401 8.48704C6.51671 8.60422 6.50262 8.64505 6.48707 8.68627C6.47192 8.72749 6.4552 8.76755 6.4245 8.8828L6.43169 8.89344L6.43772 8.90321C6.55013 8.89789 6.62368 8.89412 6.69927 8.89344C6.77476 8.89073 6.85298 8.89344 6.97404 8.89412L6.98463 8.88551L6.99599 8.87602C7.01348 8.7721 7.01611 8.74413 7.02679 8.69343C7.03738 8.63905 7.05565 8.56377 7.10044 8.3627C7.12162 8.26825 7.14523 8.1741 7.16719 8.07773C7.19002 7.98174 7.21392 7.8872 7.23666 7.79276L7.23326 7.78134L7.22869 7.7708ZM7.23134 7.3845C7.11825 7.31802 6.91975 7.33912 6.78616 7.43095C6.65295 7.52094 6.6378 7.64866 6.7505 7.71601C6.86165 7.78065 7.06093 7.76139 7.19335 7.66879C7.32627 7.57686 7.34288 7.4503 7.23134 7.3845ZM7.9153 8.92405C8.14411 8.92405 8.37865 8.86125 8.55519 8.67488C8.69102 8.52374 8.7533 8.29886 8.77487 8.20626C8.84511 7.89933 8.79041 7.75602 8.72172 7.66874C8.61737 7.53569 8.43296 7.49302 8.24166 7.49302C8.12662 7.49302 7.85263 7.50434 7.63859 7.70087C7.48488 7.84262 7.41386 8.03499 7.37101 8.21942C7.32777 8.40733 7.27803 8.74562 7.5904 8.8715C7.68678 8.91272 7.82572 8.92405 7.9153 8.92405ZM7.89742 8.23345C7.95018 8.00102 8.01246 7.80595 8.17141 7.80595C8.29597 7.80595 8.305 7.95109 8.24962 8.18429C8.23971 8.23606 8.19424 8.42852 8.13274 8.51048C8.0898 8.57096 8.03898 8.60763 7.98282 8.60763C7.96611 8.60763 7.86672 8.60763 7.86516 8.46065C7.86439 8.38808 7.87925 8.31396 7.89742 8.23345ZM9.34685 8.89416L9.36472 8.87606C9.39008 8.74224 9.39426 8.71079 9.45042 8.43985C9.4785 8.31135 9.5366 8.029 9.5639 7.92846C9.61559 7.90456 9.66563 7.88115 9.71576 7.88115C9.8307 7.88115 9.81671 7.98168 9.81214 8.02174C9.80796 8.08909 9.7658 8.30864 9.72178 8.49723L9.69448 8.61896C9.67359 8.70895 9.65086 8.79623 9.63074 8.88545L9.63949 8.90325C9.87442 8.89077 9.94311 8.89077 10.1442 8.89416L10.1685 8.87606C10.2038 8.66696 10.2133 8.61103 10.2794 8.3068L10.3109 8.16689C10.3738 7.89324 10.4057 7.75458 10.3591 7.64156C10.3075 7.5149 10.1864 7.48432 10.0775 7.48432C10.0053 7.48432 9.87287 7.50164 9.75521 7.5595C9.71314 7.58147 9.67097 7.60673 9.62958 7.63208L9.66563 7.49303L9.64629 7.46952C9.39542 7.52022 9.3381 7.52699 9.10657 7.5595L9.08879 7.57237C9.06071 7.79464 9.03788 7.96165 8.9381 8.39863C8.90011 8.55965 8.86066 8.72221 8.82121 8.88283L8.8318 8.90325C9.06975 8.89077 9.14077 8.89077 9.34685 8.89416ZM11.0729 8.9032C11.0877 8.8314 11.1754 8.40584 11.1762 8.40584C11.1762 8.40584 11.2509 8.09359 11.2555 8.08227C11.2555 8.08227 11.279 8.04975 11.3025 8.03688H11.3371C11.6635 8.03688 12.032 8.03688 12.3208 7.82526C12.5174 7.68012 12.6518 7.46579 12.7117 7.2053C12.7273 7.14144 12.7387 7.06548 12.7387 6.98952C12.7387 6.88976 12.7186 6.79106 12.6605 6.71394C12.5132 6.50871 12.2199 6.50493 11.8813 6.50339C11.8802 6.50339 11.7144 6.50493 11.7144 6.50493C11.2809 6.51026 11.1071 6.50871 11.0357 6.5C11.0297 6.53145 11.0183 6.58738 11.0183 6.58738C11.0183 6.58738 10.8631 7.304 10.8631 7.30516C10.8631 7.30516 10.4915 8.82879 10.474 8.90059C10.8525 8.89604 11.0076 8.89604 11.0729 8.9032ZM11.3606 7.63019C11.3606 7.63019 11.5257 6.91502 11.5249 6.91773L11.5303 6.88105L11.5326 6.85309L11.5986 6.85986C11.5986 6.85986 11.939 6.88899 11.947 6.88976C12.0813 6.94153 12.1367 7.07497 12.0981 7.24914C12.0628 7.40831 11.9591 7.54214 11.8259 7.60677C11.7162 7.66154 11.5819 7.66609 11.4434 7.66609H11.3538L11.3606 7.63019ZM12.3884 8.2467C12.3448 8.4319 12.2947 8.77018 12.6055 8.89075C12.7046 8.93274 12.7934 8.94523 12.8836 8.94068C12.9789 8.93555 13.0673 8.88794 13.1491 8.81944C13.1417 8.84759 13.1343 8.87575 13.1269 8.90401L13.141 8.9221C13.3646 8.91271 13.4339 8.91271 13.6762 8.91455L13.6981 8.89791C13.7335 8.69084 13.7668 8.48976 13.8587 8.09362C13.9035 7.90386 13.9482 7.71595 13.9942 7.52697L13.987 7.50617C13.7369 7.55233 13.67 7.5622 13.4295 7.59616L13.4112 7.61096C13.4088 7.63022 13.4063 7.6487 13.4039 7.66718C13.3665 7.607 13.3123 7.55562 13.2286 7.52359C13.1217 7.48169 12.8704 7.53568 12.6544 7.73153C12.5027 7.87135 12.4298 8.06294 12.3884 8.2467ZM12.9137 8.25802C12.9672 8.02975 13.0287 7.83661 13.188 7.83661C13.2888 7.83661 13.3418 7.92922 13.3311 8.08713C13.3225 8.12652 13.3133 8.16803 13.3023 8.21496C13.2864 8.28279 13.2691 8.35004 13.2523 8.41739C13.2352 8.46344 13.2152 8.50689 13.1934 8.53582C13.1524 8.59369 13.0548 8.62959 12.9987 8.62959C12.9827 8.62959 12.8844 8.62959 12.881 8.48522C12.8802 8.41332 12.8951 8.3393 12.9137 8.25802ZM15.6565 7.50432L15.6372 7.48236C15.3897 7.53229 15.3449 7.54022 15.1176 7.5708L15.1009 7.58744C15.1001 7.59015 15.0994 7.59431 15.0982 7.59808L15.0975 7.59431C14.9282 7.9832 14.9332 7.89931 14.7954 8.20547C14.7946 8.19153 14.7946 8.18282 14.7938 8.16802L14.7593 7.50432L14.7377 7.48236C14.4785 7.53229 14.4723 7.54022 14.2329 7.5708L14.2143 7.58744C14.2117 7.59538 14.2117 7.60408 14.2101 7.61357L14.2117 7.61695C14.2416 7.76926 14.2344 7.73529 14.2644 7.97565C14.2784 8.09361 14.2971 8.21224 14.3111 8.32874C14.3347 8.52372 14.3479 8.61971 14.3767 8.91725C14.2151 9.18296 14.1768 9.2835 14.0211 9.5167L14.0222 9.51902L13.9126 9.69165C13.9001 9.70984 13.8887 9.72232 13.8728 9.72764C13.8553 9.73625 13.8325 9.7378 13.801 9.7378H13.7402L13.65 10.0368L13.9596 10.0421C14.1414 10.0413 14.2557 9.95668 14.3172 9.84289L14.5119 9.5106H14.5088L14.5293 9.48719C14.6602 9.20638 15.6565 7.50432 15.6565 7.50432ZM12.3884 11.4312H12.257L12.7432 9.82968H12.9045L12.9557 9.6647L12.9607 9.84816C12.9546 9.96157 13.0442 10.0621 13.2795 10.0455H13.5517L13.6454 9.73708H13.5429C13.4841 9.73708 13.4568 9.72227 13.4602 9.69053L13.4552 9.50388H12.9512V9.50485C12.7883 9.50823 12.3017 9.52042 12.2032 9.54655C12.084 9.57713 11.9584 9.66712 11.9584 9.66712L12.0077 9.50194H11.5363L11.4381 9.82968L10.9454 11.4557H10.8498L10.756 11.7618H11.695L11.6635 11.8639H12.1262L12.1569 11.7618H12.2867L12.3884 11.4312ZM12.0032 10.1551C11.9277 10.1759 11.7872 10.239 11.7872 10.239L11.9121 9.82968H12.2867L12.1963 10.1279C12.1963 10.1279 12.0806 10.1347 12.0032 10.1551ZM12.0104 10.7398C12.0104 10.7398 11.8927 10.7545 11.8153 10.772C11.739 10.795 11.596 10.8676 11.596 10.8676L11.725 10.4416H12.1015L12.0104 10.7398ZM11.8005 11.435H11.4248L11.5337 11.0755H11.9082L11.8005 11.435ZM12.7053 10.4416H13.2469L13.169 10.6926H12.6203L12.5379 10.967H13.0181L12.6545 11.4769C12.629 11.5143 12.6062 11.5276 12.5808 11.5381C12.5554 11.551 12.522 11.5661 12.4833 11.5661H12.3501L12.2586 11.8666H12.607C12.7881 11.8666 12.8951 11.7846 12.974 11.6769L13.2234 11.3371L13.2769 11.6821C13.2883 11.7467 13.3349 11.7846 13.3665 11.7993C13.4013 11.8167 13.4374 11.8466 13.4883 11.8511C13.5429 11.8534 13.5824 11.8552 13.6086 11.8552H13.7798L13.8826 11.5189H13.8151C13.7763 11.5189 13.7095 11.5124 13.6982 11.5003C13.6868 11.4856 13.6868 11.4629 13.6807 11.4285L13.6264 11.0827H13.404L13.5015 10.967H14.0492L14.1334 10.6926H13.6264L13.7054 10.4416H14.2109L14.3046 10.1321H12.7975L12.7053 10.4416ZM8.13121 11.5049L8.25761 11.0861H8.77712L8.87205 10.7746H8.35205L8.43143 10.5168H8.93957L9.03372 10.2152H7.76229L7.67009 10.5168H7.95894L7.88189 10.7746H7.59226L7.49627 11.0914H7.78503L7.61655 11.6455C7.59382 11.7188 7.62724 11.7468 7.64842 11.7808C7.67009 11.814 7.69204 11.836 7.7414 11.8485C7.79231 11.8598 7.82719 11.8666 7.87461 11.8666H8.46028L8.56463 11.5215L8.30502 11.557C8.25489 11.557 8.11605 11.551 8.13121 11.5049ZM8.19079 9.50006L8.05914 9.73703C8.03097 9.7888 8.00561 9.82092 7.98277 9.83573C7.96266 9.84821 7.92283 9.85343 7.86511 9.85343H7.79642L7.70461 10.1566H7.93274C8.04243 10.1566 8.12667 10.1165 8.16689 10.0965C8.21013 10.0735 8.2215 10.0866 8.25492 10.0545L8.33197 9.98803H9.04434L9.13888 9.67239H8.61742L8.70846 9.50006H8.19079ZM9.24249 11.511C9.23034 11.4935 9.23909 11.4629 9.25764 11.399L9.45235 10.7572H10.145C10.2459 10.7557 10.3188 10.7546 10.3662 10.7512C10.4171 10.7458 10.4725 10.7278 10.5329 10.6952C10.5951 10.6612 10.627 10.6253 10.6539 10.5841C10.6839 10.5429 10.7321 10.4529 10.7735 10.3142L11.0183 9.50196L10.2995 9.50612C10.2995 9.50612 10.0782 9.53864 9.9807 9.57453C9.88238 9.61459 9.74189 9.72645 9.74189 9.72645L9.80679 9.5038H9.36277L8.74114 11.557C8.71909 11.6367 8.70432 11.6946 8.70092 11.7293C8.69975 11.7668 8.74833 11.8039 8.77981 11.8318C8.81702 11.8598 8.87202 11.8552 8.92478 11.8598C8.98025 11.8639 9.05915 11.8666 9.16806 11.8666H9.50929L9.61402 11.5143L9.30855 11.5431C9.27591 11.5431 9.2523 11.5257 9.24249 11.511ZM9.57798 10.3237H10.3055L10.2593 10.468C10.2528 10.4714 10.2372 10.4609 10.1632 10.4696H9.53319L9.57798 10.3237ZM9.72372 9.83947H10.4574L10.4046 10.0134C10.4046 10.0134 10.0588 10.01 10.0034 10.0201C9.75976 10.0621 9.61742 10.1918 9.61742 10.1918L9.72372 9.83947ZM10.2755 10.9515C10.2695 10.9731 10.26 10.9862 10.2467 10.9961C10.2319 11.0056 10.208 11.009 10.1724 11.009H10.0687L10.0748 10.8332H9.64362L9.62613 11.6927C9.62545 11.7547 9.63147 11.7906 9.67704 11.8194C9.72261 11.8553 9.863 11.8598 10.052 11.8598H10.3222L10.4197 11.5381L10.1845 11.5509L10.1063 11.5555C10.0956 11.5509 10.0854 11.5468 10.074 11.5355C10.0641 11.5257 10.0474 11.5317 10.0501 11.4697L10.052 11.2493L10.2987 11.2392C10.4319 11.2392 10.4888 11.196 10.5374 11.1549C10.5837 11.1155 10.5989 11.0702 10.6164 11.009L10.6578 10.8139H10.3188L10.2755 10.9515Z" fill="#FEFEFE"/>
<defs>
<clipPath id="clip0_17510_2378">
<rect width="16" height="12" fill="white" transform="translate(1 3)"/>
</clipPath>
</defs>
</svg>
