<?xml version="1.0" encoding="utf-8"?>
<!-- Generator: Adobe Illustrator 27.5.0, SVG Export Plug-In . SVG Version: 6.00 Build 0)  -->
<svg version="1.1" id="Layer_1" xmlns="http://www.w3.org/2000/svg" xmlns:xlink="http://www.w3.org/1999/xlink" x="0px" y="0px"
	 viewBox="0 0 18 18" style="enable-background:new 0 0 18 18;" xml:space="preserve">
<path d="M17,3H1C0.4,3,0,3.4,0,4v10c0,0.6,0.4,1,1,1h16c0.6,0,1-0.4,1-1V4C18,3.4,17.6,3,17,3z M6.3,10.4H3.9C3.4,10.4,3,10,3,9.5
	s0.4-0.9,0.9-0.9h2.4c0.5,0,0.9,0.4,0.9,0.9S6.8,10.4,6.3,10.4z M14.1,7.4H3.9C3.4,7.4,3,7,3,6.5C3,6,3.4,5.6,3.9,5.6h10.2
	C14.6,5.6,15,6,15,6.5C15,7,14.6,7.4,14.1,7.4z"/>
</svg>
