<svg width="18" height="18" viewBox="0 0 18 18" fill="none" xmlns="http://www.w3.org/2000/svg">
<path d="M11.654 10.226V13.44H10.779V10.226C10.779 9.50102 10.191 8.91402 9.46598 8.91402H8.54198C7.81698 8.91402 7.22898 9.50102 7.22898 10.226V13.44H6.35398V10.226C6.35398 9.50102 5.76698 8.91402 5.04198 8.91402H4.18898C3.46398 8.91402 2.87598 9.50102 2.87598 10.226V13.44H2.00098V10.226C2.00098 9.01802 2.98098 8.03902 4.18898 8.03902H5.04198C5.75698 8.03902 6.39198 8.38202 6.79198 8.91302C6.99565 8.64132 7.25987 8.42086 7.56366 8.26914C7.86744 8.11742 8.20241 8.03863 8.54198 8.03902H9.46598C10.182 8.03902 10.817 8.38202 11.216 8.91302C11.4197 8.64132 11.6839 8.42086 11.9877 8.26914C12.2914 8.11742 12.6264 8.03863 12.966 8.03902H13.846C15.053 8.03902 16.033 9.01902 16.033 10.226V13.44H15.158V10.226C15.158 9.50102 14.57 8.91402 13.845 8.91402H12.966C12.241 8.91402 11.654 9.50102 11.654 10.226ZM4.40998 7.01002C3.91508 7.01002 3.44046 6.81342 3.09052 6.46348C2.74057 6.11353 2.54398 5.63891 2.54398 5.14402C2.54398 4.64912 2.74057 4.1745 3.09052 3.82455C3.44046 3.47461 3.91508 3.27802 4.40998 3.27802C4.90487 3.27802 5.3795 3.47461 5.72944 3.82455C6.07938 4.1745 6.27598 4.64912 6.27598 5.14402C6.27598 5.63891 6.07938 6.11353 5.72944 6.46348C5.3795 6.81342 4.90487 7.01002 4.40998 7.01002ZM4.40998 6.13502C4.67281 6.13502 4.92487 6.03061 5.11072 5.84476C5.29657 5.65891 5.40098 5.40684 5.40098 5.14402C5.40098 4.88119 5.29657 4.62912 5.11072 4.44327C4.92487 4.25742 4.67281 4.15302 4.40998 4.15302C4.14715 4.15302 3.89508 4.25742 3.70923 4.44327C3.52339 4.62912 3.41898 4.88119 3.41898 5.14402C3.41898 5.40684 3.52339 5.65891 3.70923 5.84476C3.89508 6.03061 4.14715 6.13502 4.40998 6.13502ZM8.90998 7.01002C8.41508 7.01002 7.94046 6.81342 7.59052 6.46348C7.24057 6.11353 7.04398 5.63891 7.04398 5.14402C7.04398 4.64912 7.24057 4.1745 7.59052 3.82455C7.94046 3.47461 8.41508 3.27802 8.90998 3.27802C9.40487 3.27802 9.8795 3.47461 10.2294 3.82455C10.5794 4.1745 10.776 4.64912 10.776 5.14402C10.776 5.63891 10.5794 6.11353 10.2294 6.46348C9.8795 6.81342 9.40487 7.01002 8.90998 7.01002ZM8.90998 6.13502C9.17281 6.13502 9.42487 6.03061 9.61072 5.84476C9.79657 5.65891 9.90098 5.40684 9.90098 5.14402C9.90098 4.88119 9.79657 4.62912 9.61072 4.44327C9.42487 4.25742 9.17281 4.15302 8.90998 4.15302C8.64715 4.15302 8.39508 4.25742 8.20923 4.44327C8.02339 4.62912 7.91898 4.88119 7.91898 5.14402C7.91898 5.40684 8.02339 5.65891 8.20923 5.84476C8.39508 6.03061 8.64715 6.13502 8.90998 6.13502ZM13.41 7.01002C12.9151 7.01002 12.4405 6.81342 12.0905 6.46348C11.7406 6.11353 11.544 5.63891 11.544 5.14402C11.544 4.64912 11.7406 4.1745 12.0905 3.82455C12.4405 3.47461 12.9151 3.27802 13.41 3.27802C13.9049 3.27802 14.3795 3.47461 14.7294 3.82455C15.0794 4.1745 15.276 4.64912 15.276 5.14402C15.276 5.63891 15.0794 6.11353 14.7294 6.46348C14.3795 6.81342 13.9049 7.01002 13.41 7.01002ZM13.41 6.13502C13.6728 6.13502 13.9249 6.03061 14.1107 5.84476C14.2966 5.65891 14.401 5.40684 14.401 5.14402C14.401 4.88119 14.2966 4.62912 14.1107 4.44327C13.9249 4.25742 13.6728 4.15302 13.41 4.15302C13.1471 4.15302 12.8951 4.25742 12.7092 4.44327C12.5234 4.62912 12.419 4.88119 12.419 5.14402C12.419 5.40684 12.5234 5.65891 12.7092 5.84476C12.8951 6.03061 13.1471 6.13502 13.41 6.13502Z" fill="black"/>
</svg>
