<svg width="18" height="18" viewBox="0 0 18 18" fill="none" xmlns="http://www.w3.org/2000/svg">
<path d="M9 3C9.66569 3 10.3041 3.26445 10.7748 3.73516C11.2456 4.20588 11.51 4.84431 11.51 5.51C11.51 6.17569 11.2456 6.81412 10.7748 7.28484C10.3041 7.75556 9.66569 8.02 9 8.02C8.33431 8.02 7.69588 7.75556 7.22516 7.28484C6.75445 6.81412 6.49 6.17569 6.49 5.51C6.49 4.84431 6.75445 4.20588 7.22516 3.73516C7.69588 3.26445 8.33431 3 9 3ZM9 2C8.06909 2 7.17631 2.3698 6.51806 3.02806C5.8598 3.68631 5.49 4.57909 5.49 5.51C5.49 6.44091 5.8598 7.33369 6.51806 7.99195C7.17631 8.6502 8.06909 9.02 9 9.02C9.93091 9.02 10.8237 8.6502 11.4819 7.99195C12.1402 7.33369 12.51 6.44091 12.51 5.51C12.51 4.57909 12.1402 3.68631 11.4819 3.02806C10.8237 2.3698 9.93091 2 9 2ZM15 13V16H14V13C14 12.6022 13.842 12.2206 13.5607 11.9393C13.2794 11.658 12.8978 11.5 12.5 11.5H5.5C5.10218 11.5 4.72064 11.658 4.43934 11.9393C4.15804 12.2206 4 12.6022 4 13V16H3V13C3 12.337 3.26339 11.7011 3.73223 11.2322C4.20107 10.7634 4.83696 10.5 5.5 10.5H12.5C13.163 10.5 13.7989 10.7634 14.2678 11.2322C14.7366 11.7011 15 12.337 15 13Z" fill="black"/>
</svg>
