<svg width="15" height="15" viewBox="0 0 15 15" fill="none" xmlns="http://www.w3.org/2000/svg">
<path d="M6 1C6.66569 1 7.30412 1.26445 7.77484 1.73516C8.24556 2.20588 8.51 2.84431 8.51 3.51C8.51 4.17569 8.24556 4.81412 7.77484 5.28484C7.30412 5.75556 6.66569 6.02 6 6.02C5.33431 6.02 4.69588 5.75556 4.22516 5.28484C3.75445 4.81412 3.49 4.17569 3.49 3.51C3.49 2.84431 3.75445 2.20588 4.22516 1.73516C4.69588 1.26445 5.33431 1 6 1V1ZM6 0C5.06909 0 4.17631 0.369803 3.51806 1.02806C2.8598 1.68631 2.49 2.57909 2.49 3.51C2.49 4.44091 2.8598 5.33369 3.51806 5.99195C4.17631 6.6502 5.06909 7.02 6 7.02C6.93091 7.02 7.82369 6.6502 8.48195 5.99195C9.1402 5.33369 9.51 4.44091 9.51 3.51C9.51 2.57909 9.1402 1.68631 8.48195 1.02806C7.82369 0.369803 6.93091 0 6 0V0ZM12 11V14H11V11C11 10.6022 10.842 10.2206 10.5607 9.93934C10.2794 9.65804 9.89783 9.5 9.5 9.5H2.5C2.10218 9.5 1.72064 9.65804 1.43934 9.93934C1.15804 10.2206 1 10.6022 1 11V14H0V11C0 10.337 0.263392 9.70108 0.732233 9.23223C1.20107 8.76339 1.83696 8.5 2.5 8.5H9.5C10.163 8.5 10.7989 8.76339 11.2678 9.23223C11.7366 9.70108 12 10.337 12 11Z" fill="black"/>
<circle cx="11" cy="11" r="4" fill="white"/>
<path fill-rule="evenodd" clip-rule="evenodd" d="M11 15C13.2091 15 15 13.2091 15 11C15 8.79086 13.2091 7 11 7C8.79086 7 7 8.79086 7 11C7 13.2091 8.79086 15 11 15ZM12.8837 10.2834C13.039 10.1421 13.0387 9.91328 12.8831 9.77227C12.7274 9.63126 12.4752 9.6315 12.3199 9.7728L10.4649 11.4599L9.6804 10.7449C9.52521 10.6035 9.27306 10.603 9.11722 10.7439C8.96138 10.8848 8.96086 11.1136 9.11606 11.2551L10.1824 12.2269C10.2571 12.295 10.3586 12.3333 10.4644 12.3333C10.5702 12.3334 10.6717 12.2952 10.7465 12.2272L12.8837 10.2834Z" fill="#00674A"/>
</svg>
