<?xml version="1.0" encoding="utf-8"?>
<!-- Generator: Adobe Illustrator 28.0.0, SVG Export Plug-In . SVG Version: 6.00 Build 0)  -->
<svg version="1.1" id="Layer_1" xmlns="http://www.w3.org/2000/svg" xmlns:xlink="http://www.w3.org/1999/xlink" x="0px" y="0px"
	 viewBox="0 0 18 18" style="enable-background:new 0 0 18 18;" xml:space="preserve">
<style type="text/css">
	.st0{fill-rule:evenodd;clip-rule:evenodd;}
</style>
<path d="M9,3c0.7,0,1.3,0.3,1.8,0.7c0.5,0.5,0.7,1.1,0.7,1.8s-0.3,1.3-0.7,1.8C10.3,7.8,9.7,8,9,8S7.7,7.8,7.2,7.3
	C6.8,6.8,6.5,6.2,6.5,5.5s0.3-1.3,0.7-1.8C7.7,3.3,8.3,3,9,3z M9,2C8.1,2,7.2,2.4,6.5,3c-0.7,0.7-1,1.6-1,2.5s0.4,1.8,1,2.5
	C7.2,8.7,8.1,9,9,9s1.8-0.4,2.5-1c0.7-0.7,1-1.6,1-2.5s-0.4-1.8-1-2.5C10.8,2.4,9.9,2,9,2z M12.5,11.5h-7c-0.4,0-0.8,0.2-1.1,0.4
	C4.2,12.2,4,12.6,4,13v3H3v-3c0-0.7,0.3-1.3,0.7-1.8c0.5-0.5,1.1-0.7,1.8-0.7h7V11.5z"/>
<path class="st0" d="M14,17c2.2,0,4-1.8,4-4s-1.8-4-4-4s-4,1.8-4,4S11.8,17,14,17z M15.9,12.3c0.2-0.1,0.2-0.4,0-0.5
	c-0.2-0.1-0.4-0.1-0.6,0l-1.9,1.7l-0.8-0.7c-0.2-0.1-0.4-0.1-0.6,0c-0.2,0.1-0.2,0.4,0,0.5l1.1,1c0.1,0.1,0.2,0.1,0.3,0.1
	c0.1,0,0.2,0,0.3-0.1L15.9,12.3z"/>
</svg>
