<svg width="18" height="18" viewBox="0 0 18 18" fill="none" xmlns="http://www.w3.org/2000/svg">
<path fill-rule="evenodd" clip-rule="evenodd" d="M5.20018 3.08L4.70018 4.26C4.6144 4.45701 4.45719 4.61422 4.26018 4.7L3.09018 5.2C2.66095 5.38141 2.31997 5.72391 2.14048 6.15395C1.96098 6.58399 1.95728 7.06727 2.13018 7.5L2.61018 8.68C2.69191 8.88205 2.69191 9.10795 2.61018 9.31L2.13018 10.5C1.77018 11.4 2.19018 12.42 3.08018 12.8L4.26018 13.3C4.46018 13.38 4.62018 13.54 4.70018 13.74L5.20018 14.92C5.38346 15.3474 5.72675 15.6862 6.15659 15.8637C6.58643 16.0412 7.06869 16.0435 7.50018 15.87L8.68018 15.39C8.88515 15.3055 9.1152 15.3055 9.32018 15.39L10.5002 15.87C10.9317 16.0435 11.4139 16.0412 11.8438 15.8637C12.2736 15.6862 12.6169 15.3474 12.8002 14.92L13.3002 13.74C13.386 13.543 13.5432 13.3858 13.7402 13.3L14.9102 12.8C15.3394 12.6186 15.6804 12.2761 15.8599 11.8461C16.0394 11.416 16.0431 10.9327 15.8702 10.5L15.3902 9.32C15.3095 9.11775 15.3095 8.89225 15.3902 8.69L15.8702 7.5C16.2302 6.6 15.8102 5.58 14.9102 5.2L13.7402 4.7C13.5432 4.61422 13.386 4.45701 13.3002 4.26L12.8002 3.09C12.6644 2.76711 12.4364 2.49145 12.1446 2.29756C11.8529 2.10367 11.5105 2.00016 11.1602 2C10.9402 2 10.7102 2.04 10.5002 2.13L9.32018 2.61C9.11793 2.6907 8.89243 2.6907 8.69018 2.61L7.50018 2.13C7.06869 1.9565 6.58643 1.95876 6.15659 2.13631C5.72675 2.31385 5.38346 2.65257 5.20018 3.08ZM9.67018 3.48L10.8502 3C11.0546 2.91681 11.2835 2.91738 11.4874 3.00158C11.6914 3.08578 11.854 3.24686 11.9402 3.45L12.4402 4.62C12.6102 5.05 12.9502 5.38 13.3802 5.57L14.5502 6.07C14.7485 6.15616 14.9059 6.31547 14.9897 6.51477C15.0735 6.71407 15.0773 6.93801 15.0002 7.14L14.5302 8.32C14.3556 8.74962 14.3556 9.23039 14.5302 9.66L15.0002 10.84C15.0834 11.0444 15.0828 11.2733 14.9986 11.4772C14.9144 11.6812 14.7533 11.8438 14.5502 11.93L13.3802 12.43C12.9502 12.6 12.6202 12.94 12.4302 13.37L11.9302 14.54C11.844 14.7407 11.683 14.8999 11.4814 14.984C11.2798 15.068 11.0534 15.0701 10.8502 14.99L9.67018 14.51C9.24057 14.3355 8.75979 14.3355 8.33018 14.51L7.15018 15C6.9458 15.0832 6.7169 15.0826 6.51294 14.9984C6.30898 14.9142 6.14634 14.7531 6.06018 14.55L5.56018 13.38C5.38213 12.9533 5.04501 12.6126 4.62018 12.43L3.45018 11.93C3.25188 11.8438 3.09445 11.6845 3.01063 11.4852C2.92681 11.2859 2.92307 11.062 3.00018 10.86L3.48018 9.68C3.65472 9.25039 3.65472 8.76962 3.48018 8.34L3.00018 7.15C2.91699 6.94563 2.91756 6.71672 3.00176 6.51276C3.08596 6.3088 3.24704 6.14617 3.45018 6.06L4.62018 5.56C5.05018 5.39 5.39018 5.05 5.57018 4.62L6.07018 3.45C6.15634 3.2517 6.31565 3.09427 6.51495 3.01045C6.71425 2.92663 6.93819 2.92289 7.14018 3L8.32018 3.47C8.74979 3.64455 9.23057 3.64455 9.66018 3.47L9.67018 3.48ZM11.4102 6.86L8.10018 10.17L6.78018 8.85C6.72831 8.79747 6.6666 8.75567 6.59857 8.727C6.53055 8.69832 6.45754 8.68331 6.38371 8.68285C6.30989 8.68239 6.2367 8.69647 6.16832 8.72429C6.09994 8.75211 6.03771 8.79313 5.98518 8.845C5.87909 8.94976 5.81897 9.09237 5.81803 9.24147C5.81757 9.31529 5.83165 9.38848 5.85947 9.45686C5.88729 9.52524 5.92831 9.58747 5.98018 9.64L7.70018 11.36C7.92018 11.58 8.28018 11.58 8.50018 11.36L12.2002 7.66C12.2534 7.60786 12.2957 7.54562 12.3245 7.47694C12.3534 7.40826 12.3683 7.3345 12.3683 7.26C12.3683 7.1855 12.3534 7.11175 12.3245 7.04306C12.2957 6.97438 12.2534 6.91214 12.2002 6.86C12.0952 6.75558 11.9532 6.69696 11.8052 6.69696C11.6571 6.69696 11.5151 6.75558 11.4102 6.86Z" fill="black"/>
</svg>
