<svg width="18" height="18" viewBox="0 0 18 18" fill="none" xmlns="http://www.w3.org/2000/svg">
<g clip-path="url(#clip0_17510_2250)">
<rect x="1" y="3" width="16" height="12" rx="1" fill="#172B85"/>
<path fill-rule="evenodd" clip-rule="evenodd" d="M6.00013 10.9688H4.9616L4.18284 7.86576C4.14587 7.72302 4.06739 7.59682 3.95194 7.53735C3.66383 7.38788 3.34634 7.26893 3 7.20894V7.08947H4.67298C4.90388 7.08947 5.07705 7.26893 5.10591 7.47736L5.50998 9.71572L6.548 7.08947H7.55766L6.00013 10.9688Z" fill="white"/>
<path fill-rule="evenodd" clip-rule="evenodd" d="M8.1351 10.9688H7.1543L7.96193 7.08947H8.94273L8.1351 10.9688Z" fill="white"/>
<path fill-rule="evenodd" clip-rule="evenodd" d="M10.2116 8.16417C10.2405 7.95523 10.4137 7.83576 10.6157 7.83576C10.9332 7.80577 11.279 7.86576 11.5676 8.01471L11.7408 7.17946C11.4522 7.05999 11.1347 7 10.8466 7C9.89464 7 9.20195 7.53735 9.20195 8.28313C9.20195 8.85047 9.69261 9.14837 10.039 9.32783C10.4137 9.50678 10.558 9.62625 10.5291 9.80519C10.5291 10.0736 10.2405 10.1931 9.95237 10.1931C9.60602 10.1931 9.25968 10.1036 8.9427 9.95414L8.76953 10.7899C9.11588 10.9389 9.49057 10.9988 9.83692 10.9988C10.9043 11.0283 11.5676 10.4915 11.5676 9.68572C11.5676 8.67101 10.2116 8.61154 10.2116 8.16417Z" fill="white"/>
<path fill-rule="evenodd" clip-rule="evenodd" d="M14.2212 7.08947L15 10.9688H14.1058L13.9903 10.402H12.7498L12.5482 10.9688H11.5386L12.9807 7.38788C13.0384 7.20894 13.2116 7.08947 13.3847 7.08947H14.2212ZM13.8255 9.54914L13.5374 8.08707L13.0179 9.54914H13.8255Z" fill="white"/>
</g>
<defs>
<clipPath id="clip0_17510_2250">
<rect x="1" y="3" width="16" height="12" rx="1" fill="white"/>
</clipPath>
</defs>
</svg>
