<svg width="18" height="18" viewBox="0 0 18 18" fill="none" xmlns="http://www.w3.org/2000/svg">
<g clip-path="url(#clip0_6762_1224)">
<path d="M16.4998 3.30005H1.4998C0.837063 3.30005 0.299805 3.83731 0.299805 4.50005V13.5001C0.299805 14.1628 0.837063 14.7001 1.4998 14.7001H16.4998C17.1625 14.7001 17.6998 14.1628 17.6998 13.5001V4.50005C17.6998 3.83731 17.1625 3.30005 16.4998 3.30005Z" fill="#EFEFEF" stroke="#E7E7E7" stroke-width="0.666667"/>
<path fill-rule="evenodd" clip-rule="evenodd" d="M0 11.4001V13.8013C0 14.4637 0.5388 15.0001 1.1952 15.0001H16.8048C17.4648 15.0001 18 14.4613 18 13.8013V11.4001H0Z" fill="#FFB44F"/>
<path fill-rule="evenodd" clip-rule="evenodd" d="M1.1952 3C0.5352 3 0 3.5388 0 4.1988V6.6H18V4.1988C17.9998 3.88153 17.874 3.57725 17.65 3.35257C17.426 3.12788 17.1221 3.00111 16.8048 3H1.1952Z" fill="#4287CB"/>
</g>
<defs>
<clipPath id="clip0_6762_1224">
<rect width="18" height="18" fill="white"/>
</clipPath>
</defs>
</svg>
