<svg width="20" height="20" viewBox="0 0 20 20" fill="none" xmlns="http://www.w3.org/2000/svg">
<path fill-rule="evenodd" clip-rule="evenodd" d="M16.1588 14.6922C17.1466 13.9756 17.7777 12.9178 17.7777 11.74C17.7777 9.58446 15.6799 7.83668 13.0922 7.83668C10.5044 7.83668 8.40661 9.58446 8.40661 11.74C8.40661 13.8967 10.5044 15.6445 13.0922 15.6445C13.6266 15.6445 14.1433 15.5689 14.6222 15.4311L14.7588 15.41C14.8499 15.41 14.9311 15.4378 15.0077 15.4822L16.0344 16.0745L16.1233 16.1034C16.1439 16.1036 16.1644 16.0998 16.1835 16.0922C16.2026 16.0845 16.22 16.0731 16.2347 16.0586C16.2494 16.0441 16.2611 16.0269 16.269 16.0078C16.277 15.9888 16.2811 15.9684 16.2811 15.9478L16.2555 15.8334L16.0444 15.0456L16.0277 14.9456C16.0278 14.896 16.0397 14.8471 16.0625 14.803C16.0853 14.7589 16.1184 14.721 16.1588 14.6922ZM7.84439 3.52557C4.73995 3.52557 2.22217 5.62335 2.22217 8.21113C2.22217 9.62224 2.97883 10.8945 4.16439 11.7534C4.25995 11.82 4.32217 11.9311 4.32217 12.0578L4.30217 12.1778L4.04883 13.1222L4.01884 13.2589C4.01884 13.3634 4.10328 13.4478 4.20661 13.4478L4.3155 13.4122L5.5455 12.7011C5.63556 12.646 5.73879 12.616 5.84439 12.6145L6.00884 12.64C6.6057 12.8109 7.22356 12.8972 7.84439 12.8967L8.15328 12.8889C8.02888 12.519 7.96509 12.1314 7.96439 11.7411C7.96439 9.38113 10.2599 7.4678 13.0922 7.4678L13.3977 7.47557C12.9744 5.2378 10.6499 3.52557 7.84439 3.52557ZM11.5299 11.1167C11.4479 11.1166 11.3666 11.1004 11.2908 11.0689C11.215 11.0374 11.1462 10.9913 11.0882 10.9332C11.0302 10.8751 10.9842 10.8062 10.9529 10.7303C10.9215 10.6545 10.9054 10.5732 10.9055 10.4911C10.9056 10.4091 10.9218 10.3278 10.9533 10.252C10.9848 10.1762 11.0309 10.1073 11.089 10.0494C11.147 9.99137 11.216 9.94539 11.2918 9.91405C11.3677 9.88271 11.449 9.86661 11.5311 9.86668C11.6968 9.86668 11.8558 9.93253 11.973 10.0497C12.0902 10.167 12.1561 10.3259 12.1561 10.4917C12.1561 10.6574 12.0902 10.8164 11.973 10.9336C11.8558 11.0508 11.6968 11.1167 11.5311 11.1167H11.5299ZM14.6544 11.1167C14.4886 11.1167 14.3297 11.0508 14.2125 10.9336C14.0952 10.8164 14.0294 10.6574 14.0294 10.4917C14.0294 10.3259 14.0952 10.167 14.2125 10.0497C14.3297 9.93253 14.4886 9.86668 14.6544 9.86668C14.8202 9.86668 14.9791 9.93253 15.0963 10.0497C15.2135 10.167 15.2794 10.3259 15.2794 10.4917C15.2794 10.6574 15.2135 10.8164 15.0963 10.9336C14.9791 11.0508 14.8202 11.1167 14.6544 11.1167ZM5.96995 7.46113C5.8716 7.46113 5.77422 7.44176 5.68336 7.40412C5.5925 7.36649 5.50994 7.31133 5.4404 7.24179C5.37086 7.17224 5.3157 7.08969 5.27806 6.99883C5.24043 6.90797 5.22106 6.81059 5.22106 6.71224C5.22106 6.61389 5.24043 6.51651 5.27806 6.42565C5.3157 6.33479 5.37086 6.25224 5.4404 6.1827C5.50994 6.11316 5.5925 6.05799 5.68336 6.02036C5.77422 5.98272 5.8716 5.96335 5.96995 5.96335C6.16856 5.96335 6.35905 6.04225 6.49949 6.1827C6.63993 6.32314 6.71884 6.51362 6.71884 6.71224C6.71884 6.91086 6.63993 7.10134 6.49949 7.24179C6.35905 7.38223 6.16856 7.46113 5.96995 7.46113ZM9.71884 7.46113C9.62049 7.46113 9.52311 7.44176 9.43225 7.40412C9.34139 7.36649 9.25883 7.31133 9.18929 7.24179C9.11975 7.17224 9.06459 7.08969 9.02695 6.99883C8.98932 6.90797 8.96995 6.81059 8.96995 6.71224C8.96995 6.61389 8.98932 6.51651 9.02695 6.42565C9.06459 6.33479 9.11975 6.25224 9.18929 6.1827C9.25883 6.11316 9.34139 6.05799 9.43225 6.02036C9.52311 5.98272 9.62049 5.96335 9.71884 5.96335C9.91745 5.96335 10.1079 6.04225 10.2484 6.1827C10.3888 6.32314 10.4677 6.51362 10.4677 6.71224C10.4677 6.91086 10.3888 7.10134 10.2484 7.24179C10.1079 7.38223 9.91745 7.46113 9.71884 7.46113Z" fill="black"/>
</svg>
