<svg width="18" height="18" viewBox="0 0 18 18" fill="none" xmlns="http://www.w3.org/2000/svg">
<g clip-path="url(#clip0_11161_22531)">
<path d="M8.37922 7.173C8.43322 7.227 8.50522 7.263 8.57722 7.281C8.64922 7.299 8.73022 7.308 8.80222 7.299C8.92822 7.281 9.05422 7.218 9.13522 7.119C9.22522 7.02 9.27022 6.894 9.27022 6.759C9.27022 6.624 9.22522 6.498 9.13522 6.399C9.04522 6.3 8.92822 6.237 8.80222 6.219C8.73022 6.21 8.64922 6.219 8.57722 6.237C8.50522 6.255 8.43322 6.3 8.37922 6.345C8.32522 6.399 8.27122 6.462 8.24422 6.525C8.20822 6.597 8.19922 6.669 8.19922 6.75C8.19922 6.831 8.21722 6.903 8.24422 6.975C8.28022 7.047 8.32522 7.11 8.37922 7.155V7.173Z" fill="black"/>
<path d="M10.1071 9C10.0441 8.991 9.97211 8.991 9.90911 9C9.84611 9.018 9.78311 9.045 9.72911 9.09C9.67511 9.135 9.63011 9.189 9.60311 9.252C9.57611 9.315 9.55811 9.378 9.55811 9.45C9.55811 9.522 9.57611 9.585 9.60311 9.648C9.63011 9.711 9.67511 9.765 9.72911 9.81C9.78311 9.855 9.84611 9.882 9.90911 9.9C9.97211 9.918 10.0441 9.918 10.1071 9.9C10.2241 9.9 10.3411 9.846 10.4221 9.765C10.5031 9.684 10.5571 9.567 10.5571 9.45C10.5571 9.333 10.5121 9.216 10.4221 9.135C10.3411 9.054 10.2241 9 10.1071 9Z" fill="black"/>
<path d="M6.31811 6.264C6.21911 6.219 6.11111 6.21 6.00311 6.228C5.89511 6.246 5.80511 6.3 5.72411 6.372C5.65211 6.444 5.59811 6.543 5.57111 6.651C5.54411 6.759 5.56211 6.867 5.59811 6.966C5.63411 7.065 5.70611 7.146 5.79611 7.209C5.88611 7.272 5.99411 7.299 6.09311 7.299C6.16511 7.299 6.23711 7.29 6.30011 7.263C6.36311 7.236 6.42611 7.2 6.47111 7.146C6.51611 7.092 6.56111 7.038 6.58811 6.975C6.61511 6.912 6.63311 6.84 6.63311 6.768C6.63311 6.66 6.60611 6.552 6.54311 6.462C6.48911 6.372 6.39911 6.3 6.30011 6.255L6.31811 6.264Z" fill="black"/>
<path d="M15.3671 2.63288C14.1101 1.37582 12.5068 0.51956 10.7579 0.173413C9.00894 -0.172735 7.20533 0.000338853 5.55658 0.683524C3.90782 1.36671 2.50501 2.52357 1.52123 3.99925C0.52833 5.48404 0 7.22389 0 9.00017C0 11.3868 0.947351 13.6732 2.64165 15.3583C4.33595 17.0435 6.61324 17.9909 8.99983 18C10.7761 18 12.516 17.4717 14.0007 16.4788C15.4764 15.4859 16.6333 14.0831 17.3165 12.4434C17.9997 10.7947 18.1727 8.99106 17.8266 7.24211C17.4804 5.49315 16.6242 3.88994 15.3671 2.63288ZM7.48771 11.2592C7.04137 11.2592 6.58591 11.1955 6.15778 11.0679H6.03025C5.95738 11.0679 5.8754 11.0953 5.81163 11.1317L4.90072 11.6509C4.90072 11.6509 4.85517 11.66 4.82784 11.6509C4.79141 11.6509 4.75497 11.6327 4.72764 11.6145C4.70032 11.5872 4.6821 11.5507 4.6821 11.5143C4.6821 11.4779 4.6821 11.4414 4.6821 11.405C4.69121 11.3868 4.80052 10.9769 4.86428 10.7218C4.86428 10.6945 4.86428 10.658 4.86428 10.6307C4.86428 10.5852 4.85517 10.5487 4.83695 10.5032C4.81874 10.4667 4.7823 10.4303 4.74586 10.4121C4.32684 10.1206 3.98069 9.73801 3.73475 9.29166C3.4888 8.84531 3.35216 8.34431 3.33395 7.8342C3.33395 5.94861 5.17399 4.4456 7.43306 4.4456C8.34397 4.37273 9.24578 4.61867 9.99273 5.13789C10.7397 5.65712 11.2862 6.42228 11.5322 7.30587H11.3044C9.24578 7.30587 7.5697 8.69957 7.5697 10.4212C7.5697 10.7036 7.62435 10.986 7.71544 11.2592H7.48771ZM14.3378 11.5872C14.1283 11.9606 13.8368 12.2795 13.4815 12.5163V12.5527C13.4815 12.5527 13.436 12.6074 13.4178 12.6347C13.3995 12.662 13.3995 12.6985 13.3995 12.7349C13.3995 12.7622 13.3995 12.7805 13.3995 12.8078C13.4633 13.0264 13.5544 13.3817 13.5544 13.3817C13.5544 13.409 13.5544 13.4363 13.5544 13.4636C13.5453 13.4819 13.5271 13.5001 13.5089 13.5092C13.4906 13.5183 13.4724 13.5274 13.4542 13.5274H13.3904L12.6435 13.0993C12.5888 13.0628 12.5342 13.0446 12.4704 13.0446H12.3702C12.0058 13.1539 11.6324 13.2086 11.2498 13.2086C9.3642 13.2086 7.83386 11.9333 7.83386 10.3665C7.83386 8.79977 9.3642 7.52449 11.2498 7.52449C13.1354 7.52449 14.6657 8.79977 14.6657 10.3665C14.6566 10.7947 14.5382 11.2137 14.3378 11.5872Z" fill="black"/>
<path d="M12.3479 8.991C12.2309 8.991 12.1139 9.036 12.0329 9.126C11.9519 9.207 11.8979 9.324 11.8979 9.441C11.8979 9.558 11.9429 9.675 12.0329 9.765C12.1139 9.855 12.2309 9.9 12.3479 9.9C12.4649 9.9 12.5819 9.846 12.6629 9.765C12.7439 9.675 12.7979 9.567 12.7979 9.441C12.7979 9.315 12.7529 9.207 12.6629 9.126C12.5729 9.045 12.4649 8.991 12.3479 8.991Z" fill="black"/>
</g>
<defs>
<clipPath id="clip0_11161_22531">
<rect width="18" height="18" fill="white"/>
</clipPath>
</defs>
</svg>
