<svg width="18" height="18" viewBox="0 0 18 18" fill="none" xmlns="http://www.w3.org/2000/svg">
  <g clip-path="url(#a)">
    <path d="M18 0H0v18h18z" fill="#25D366"/>
    <path d="m2.705 15.302.882-3.132a6.27 6.27 0 0 1-.866-3.185 6.294 6.294 0 0 1 6.287-6.287 6.294 6.294 0 0 1 6.287 6.287 6.294 6.294 0 0 1-6.287 6.287 6.3 6.3 0 0 1-3.073-.802zM6.1 13.326l.192.118a5.2 5.2 0 0 0 2.716.761 5.226 5.226 0 0 0 5.22-5.22 5.226 5.226 0 0 0-5.22-5.22 5.226 5.226 0 0 0-5.22 5.22c0 1.003.285 1.977.824 2.817l.13.202-.508 1.803z" fill="#FFFFFF"/>
    <path d="m7.242 6.06-.408-.023a.5.5 0 0 0-.35.12c-.198.172-.514.504-.612.936-.144.645.08 1.435.659 2.225s1.659 2.054 3.568 2.594c.615.174 1.099.056 1.472-.182.296-.19.5-.493.573-.836l.065-.305a.21.21 0 0 0-.118-.236l-1.379-.635a.21.21 0 0 0-.255.063l-.542.701a.155.155 0 0 1-.174.052c-.37-.13-1.612-.65-2.293-1.962a.16.16 0 0 1 .02-.175l.517-.598a.21.21 0 0 0 .034-.222l-.594-1.39a.21.21 0 0 0-.183-.128" fill="#FFFFFF"/>
  </g>
  <defs>
    <clipPath id="a">
      <rect width="18" height="18" rx="4" fill="#FFFFFF"/>
    </clipPath>
  </defs>
</svg>
