<?xml version="1.0" encoding="utf-8"?>
<!-- Generator: Adobe Illustrator 28.0.0, SVG Export Plug-In . SVG Version: 6.00 Build 0)  -->
<svg version="1.1" id="Layer_1" xmlns="http://www.w3.org/2000/svg" xmlns:xlink="http://www.w3.org/1999/xlink" x="0px" y="0px"
	 viewBox="0 0 18 18" style="enable-background:new 0 0 18 18;" xml:space="preserve">
<g>
	<polygon points="9.1,8.2 6.6,4.6 5.3,4.6 8.4,9.1 8.7,9.6 8.7,9.6 11.4,13.4 12.7,13.4 9.5,8.8 	"/>
	<path d="M9,0C4,0,0,4,0,9c0,5,4,9,9,9s9-4,9-9C18,4,14,0,9,0z M11,14l-2.7-3.9L5,14H4.1l3.8-4.4L4.1,4H7l2.5,3.7L12.7,4h0.9
		L9.9,8.2h0l4,5.8H11z"/>
</g>
</svg>
