<?xml version="1.0" encoding="UTF-8"?>
<svg id="Layer_1" xmlns="http://www.w3.org/2000/svg" version="1.1" viewBox="0 0 18 18">
  <!-- Generator: Adobe Illustrator 29.6.1, SVG Export Plug-In . SVG Version: 2.1.1 Build 9)  -->
  <polygon points="7.9 10.65 10.758 9 7.9 7.35 7.9 10.65"/>
  <path d="M9,0C4.029,0,0,4.029,0,9s4.029,9,9,9,9-4.029,9-9S13.971,0,9,0ZM14.27,11.648c-.127.473-.499.846-.973.972-.858.23-4.298.23-4.298.23,0,0-3.44,0-4.298-.23-.473-.127-.846-.499-.973-.972-.23-.858-.23-2.648-.23-2.648,0,0,0-1.79.23-2.648.127-.473.499-.846.973-.973.858-.23,4.298-.23,4.298-.23,0,0,3.44,0,4.298.23.473.127.846.499.973.973.23.858.23,2.648.23,2.648,0,0,0,1.79-.23,2.648Z"/>
</svg>